SplineFontDB: 1.0
FontName: THChakraPetch
FullName: THChakraPetch
FamilyName: TH Chakra Petch
Weight: Book
Copyright: Copyright (c) 2006 by Department of Intellectual Property (DIP), Ministry of Commerce and Software Industry Promotion Agency (Public Organization) (SIPA). All rights reserved.
Version: 1.1
ItalicAngle: 0
UnderlinePosition: -35
UnderlineWidth: 30
Ascent: 800
Descent: 200
Order2: 1
XUID: [1021 375 425136265 400220]
FSType: 0
OS2Version: 3
OS2_WeightWidthSlopeOnly: 0
OS2_UseTypoMetrics: 1
CreationTime: 1158666480
ModificationTime: 1174405989
PfmFamily: 17
TTFWeight: 400
TTFWidth: 5
LineGap: 60
VLineGap: 0
Panose: 2 0 5 6 0 0 0 2 0 4
OS2TypoAscent: 0
OS2TypoAOffset: 1
OS2TypoDescent: 0
OS2TypoDOffset: 1
OS2TypoLinegap: 0
OS2WinAscent: 16
OS2WinAOffset: 1
OS2WinDescent: -207
OS2WinDOffset: 1
HheadAscent: 16
HheadAOffset: 1
HheadDescent: 207
HheadDOffset: 1
OS2SubXSize: 700
OS2SubYSize: 650
OS2SubXOff: 0
OS2SubYOff: 140
OS2SupXSize: 700
OS2SupYSize: 650
OS2SupXOff: 0
OS2SupYOff: 477
OS2StrikeYSize: 30
OS2StrikeYPos: 250
OS2FamilyClass: 773
OS2Vendor: 'ASSA'
ScriptLang: 2
 1 latn 1 dflt 
 0 
ChainSub: coverage 0 0 'liga' 0 0 0 1
 1 0 1
  Coverage: 64 uni0E48.alt2 uni0E49.alt2 uni0E4A.alt2 uni0E4B.alt2 uni0E4C.alt2
  FCoverage: 7 uni0E33
 1
  SeqLookup: 0 'L027'
EndFPST
ChainSub: coverage 0 0 'liga' 0 0 0 1
 1 1 0
  Coverage: 7 uni0E47
  BCoverage: 12 uni0E2C.alt1
 1
  SeqLookup: 0 'L026'
EndFPST
ChainSub: coverage 0 0 'liga' 0 0 0 1
 1 0 1
  Coverage: 7 uni0E2C
  FCoverage: 39 uni0E34 uni0E35 uni0E36 uni0E37 uni0E47
 1
  SeqLookup: 0 'L026'
EndFPST
ChainSub: coverage 0 0 'liga' 0 0 0 1
 1 0 1
  Coverage: 15 uni0E0E uni0E0F
  FCoverage: 38 uni0E38.alt1 uni0E39.alt1 uni0E3A.alt1
 1
  SeqLookup: 0 'L026'
EndFPST
ChainSub: coverage 0 0 'liga' 0 0 0 1
 1 1 0
  Coverage: 5 a b c
  BCoverage: 23 uni0E1B uni0E1D uni0E1F
 1
  SeqLookup: 0 'L026'
EndFPST
ChainSub: coverage 0 0 'liga' 0 0 0 1
 1 0 1
  Coverage: 5 a b c

StartChar: .notdef
Encoding: 65536 -1 0
Width: 390
Flags: W
Fore
32 576 m 1,0,-1
 338 576 l 1,1,-1
 338 0 l 1,2,-1
 32 0 l 1,3,-1
 32 576 l 1,0,-1
302 36 m 1,4,-1
 302 540 l 1,5,-1
 68 540 l 1,6,-1
 68 36 l 1,7,-1
 302 36 l 1,4,-1
EndSplineSet
EndChar
StartChar: numbersign
Encoding: 35 35 4
Width: 355
Flags: W
Fore
301 234 m 1,0,-1
 247 234 l 1,1,-1
 235 126 l 1,2,-1
 289 126 l 1,3,-1
 286 90 l 1,4,-1
 232 90 l 1,5,-1
 222 0 l 1,6,-1
 186 0 l 1,7,-1
 196 90 l 1,8,-1
 124 90 l 1,9,-1
 114 0 l 1,10,-1
 78 0 l 1,11,-1
 88 90 l 1,12,-1
 34 90 l 1,13,-1
 38 126 l 1,14,-1
 92 126 l 1,15,-1
 103 234 l 1,16,-1
 49 234 l 1,17,-1
 53 270 l 1,18,-1
 107 270 l 1,19,-1
 116 360 l 1,20,-1
 152 360 l 1,21,-1
 143 270 l 1,22,-1
 215 270 l 1,23,-1
 224 360 l 1,24,-1
 260 360 l 1,25,-1
 251 270 l 1,26,-1
 305 270 l 1,27,-1
 301 234 l 1,0,-1
199 126 m 1,28,-1
 211 234 l 1,29,-1
 139 234 l 1,30,-1
 128 126 l 1,31,-1
 199 126 l 1,28,-1
EndSplineSet
EndChar
StartChar: dollar
Encoding: 36 36 5
Width: 371
Flags: W
Fore
266 215 m 1,0,-1
 320 162 l 1,1,-1
 320 54 l 1,2,-1
 266 0 l 1,3,-1
 194 0 l 1,4,-1
 194 -36 l 1,5,-1
 158 -36 l 1,6,-1
 158 0 l 1,7,-1
 95 0 l 1,8,-1
 41 54 l 1,9,-1
 41 90 l 1,10,-1
 77 90 l 1,11,-1
 77 69 l 1,12,-1
 110 36 l 1,13,-1
 251 36 l 1,14,-1
 284 69 l 1,15,-1
 284 147 l 1,16,-1
 251 180 l 1,17,-1
 86 180 l 1,18,-1
 32 233 l 1,19,-1
 32 342 l 1,20,-1
 86 396 l 1,21,-1
 158 396 l 1,22,-1
 158 432 l 1,23,-1
 194 432 l 1,24,-1
 194 396 l 1,25,-1
 257 396 l 1,26,-1
 311 342 l 1,27,-1
 311 306 l 1,28,-1
 275 306 l 1,29,-1
 275 327 l 1,30,-1
 242 360 l 1,31,-1
 101 360 l 1,32,-1
 68 327 l 1,33,-1
 68 248 l 1,34,-1
 101 215 l 1,35,-1
 266 215 l 1,36,-1
 266 215 l 1,0,-1
EndSplineSet
EndChar
StartChar: percent
Encoding: 37 37 6
Width: 408
Flags: W
Fore
141 234 m 1,0,-1
 71 234 l 1,1,-1
 34 271 l 1,2,-1
 34 359 l 1,3,-1
 71 396 l 1,4,-1
 141 396 l 1,5,-1
 178 359 l 1,6,-1
 178 271 l 1,7,-1
 141 234 l 1,0,-1
66 346 m 1,8,-1
 66 284 l 1,9,-1
 84 265 l 1,10,-1
 128 265 l 1,11,-1
 147 284 l 1,12,-1
 147 346 l 1,13,-1
 128 364 l 1,14,-1
 84 364 l 1,15,-1
 66 346 l 1,8,-1
321 198 m 1,16,-1
 358 161 l 1,17,-1
 358 73 l 1,18,-1
 321 36 l 1,19,-1
 251 36 l 1,20,-1
 214 73 l 1,21,-1
 214 161 l 1,22,-1
 251 198 l 1,23,-1
 321 198 l 1,16,-1
326 86 m 1,24,-1
 326 148 l 1,25,-1
 308 166 l 1,26,-1
 264 166 l 1,27,-1
 246 148 l 1,28,-1
 246 86 l 1,29,-1
 264 67 l 1,30,-1
 308 67 l 1,31,-1
 326 86 l 1,24,-1
299 432 m 1,32,-1
 341 432 l 1,33,-1
 93 0 l 1,34,-1
 52 0 l 1,35,-1
 299 432 l 1,32,-1
EndSplineSet
EndChar
StartChar: ampersand
Encoding: 38 38 7
Width: 407
Flags: W
Fore
356 234 m 1,0,-1
 356 198 l 1,1,-1
 320 198 l 1,2,-1
 320 54 l 1,3,-1
 266 0 l 1,4,-1
 86 0 l 1,5,-1
 32 54 l 1,6,-1
 32 180 l 1,7,-1
 77 225 l 1,8,-1
 50 252 l 1,9,-1
 50 378 l 1,10,-1
 104 432 l 1,11,-1
 248 432 l 1,12,-1
 302 378 l 1,13,-1
 302 342 l 1,14,-1
 266 342 l 1,15,-1
 266 363 l 1,16,-1
 233 396 l 1,17,-1
 119 396 l 1,18,-1
 86 363 l 1,19,-1
 86 266 l 1,20,-1
 119 234 l 1,21,-1
 284 234 l 1,22,-1
 284 270 l 1,23,-1
 320 270 l 1,24,-1
 320 234 l 1,25,-1
 356 234 l 1,0,-1
284 69 m 1,26,-1
 284 198 l 1,27,-1
 101 198 l 1,28,-1
 68 165 l 1,29,-1
 68 69 l 1,30,-1
 101 36 l 1,31,-1
 251 36 l 1,32,-1
 284 69 l 1,26,-1
EndSplineSet
EndChar
StartChar: quotesingle
Encoding: 39 39 8
Width: 120
Flags: W
Fore
60 342 m 1,0,-1
 42 342 l 1,1,-1
 33 432 l 1,2,-1
 69 432 l 1,3,-1
 60 342 l 1,4,-1
 60 342 l 1,0,-1
EndSplineSet
EndChar
StartChar: parenleft
Encoding: 40 40 9
Width: 173
Flags: W
Fore
123 -36 m 1,0,-1
 123 -72 l 1,1,-1
 87 -72 l 1,2,-1
 33 -18 l 1,3,-1
 33 449 l 1,4,-1
 87 503 l 1,5,-1
 123 503 l 1,6,-1
 123 468 l 1,7,-1
 102 468 l 1,8,-1
 69 435 l 1,9,-1
 69 -3 l 1,10,-1
 102 -36 l 1,11,-1
 123 -36 l 1,12,-1
 123 -36 l 1,0,-1
EndSplineSet
EndChar
StartChar: parenright
Encoding: 41 41 10
Width: 140
Flags: W
Fore
0 -36 m 1,0,-1
 21 -36 l 1,1,-1
 54 -3 l 1,2,-1
 54 435 l 1,3,-1
 21 468 l 1,4,-1
 0 468 l 1,5,-1
 0 503 l 1,6,-1
 36 503 l 1,7,-1
 90 449 l 1,8,-1
 90 -18 l 1,9,-1
 36 -72 l 1,10,-1
 0 -72 l 1,11,-1
 0 -36 l 1,12,-1
 0 -36 l 1,0,-1
EndSplineSet
EndChar
StartChar: asterisk
Encoding: 42 42 11
Width: 226
Flags: W
Fore
175 380 m 1,0,-1
 127 360 l 1,1,-1
 175 339 l 1,2,-1
 157 308 l 1,3,-1
 115 340 l 1,4,-1
 122 288 l 1,5,-1
 86 288 l 1,6,-1
 92 340 l 1,7,-1
 51 308 l 1,8,-1
 33 339 l 1,9,-1
 81 360 l 1,10,-1
 33 380 l 1,11,-1
 51 411 l 1,12,-1
 92 379 l 1,13,-1
 86 432 l 1,14,-1
 122 432 l 1,15,-1
 115 379 l 1,16,-1
 157 411 l 1,17,-1
 175 380 l 1,18,-1
 175 380 l 1,0,-1
EndSplineSet
EndChar
StartChar: plus
Encoding: 43 43 12
Width: 405
Flags: W
Fore
354 232 m 1,0,-1
 354 196 l 1,1,-1
 210 196 l 1,2,-1
 210 52 l 1,3,-1
 174 52 l 1,4,-1
 174 196 l 1,5,-1
 30 196 l 1,6,-1
 30 232 l 1,7,-1
 174 232 l 1,8,-1
 174 376 l 1,9,-1
 210 376 l 1,10,-1
 210 232 l 1,11,-1
 354 232 l 1,12,-1
 354 232 l 1,0,-1
EndSplineSet
EndChar
StartChar: comma
Encoding: 44 44 13
Width: 151
Flags: W
Fore
101 50 m 1,0,-1
 101 17 l 1,1,-1
 47 -54 l 1,2,-1
 29 -54 l 1,3,-1
 56 0 l 1,4,-1
 50 0 l 1,5,-1
 29 21 l 1,6,-1
 29 50 l 1,7,-1
 50 72 l 1,8,-1
 80 72 l 1,9,-1
 101 50 l 1,10,-1
 101 50 l 1,0,-1
EndSplineSet
EndChar
StartChar: hyphen
Encoding: 45 45 14
Width: 264
Flags: W
Fore
214 144 m 1,0,-1
 34 144 l 1,1,-1
 34 180 l 1,2,-1
 214 180 l 1,3,-1
 214 144 l 1,4,-1
 214 144 l 1,0,-1
EndSplineSet
EndChar
StartChar: period
Encoding: 46 46 15
Width: 151
Flags: W
Fore
101 50 m 1,0,-1
 101 21 l 1,1,-1
 80 0 l 1,2,-1
 50 0 l 1,3,-1
 29 21 l 1,4,-1
 29 50 l 1,5,-1
 50 72 l 1,6,-1
 80 72 l 1,7,-1
 101 50 l 1,8,-1
 101 50 l 1,0,-1
EndSplineSet
EndChar
StartChar: slash
Encoding: 47 47 16
Width: 340
Flags: W
Fore
248 432 m 1,0,-1
 289 432 l 1,1,-1
 41 0 l 1,2,-1
 0 0 l 1,3,-1
 248 432 l 1,4,-1
 248 432 l 1,0,-1
EndSplineSet
EndChar
StartChar: zero
Encoding: 48 48 17
Width: 353
Flags: W
Fore
248 431 m 1,0,-1
 302 378 l 1,1,-1
 302 54 l 1,2,-1
 248 0 l 1,3,-1
 86 0 l 1,4,-1
 32 54 l 1,5,-1
 32 377 l 1,6,-1
 86 431 l 1,7,-1
 248 431 l 1,0,-1
266 69 m 1,8,-1
 266 363 l 1,9,-1
 234 395 l 1,10,-1
 101 395 l 1,11,-1
 68 363 l 1,12,-1
 68 69 l 1,13,-1
 101 36 l 1,14,-1
 233 36 l 1,15,-1
 266 69 l 1,8,-1
EndSplineSet
EndChar
StartChar: one
Encoding: 49 49 18
Width: 182
Flags: W
Fore
132 431 m 1,0,-1
 132 0 l 1,1,-1
 96 0 l 1,2,-1
 96 381 l 1,3,-1
 50 335 l 1,4,-1
 25 361 l 1,5,-1
 96 431 l 1,6,-1
 132 431 l 1,7,-1
 132 431 l 1,0,-1
EndSplineSet
EndChar
StartChar: two
Encoding: 50 50 19
Width: 353
Flags: W
Fore
249 431 m 1,0,-1
 303 378 l 1,1,-1
 303 288 l 1,2,-1
 69 74 l 1,3,-1
 69 36 l 1,4,-1
 303 36 l 1,5,-1
 303 0 l 1,6,-1
 33 0 l 1,7,-1
 33 90 l 1,8,-1
 267 304 l 1,9,-1
 267 363 l 1,10,-1
 234 395 l 1,11,-1
 111 395 l 1,12,-1
 78 363 l 1,13,-1
 78 340 l 1,14,-1
 42 340 l 1,15,-1
 42 377 l 1,16,-1
 96 431 l 1,17,-1
 249 431 l 1,18,-1
 249 431 l 1,0,-1
EndSplineSet
EndChar
StartChar: three
Encoding: 51 51 20
Width: 335
Flags: W
Fore
302 198 m 1,0,-1
 302 54 l 1,1,-1
 248 0 l 1,2,-1
 86 0 l 1,3,-1
 32 54 l 1,4,-1
 32 90 l 1,5,-1
 68 90 l 1,6,-1
 68 69 l 1,7,-1
 101 36 l 1,8,-1
 233 36 l 1,9,-1
 266 69 l 1,10,-1
 266 183 l 1,11,-1
 233 216 l 1,12,-1
 122 216 l 1,13,-1
 122 252 l 1,14,-1
 233 252 l 1,15,-1
 266 284 l 1,16,-1
 266 363 l 1,17,-1
 233 395 l 1,18,-1
 110 395 l 1,19,-1
 77 363 l 1,20,-1
 77 342 l 1,21,-1
 41 342 l 1,22,-1
 41 377 l 1,23,-1
 95 431 l 1,24,-1
 248 431 l 1,25,-1
 302 378 l 1,26,-1
 302 269 l 1,27,-1
 266 234 l 1,28,-1
 302 198 l 1,29,-1
 302 198 l 1,0,-1
EndSplineSet
EndChar
StartChar: four
Encoding: 52 52 21
Width: 353
Flags: W
Fore
266 108 m 1,0,-1
 302 108 l 1,1,-1
 302 72 l 1,2,-1
 266 72 l 1,3,-1
 266 0 l 1,4,-1
 230 0 l 1,5,-1
 230 72 l 1,6,-1
 33 72 l 1,7,-1
 32 72 l 1,8,-1
 32 144 l 1,9,-1
 194 431 l 1,10,-1
 266 431 l 1,11,-1
 266 108 l 1,0,-1
230 108 m 1,12,-1
 230 395 l 1,13,-1
 215 395 l 1,14,-1
 68 134 l 1,15,-1
 68 108 l 1,16,-1
 230 108 l 1,12,-1
EndSplineSet
EndChar
StartChar: five
Encoding: 53 53 22
Width: 353
Flags: W
Fore
302 216 m 1,0,-1
 302 54 l 1,1,-1
 248 0 l 1,2,-1
 86 0 l 1,3,-1
 32 54 l 1,4,-1
 32 90 l 1,5,-1
 68 90 l 1,6,-1
 68 69 l 1,7,-1
 101 36 l 1,8,-1
 233 36 l 1,9,-1
 266 69 l 1,10,-1
 266 201 l 1,11,-1
 233 234 l 1,12,-1
 32 234 l 1,13,-1
 32 431 l 1,14,-1
 284 431 l 1,15,-1
 284 395 l 1,16,-1
 68 395 l 1,17,-1
 68 270 l 1,18,-1
 248 270 l 1,19,-1
 302 216 l 1,0,-1
EndSplineSet
EndChar
StartChar: six
Encoding: 54 54 23
Width: 353
Flags: W
Fore
302 216 m 1,0,-1
 302 54 l 1,1,-1
 248 0 l 1,2,-1
 86 0 l 1,3,-1
 33 54 l 1,4,-1
 33 378 l 1,5,-1
 86 431 l 1,6,-1
 239 431 l 1,7,-1
 293 377 l 1,8,-1
 293 342 l 1,9,-1
 257 342 l 1,10,-1
 257 363 l 1,11,-1
 225 395 l 1,12,-1
 101 395 l 1,13,-1
 69 363 l 1,14,-1
 69 252 l 1,15,-1
 87 270 l 1,16,-1
 249 270 l 1,17,-1
 302 216 l 1,0,-1
234 36 m 1,18,-1
 266 69 l 1,19,-1
 266 201 l 1,20,-1
 234 234 l 1,21,-1
 102 234 l 1,22,-1
 69 201 l 1,23,-1
 69 69 l 1,24,-1
 101 36 l 1,25,-1
 234 36 l 1,18,-1
EndSplineSet
EndChar
StartChar: seven
Encoding: 55 55 24
Width: 353
Flags: W
Fore
302 431 m 1,0,-1
 302 306 l 1,1,-1
 185 200 l 1,2,-1
 185 0 l 1,3,-1
 149 0 l 1,4,-1
 149 216 l 1,5,-1
 266 322 l 1,6,-1
 266 395 l 1,7,-1
 68 395 l 1,8,-1
 68 342 l 1,9,-1
 32 342 l 1,10,-1
 32 431 l 1,11,-1
 302 431 l 1,0,-1
EndSplineSet
EndChar
StartChar: eight
Encoding: 56 56 25
Width: 353
Flags: W
Fore
258 243 m 1,0,-1
 303 198 l 1,1,-1
 303 54 l 1,2,-1
 249 0 l 1,3,-1
 87 0 l 1,4,-1
 33 54 l 1,5,-1
 33 198 l 1,6,-1
 78 243 l 1,7,-1
 51 270 l 1,8,-1
 51 378 l 1,9,-1
 105 431 l 1,10,-1
 231 431 l 1,11,-1
 285 377 l 1,12,-1
 285 269 l 1,13,-1
 258 243 l 1,0,-1
87 363 m 1,14,-1
 87 285 l 1,15,-1
 120 252 l 1,16,-1
 216 252 l 1,17,-1
 249 284 l 1,18,-1
 249 363 l 1,19,-1
 216 395 l 1,20,-1
 120 395 l 1,21,-1
 87 363 l 1,14,-1
267 69 m 1,22,-1
 267 183 l 1,23,-1
 234 216 l 1,24,-1
 102 216 l 1,25,-1
 69 183 l 1,26,-1
 69 69 l 1,27,-1
 102 36 l 1,28,-1
 234 36 l 1,29,-1
 267 69 l 1,22,-1
EndSplineSet
EndChar
StartChar: nine
Encoding: 57 57 26
Width: 353
Flags: W
Fore
302 378 m 1,0,-1
 302 54 l 1,1,-1
 248 0 l 1,2,-1
 95 0 l 1,3,-1
 41 54 l 1,4,-1
 41 90 l 1,5,-1
 77 90 l 1,6,-1
 77 69 l 1,7,-1
 110 36 l 1,8,-1
 234 36 l 1,9,-1
 266 69 l 1,10,-1
 266 180 l 1,11,-1
 248 162 l 1,12,-1
 86 162 l 1,13,-1
 33 216 l 1,14,-1
 32 377 l 1,15,-1
 86 431 l 1,16,-1
 248 431 l 1,17,-1
 302 378 l 1,0,-1
233 198 m 1,18,-1
 266 231 l 1,19,-1
 266 363 l 1,20,-1
 234 395 l 1,21,-1
 101 395 l 1,22,-1
 68 363 l 1,23,-1
 68 230 l 1,24,-1
 101 198 l 1,25,-1
 233 198 l 1,18,-1
EndSplineSet
EndChar
StartChar: colon
Encoding: 58 58 27
Width: 151
Flags: W
Fore
50 72 m 1,0,-1
 80 72 l 1,1,-1
 101 50 l 1,2,-1
 101 21 l 1,3,-1
 80 0 l 1,4,-1
 50 0 l 1,5,-1
 29 21 l 1,6,-1
 29 50 l 1,7,-1
 50 72 l 1,0,-1
80 269 m 1,8,-1
 101 248 l 1,9,-1
 101 219 l 1,10,-1
 80 197 l 1,11,-1
 50 197 l 1,12,-1
 29 219 l 1,13,-1
 29 248 l 1,14,-1
 50 269 l 1,15,-1
 80 269 l 1,8,-1
EndSplineSet
EndChar
StartChar: semicolon
Encoding: 59 59 28
Width: 151
Flags: W
Fore
80 269 m 1,0,-1
 101 248 l 1,1,-1
 101 219 l 1,2,-1
 80 197 l 1,3,-1
 50 197 l 1,4,-1
 29 219 l 1,5,-1
 29 248 l 1,6,-1
 50 269 l 1,7,-1
 80 269 l 1,0,-1
50 72 m 1,8,-1
 80 72 l 1,9,-1
 101 50 l 1,10,-1
 101 17 l 1,11,-1
 47 -54 l 1,12,-1
 29 -54 l 1,13,-1
 56 0 l 1,14,-1
 50 0 l 1,15,-1
 29 21 l 1,16,-1
 29 50 l 1,17,-1
 50 72 l 1,8,-1
EndSplineSet
EndChar
StartChar: less
Encoding: 60 60 29
Width: 405
Flags: W
Fore
354 318 m 1,0,-1
 66 182 l 1,1,-1
 66 174 l 1,2,-1
 354 39 l 1,3,-1
 354 -1 l 1,4,-1
 30 151 l 1,5,-1
 30 205 l 1,6,-1
 354 357 l 1,7,-1
 354 318 l 1,8,-1
 354 318 l 1,0,-1
EndSplineSet
EndChar
StartChar: equal
Encoding: 61 61 30
Width: 405
Flags: W
Fore
30 294 m 1,0,-1
 354 294 l 1,1,-1
 354 258 l 1,2,-1
 30 258 l 1,3,-1
 30 294 l 1,0,-1
30 133 m 1,4,-1
 30 169 l 1,5,-1
 354 169 l 1,6,-1
 354 133 l 1,7,-1
 30 133 l 1,4,-1
EndSplineSet
EndChar
StartChar: greater
Encoding: 62 62 31
Width: 405
Flags: W
Fore
30 357 m 1,0,-1
 353 205 l 1,1,-1
 353 151 l 1,2,-1
 30 -1 l 1,3,-1
 30 39 l 1,4,-1
 317 174 l 1,5,-1
 317 182 l 1,6,-1
 30 318 l 1,7,-1
 30 357 l 1,8,-1
 30 357 l 1,0,-1
EndSplineSet
EndChar
StartChar: question
Encoding: 63 63 32
Width: 354
Flags: W
Fore
158 45 m 1,0,-1
 177 45 l 1,1,-1
 190 32 l 1,2,-1
 190 13 l 1,3,-1
 177 0 l 1,4,-1
 158 0 l 1,5,-1
 145 13 l 1,6,-1
 145 32 l 1,7,-1
 158 45 l 1,0,-1
249 432 m 1,8,-1
 303 378 l 1,9,-1
 303 287 l 1,10,-1
 186 180 l 1,11,-1
 186 90 l 1,12,-1
 150 90 l 1,13,-1
 150 196 l 1,14,-1
 267 303 l 1,15,-1
 267 363 l 1,16,-1
 234 396 l 1,17,-1
 102 396 l 1,18,-1
 69 363 l 1,19,-1
 69 342 l 1,20,-1
 33 342 l 1,21,-1
 33 378 l 1,22,-1
 87 432 l 1,23,-1
 249 432 l 1,8,-1
EndSplineSet
EndChar
StartChar: at
Encoding: 64 64 33
Width: 461
Flags: W
Fore
302 342 m 1,0,-1
 410 234 l 1,1,-1
 410 108 l 1,2,-1
 355 54 l 1,3,-1
 284 54 l 1,4,-1
 284 90 l 1,5,-1
 248 54 l 1,6,-1
 176 54 l 1,7,-1
 122 108 l 1,8,-1
 122 198 l 1,9,-1
 176 252 l 1,10,-1
 266 252 l 1,11,-1
 320 198 l 1,12,-1
 320 90 l 1,13,-1
 340 90 l 1,14,-1
 374 123 l 1,15,-1
 374 219 l 1,16,-1
 287 306 l 1,17,-1
 155 306 l 1,18,-1
 68 219 l 1,19,-1
 68 86 l 1,20,-1
 154 0 l 1,21,-1
 374 0 l 1,22,-1
 374 -36 l 1,23,-1
 140 -36 l 1,24,-1
 32 71 l 1,25,-1
 32 234 l 1,26,-1
 140 342 l 1,27,-1
 302 342 l 1,0,-1
239 90 m 1,28,-1
 284 134 l 1,29,-1
 284 183 l 1,30,-1
 251 216 l 1,31,-1
 191 216 l 1,32,-1
 158 183 l 1,33,-1
 158 123 l 1,34,-1
 191 90 l 1,35,-1
 239 90 l 1,28,-1
EndSplineSet
EndChar
StartChar: A
Encoding: 65 65 34
Width: 371
Flags: W
Fore
203 431 m 1,0,-1
 320 233 l 1,1,-1
 320 0 l 1,2,-1
 284 0 l 1,3,-1
 284 126 l 1,4,-1
 68 126 l 1,5,-1
 68 0 l 1,6,-1
 32 0 l 1,7,-1
 32 233 l 1,8,-1
 149 431 l 1,9,-1
 203 431 l 1,0,-1
284 162 m 1,10,-1
 284 223 l 1,11,-1
 182 395 l 1,12,-1
 169 395 l 1,13,-1
 68 224 l 1,14,-1
 68 162 l 1,15,-1
 284 162 l 1,10,-1
EndSplineSet
EndChar
StartChar: B
Encoding: 66 66 35
Width: 353
Flags: W
Fore
257 225 m 1,0,-1
 302 180 l 1,1,-1
 302 54 l 1,2,-1
 248 0 l 1,3,-1
 32 0 l 1,4,-1
 32 431 l 1,5,-1
 230 431 l 1,6,-1
 284 377 l 1,7,-1
 284 252 l 1,8,-1
 257 225 l 1,0,-1
68 395 m 1,9,-1
 68 234 l 1,10,-1
 215 234 l 1,11,-1
 248 266 l 1,12,-1
 248 363 l 1,13,-1
 215 395 l 1,14,-1
 68 395 l 1,9,-1
266 69 m 1,15,-1
 266 165 l 1,16,-1
 233 197 l 1,17,-1
 68 197 l 1,18,-1
 68 36 l 1,19,-1
 233 36 l 1,20,-1
 266 69 l 1,15,-1
EndSplineSet
EndChar
StartChar: C
Encoding: 67 67 36
Width: 372
Flags: W
Fore
285 90 m 1,0,-1
 321 90 l 1,1,-1
 321 54 l 1,2,-1
 267 0 l 1,3,-1
 87 0 l 1,4,-1
 33 54 l 1,5,-1
 33 377 l 1,6,-1
 87 431 l 1,7,-1
 267 431 l 1,8,-1
 321 377 l 1,9,-1
 321 341 l 1,10,-1
 285 341 l 1,11,-1
 285 363 l 1,12,-1
 252 395 l 1,13,-1
 102 395 l 1,14,-1
 69 362 l 1,15,-1
 69 68 l 1,16,-1
 102 36 l 1,17,-1
 252 36 l 1,18,-1
 285 69 l 1,19,-1
 285 90 l 1,20,-1
 285 90 l 1,0,-1
EndSplineSet
EndChar
StartChar: D
Encoding: 68 68 37
Width: 371
Flags: W
Fore
266 431 m 1,0,-1
 320 377 l 1,1,-1
 320 54 l 1,2,-1
 266 0 l 1,3,-1
 32 0 l 1,4,-1
 32 431 l 1,5,-1
 266 431 l 1,0,-1
284 69 m 1,6,-1
 284 363 l 1,7,-1
 251 395 l 1,8,-1
 68 395 l 1,9,-1
 68 36 l 1,10,-1
 251 36 l 1,11,-1
 284 69 l 1,6,-1
EndSplineSet
EndChar
StartChar: E
Encoding: 69 69 38
Width: 353
Flags: W
Fore
102 395 m 1,0,-1
 69 362 l 1,1,-1
 69 234 l 1,2,-1
 284 234 l 1,3,-1
 284 198 l 1,4,-1
 69 198 l 1,5,-1
 69 68 l 1,6,-1
 101 36 l 1,7,-1
 302 36 l 1,8,-1
 302 0 l 1,9,-1
 87 0 l 1,10,-1
 33 54 l 1,11,-1
 33 377 l 1,12,-1
 87 431 l 1,13,-1
 302 431 l 1,14,-1
 302 395 l 1,15,-1
 102 395 l 1,0,-1
EndSplineSet
EndChar
StartChar: F
Encoding: 70 70 39
Width: 353
Flags: W
Fore
101 395 m 1,0,-1
 68 362 l 1,1,-1
 68 234 l 1,2,-1
 284 234 l 1,3,-1
 284 198 l 1,4,-1
 68 198 l 1,5,-1
 68 0 l 1,6,-1
 32 0 l 1,7,-1
 32 377 l 1,8,-1
 86 431 l 1,9,-1
 302 431 l 1,10,-1
 302 395 l 1,11,-1
 101 395 l 1,0,-1
EndSplineSet
EndChar
StartChar: G
Encoding: 71 71 40
Width: 371
Flags: W
Fore
320 341 m 1,0,-1
 284 341 l 1,1,-1
 284 363 l 1,2,-1
 252 395 l 1,3,-1
 101 395 l 1,4,-1
 69 362 l 1,5,-1
 69 68 l 1,6,-1
 101 36 l 1,7,-1
 251 36 l 1,8,-1
 284 69 l 1,9,-1
 284 198 l 1,10,-1
 176 198 l 1,11,-1
 176 234 l 1,12,-1
 320 234 l 1,13,-1
 320 54 l 1,14,-1
 266 0 l 1,15,-1
 86 0 l 1,16,-1
 33 54 l 1,17,-1
 33 377 l 1,18,-1
 87 431 l 1,19,-1
 266 431 l 1,20,-1
 320 378 l 1,21,-1
 320 341 l 1,0,-1
EndSplineSet
EndChar
StartChar: H
Encoding: 72 72 41
Width: 371
Flags: W
Fore
285 431 m 1,0,-1
 321 431 l 1,1,-1
 321 0 l 1,2,-1
 285 0 l 1,3,-1
 285 198 l 1,4,-1
 69 198 l 1,5,-1
 69 0 l 1,6,-1
 33 0 l 1,7,-1
 33 431 l 1,8,-1
 69 431 l 1,9,-1
 69 234 l 1,10,-1
 285 234 l 1,11,-1
 285 431 l 1,12,-1
 285 431 l 1,0,-1
EndSplineSet
EndChar
StartChar: I
Encoding: 73 73 42
Width: 119
Flags: W
Fore
68 0 m 1,0,-1
 32 0 l 1,1,-1
 32 431 l 1,2,-1
 68 431 l 1,3,-1
 68 0 l 1,4,-1
 68 0 l 1,0,-1
EndSplineSet
EndChar
StartChar: J
Encoding: 74 74 43
Width: 335
Flags: W
Fore
248 431 m 1,0,-1
 284 431 l 1,1,-1
 284 54 l 1,2,-1
 230 0 l 1,3,-1
 86 0 l 1,4,-1
 32 54 l 1,5,-1
 32 126 l 1,6,-1
 68 126 l 1,7,-1
 68 68 l 1,8,-1
 101 36 l 1,9,-1
 215 36 l 1,10,-1
 248 69 l 1,11,-1
 248 431 l 1,12,-1
 248 431 l 1,0,-1
EndSplineSet
EndChar
StartChar: K
Encoding: 75 75 44
Width: 371
Flags: W
Fore
284 431 m 1,0,-1
 320 431 l 1,1,-1
 320 310 l 1,2,-1
 226 216 l 1,3,-1
 320 121 l 1,4,-1
 320 0 l 1,5,-1
 284 0 l 1,6,-1
 284 113 l 1,7,-1
 199 198 l 1,8,-1
 68 198 l 1,9,-1
 68 0 l 1,10,-1
 32 0 l 1,11,-1
 32 431 l 1,12,-1
 68 431 l 1,13,-1
 68 234 l 1,14,-1
 199 234 l 1,15,-1
 284 318 l 1,16,-1
 284 431 l 1,17,-1
 284 431 l 1,0,-1
EndSplineSet
EndChar
StartChar: L
Encoding: 76 76 45
Width: 335
Flags: W
Fore
68 36 m 1,0,-1
 284 36 l 1,1,-1
 284 0 l 1,2,-1
 32 0 l 1,3,-1
 32 431 l 1,4,-1
 68 431 l 1,5,-1
 68 36 l 1,6,-1
 68 36 l 1,0,-1
EndSplineSet
EndChar
StartChar: M
Encoding: 77 77 46
Width: 479
Flags: W
Fore
392 431 m 1,0,-1
 428 431 l 1,1,-1
 428 0 l 1,2,-1
 392 0 l 1,3,-1
 392 340 l 1,4,-1
 248 0 l 1,5,-1
 212 0 l 1,6,-1
 68 339 l 1,7,-1
 68 0 l 1,8,-1
 32 0 l 1,9,-1
 32 431 l 1,10,-1
 68 431 l 1,11,-1
 230 50 l 1,12,-1
 392 431 l 1,13,-1
 392 431 l 1,0,-1
EndSplineSet
EndChar
StartChar: N
Encoding: 78 78 47
Width: 371
Flags: W
Fore
284 431 m 1,0,-1
 320 431 l 1,1,-1
 320 0 l 1,2,-1
 284 0 l 1,3,-1
 68 361 l 1,4,-1
 68 0 l 1,5,-1
 32 0 l 1,6,-1
 32 431 l 1,7,-1
 68 431 l 1,8,-1
 284 70 l 1,9,-1
 284 431 l 1,10,-1
 284 431 l 1,0,-1
EndSplineSet
EndChar
StartChar: O
Encoding: 79 79 48
Width: 388
Flags: W
Fore
283 431 m 1,0,-1
 337 377 l 1,1,-1
 337 54 l 1,2,-1
 283 0 l 1,3,-1
 85 0 l 1,4,-1
 31 54 l 1,5,-1
 31 377 l 1,6,-1
 85 431 l 1,7,-1
 283 431 l 1,0,-1
301 69 m 1,8,-1
 301 363 l 1,9,-1
 268 395 l 1,10,-1
 100 395 l 1,11,-1
 67 362 l 1,12,-1
 67 68 l 1,13,-1
 100 36 l 1,14,-1
 268 36 l 1,15,-1
 301 69 l 1,8,-1
EndSplineSet
EndChar
StartChar: P
Encoding: 80 80 49
Width: 353
Flags: W
Fore
248 431 m 1,0,-1
 302 377 l 1,1,-1
 302 251 l 1,2,-1
 248 197 l 1,3,-1
 68 197 l 1,4,-1
 68 0 l 1,5,-1
 33 0 l 1,6,-1
 33 431 l 1,7,-1
 248 431 l 1,0,-1
266 266 m 1,8,-1
 266 363 l 1,9,-1
 234 395 l 1,10,-1
 68 395 l 1,11,-1
 68 233 l 1,12,-1
 233 233 l 1,13,-1
 266 266 l 1,8,-1
EndSplineSet
EndChar
StartChar: Q
Encoding: 81 81 50
Width: 387
Flags: W
Fore
359 -33 m 1,0,-1
 337 -55 l 1,1,-1
 282 0 l 1,2,-1
 85 0 l 1,3,-1
 31 54 l 1,4,-1
 31 377 l 1,5,-1
 85 431 l 1,6,-1
 283 431 l 1,7,-1
 337 377 l 1,8,-1
 337 54 l 1,9,-1
 305 22 l 1,10,-1
 359 -33 l 1,0,-1
67 68 m 1,11,-1
 100 36 l 1,12,-1
 268 36 l 1,13,-1
 301 69 l 1,14,-1
 301 363 l 1,15,-1
 268 395 l 1,16,-1
 100 395 l 1,17,-1
 67 362 l 1,18,-1
 67 68 l 1,11,-1
EndSplineSet
EndChar
StartChar: R
Encoding: 82 82 51
Width: 351
Flags: W
Fore
301 377 m 1,0,-1
 301 252 l 1,1,-1
 265 216 l 1,2,-1
 301 180 l 1,3,-1
 301 0 l 1,4,-1
 265 0 l 1,5,-1
 265 165 l 1,6,-1
 233 197 l 1,7,-1
 68 197 l 1,8,-1
 68 0 l 1,9,-1
 32 0 l 1,10,-1
 32 431 l 1,11,-1
 248 431 l 1,12,-1
 301 377 l 1,0,-1
233 395 m 1,13,-1
 68 395 l 1,14,-1
 68 234 l 1,15,-1
 233 234 l 1,16,-1
 265 266 l 1,17,-1
 265 363 l 1,18,-1
 233 395 l 1,13,-1
EndSplineSet
EndChar
StartChar: S
Encoding: 83 83 52
Width: 372
Flags: W
Fore
267 251 m 1,0,-1
 321 198 l 1,1,-1
 321 54 l 1,2,-1
 267 0 l 1,3,-1
 96 0 l 1,4,-1
 42 54 l 1,5,-1
 42 90 l 1,6,-1
 78 90 l 1,7,-1
 78 68 l 1,8,-1
 111 36 l 1,9,-1
 252 36 l 1,10,-1
 285 69 l 1,11,-1
 285 183 l 1,12,-1
 252 216 l 1,13,-1
 87 216 l 1,14,-1
 33 269 l 1,15,-1
 33 377 l 1,16,-1
 87 431 l 1,17,-1
 258 431 l 1,18,-1
 312 377 l 1,19,-1
 312 341 l 1,20,-1
 276 341 l 1,21,-1
 276 363 l 1,22,-1
 243 395 l 1,23,-1
 102 395 l 1,24,-1
 69 362 l 1,25,-1
 69 284 l 1,26,-1
 102 251 l 1,27,-1
 267 251 l 1,0,-1
EndSplineSet
EndChar
StartChar: T
Encoding: 84 84 53
Width: 371
Flags: W
Fore
320 431 m 1,0,-1
 320 395 l 1,1,-1
 195 395 l 1,2,-1
 195 0 l 1,3,-1
 159 0 l 1,4,-1
 159 395 l 1,5,-1
 33 395 l 1,6,-1
 33 431 l 1,7,-1
 320 431 l 1,8,-1
 320 431 l 1,0,-1
EndSplineSet
EndChar
StartChar: U
Encoding: 85 85 54
Width: 371
Flags: W
Fore
284 431 m 1,0,-1
 320 431 l 1,1,-1
 320 54 l 1,2,-1
 266 0 l 1,3,-1
 86 0 l 1,4,-1
 32 54 l 1,5,-1
 32 431 l 1,6,-1
 68 431 l 1,7,-1
 68 68 l 1,8,-1
 101 36 l 1,9,-1
 251 36 l 1,10,-1
 284 69 l 1,11,-1
 284 431 l 1,12,-1
 284 431 l 1,0,-1
EndSplineSet
EndChar
StartChar: V
Encoding: 86 86 55
Width: 372
Flags: W
Fore
285 431 m 1,0,-1
 321 431 l 1,1,-1
 321 198 l 1,2,-1
 204 0 l 1,3,-1
 150 0 l 1,4,-1
 33 198 l 1,5,-1
 33 431 l 1,6,-1
 69 431 l 1,7,-1
 69 208 l 1,8,-1
 170 36 l 1,9,-1
 183 36 l 1,10,-1
 285 207 l 1,11,-1
 285 431 l 1,12,-1
 285 431 l 1,0,-1
EndSplineSet
EndChar
StartChar: W
Encoding: 87 87 56
Width: 513
Flags: W
Fore
427 431 m 1,0,-1
 463 431 l 1,1,-1
 463 197 l 1,2,-1
 372 0 l 1,3,-1
 320 0 l 1,4,-1
 247 158 l 1,5,-1
 174 0 l 1,6,-1
 122 0 l 1,7,-1
 31 197 l 1,8,-1
 31 431 l 1,9,-1
 67 431 l 1,10,-1
 67 203 l 1,11,-1
 144 36 l 1,12,-1
 152 36 l 1,13,-1
 229 203 l 1,14,-1
 229 431 l 1,15,-1
 265 431 l 1,16,-1
 265 203 l 1,17,-1
 342 36 l 1,18,-1
 350 36 l 1,19,-1
 427 203 l 1,20,-1
 427 431 l 1,21,-1
 427 431 l 1,0,-1
EndSplineSet
EndChar
StartChar: X
Encoding: 88 88 57
Width: 372
Flags: W
Fore
285 431 m 1,0,-1
 321 431 l 1,1,-1
 321 310 l 1,2,-1
 227 215 l 1,3,-1
 321 121 l 1,4,-1
 321 0 l 1,5,-1
 285 0 l 1,6,-1
 285 113 l 1,7,-1
 201 197 l 1,8,-1
 154 197 l 1,9,-1
 69 113 l 1,10,-1
 69 0 l 1,11,-1
 34 0 l 1,12,-1
 34 121 l 1,13,-1
 128 215 l 1,14,-1
 34 310 l 1,15,-1
 34 431 l 1,16,-1
 69 431 l 1,17,-1
 69 318 l 1,18,-1
 154 233 l 1,19,-1
 201 233 l 1,20,-1
 285 318 l 1,21,-1
 285 431 l 1,22,-1
 285 431 l 1,0,-1
EndSplineSet
EndChar
StartChar: Y
Encoding: 89 89 58
Width: 371
Flags: W
Fore
284 431 m 1,0,-1
 320 431 l 1,1,-1
 320 305 l 1,2,-1
 194 198 l 1,3,-1
 194 0 l 1,4,-1
 158 0 l 1,5,-1
 158 199 l 1,6,-1
 32 306 l 1,7,-1
 32 431 l 1,8,-1
 68 431 l 1,9,-1
 68 323 l 1,10,-1
 177 230 l 1,11,-1
 284 322 l 1,12,-1
 284 431 l 1,13,-1
 284 431 l 1,0,-1
EndSplineSet
EndChar
StartChar: Z
Encoding: 90 90 59
Width: 372
Flags: W
Fore
33 431 m 1,0,-1
 321 431 l 1,1,-1
 321 341 l 1,2,-1
 69 75 l 1,3,-1
 69 36 l 1,4,-1
 321 36 l 1,5,-1
 321 0 l 1,6,-1
 33 0 l 1,7,-1
 33 90 l 1,8,-1
 285 356 l 1,9,-1
 285 395 l 1,10,-1
 33 395 l 1,11,-1
 33 431 l 1,12,-1
 33 431 l 1,0,-1
EndSplineSet
EndChar
StartChar: bracketleft
Encoding: 91 91 60
Width: 174
Flags: W
Fore
124 467 m 1,0,-1
 70 467 l 1,1,-1
 70 -36 l 1,2,-1
 124 -36 l 1,3,-1
 124 -72 l 1,4,-1
 34 -72 l 1,5,-1
 34 503 l 1,6,-1
 124 503 l 1,7,-1
 124 467 l 1,0,-1
EndSplineSet
EndChar
StartChar: backslash
Encoding: 92 92 61
Width: 290
Flags: W
Fore
289 0 m 1,0,-1
 248 0 l 1,1,-1
 0 432 l 1,2,-1
 41 432 l 1,3,-1
 289 0 l 1,0,-1
EndSplineSet
EndChar
StartChar: bracketright
Encoding: 93 93 62
Width: 141
Flags: W
Fore
0 503 m 1,0,-1
 90 503 l 1,1,-1
 90 -72 l 1,2,-1
 0 -72 l 1,3,-1
 0 -36 l 1,4,-1
 54 -36 l 1,5,-1
 54 467 l 1,6,-1
 0 467 l 1,7,-1
 0 503 l 1,0,-1
EndSplineSet
EndChar
StartChar: asciicircum
Encoding: 94 94 63
Width: 422
Flags: W
Fore
227 432 m 1,0,-1
 371 144 l 1,1,-1
 331 144 l 1,2,-1
 205 396 l 1,3,-1
 195 396 l 1,4,-1
 69 144 l 1,5,-1
 29 144 l 1,6,-1
 173 432 l 1,7,-1
 227 432 l 1,0,-1
EndSplineSet
EndChar
StartChar: underscore
Encoding: 95 95 64
Width: 371
Flags: W
Fore
33 -65 m 1,0,-1
 33 -29 l 1,1,-1
 320 -29 l 1,2,-1
 320 -65 l 1,3,-1
 33 -65 l 1,0,-1
EndSplineSet
EndChar
StartChar: grave
Encoding: 96 96 65
Width: 148
Flags: W
Fore
79 342 m 1,0,-1
 25 432 l 1,1,-1
 70 432 l 1,2,-1
 97 342 l 1,3,-1
 79 342 l 1,0,-1
EndSplineSet
EndChar
StartChar: a
Encoding: 97 97 66
Width: 371
Flags: W
Fore
320 252 m 1,0,-1
 320 0 l 1,1,-1
 284 0 l 1,2,-1
 284 73 l 1,3,-1
 212 0 l 1,4,-1
 86 0 l 1,5,-1
 32 54 l 1,6,-1
 32 135 l 1,7,-1
 86 189 l 1,8,-1
 284 189 l 1,9,-1
 284 237 l 1,10,-1
 251 270 l 1,11,-1
 101 270 l 1,12,-1
 68 237 l 1,13,-1
 68 216 l 1,14,-1
 32 216 l 1,15,-1
 32 252 l 1,16,-1
 86 306 l 1,17,-1
 266 306 l 1,18,-1
 320 252 l 1,0,-1
203 36 m 1,19,-1
 284 117 l 1,20,-1
 284 153 l 1,21,-1
 101 153 l 1,22,-1
 68 120 l 1,23,-1
 68 69 l 1,24,-1
 101 36 l 1,25,-1
 203 36 l 1,19,-1
EndSplineSet
Substitution: 0 65534 'L026' uni0E38
Substitution: 0 65534 'L026' uni0E38
EndChar
StartChar: b
Encoding: 98 98 67
Width: 371
Flags: W
Fore
321 252 m 1,0,-1
 321 54 l 1,1,-1
 267 0 l 1,2,-1
 87 0 l 1,3,-1
 33 54 l 1,4,-1
 33 432 l 1,5,-1
 69 432 l 1,6,-1
 69 234 l 1,7,-1
 141 306 l 1,8,-1
 267 306 l 1,9,-1
 321 252 l 1,0,-1
252 36 m 1,10,-1
 285 69 l 1,11,-1
 285 237 l 1,12,-1
 252 270 l 1,13,-1
 150 270 l 1,14,-1
 69 189 l 1,15,-1
 69 69 l 1,16,-1
 102 36 l 1,17,-1
 252 36 l 1,10,-1
EndSplineSet
Substitution: 0 65534 'L026' uni0E39
Substitution: 0 65534 'L026' uni0E39
EndChar
StartChar: c
Encoding: 99 99 68
Width: 372
Flags: W
Fore
285 90 m 1,0,-1
 321 90 l 1,1,-1
 321 54 l 1,2,-1
 267 0 l 1,3,-1
 87 0 l 1,4,-1
 33 54 l 1,5,-1
 33 252 l 1,6,-1
 87 306 l 1,7,-1
 267 306 l 1,8,-1
 321 252 l 1,9,-1
 321 216 l 1,10,-1
 285 216 l 1,11,-1
 285 237 l 1,12,-1
 252 270 l 1,13,-1
 102 270 l 1,14,-1
 69 237 l 1,15,-1
 69 69 l 1,16,-1
 102 36 l 1,17,-1
 252 36 l 1,18,-1
 285 69 l 1,19,-1
 285 90 l 1,0,-1
EndSplineSet
Substitution: 0 65534 'L026' uni0E3A
Substitution: 0 65534 'L026' uni0E3A
EndChar
StartChar: d
Encoding: 100 100 69
Width: 372
Flags: W
Fore
285 432 m 1,0,-1
 321 432 l 1,1,-1
 321 54 l 1,2,-1
 267 0 l 1,3,-1
 87 0 l 1,4,-1
 33 54 l 1,5,-1
 33 252 l 1,6,-1
 87 306 l 1,7,-1
 213 306 l 1,8,-1
 285 234 l 1,9,-1
 285 432 l 1,0,-1
252 36 m 1,10,-1
 285 69 l 1,11,-1
 285 189 l 1,12,-1
 204 270 l 1,13,-1
 102 270 l 1,14,-1
 69 237 l 1,15,-1
 69 69 l 1,16,-1
 102 36 l 1,17,-1
 252 36 l 1,10,-1
EndSplineSet
EndChar
StartChar: e
Encoding: 101 101 70
Width: 372
Flags: W
Fore
321 144 m 1,0,-1
 69 144 l 1,1,-1
 69 69 l 1,2,-1
 102 36 l 1,3,-1
 252 36 l 1,4,-1
 285 69 l 1,5,-1
 285 90 l 1,6,-1
 321 90 l 1,7,-1
 321 54 l 1,8,-1
 267 0 l 1,9,-1
 87 0 l 1,10,-1
 33 54 l 1,11,-1
 33 252 l 1,12,-1
 87 306 l 1,13,-1
 267 306 l 1,14,-1
 321 252 l 1,15,-1
 321 144 l 1,0,-1
69 180 m 1,16,-1
 285 180 l 1,17,-1
 285 237 l 1,18,-1
 252 270 l 1,19,-1
 102 270 l 1,20,-1
 69 237 l 1,21,-1
 69 180 l 1,16,-1
EndSplineSet
EndChar
StartChar: f
Encoding: 102 102 71
Width: 209
Flags: W
Fore
101 396 m 1,0,-1
 68 363 l 1,1,-1
 68 270 l 1,2,-1
 158 270 l 1,3,-1
 158 234 l 1,4,-1
 68 234 l 1,5,-1
 68 0 l 1,6,-1
 32 0 l 1,7,-1
 32 378 l 1,8,-1
 86 432 l 1,9,-1
 158 432 l 1,10,-1
 158 396 l 1,11,-1
 101 396 l 1,0,-1
EndSplineSet
EndChar
StartChar: g
Encoding: 103 103 72
Width: 371
Flags: W
Fore
320 252 m 1,0,-1
 320 -72 l 1,1,-1
 266 -126 l 1,2,-1
 176 -126 l 1,3,-1
 176 -90 l 1,4,-1
 251 -90 l 1,5,-1
 284 -57 l 1,6,-1
 284 72 l 1,7,-1
 212 0 l 1,8,-1
 86 0 l 1,9,-1
 32 54 l 1,10,-1
 32 252 l 1,11,-1
 86 306 l 1,12,-1
 266 306 l 1,13,-1
 320 252 l 1,0,-1
203 36 m 1,14,-1
 284 117 l 1,15,-1
 284 237 l 1,16,-1
 251 270 l 1,17,-1
 101 270 l 1,18,-1
 68 237 l 1,19,-1
 68 69 l 1,20,-1
 101 36 l 1,21,-1
 203 36 l 1,14,-1
EndSplineSet
EndChar
StartChar: h
Encoding: 104 104 73
Width: 353
Flags: W
Fore
303 252 m 1,0,-1
 303 0 l 1,1,-1
 267 0 l 1,2,-1
 267 237 l 1,3,-1
 234 270 l 1,4,-1
 150 270 l 1,5,-1
 69 189 l 1,6,-1
 69 0 l 1,7,-1
 33 0 l 1,8,-1
 33 432 l 1,9,-1
 69 432 l 1,10,-1
 69 234 l 1,11,-1
 141 306 l 1,12,-1
 249 306 l 1,13,-1
 303 252 l 1,0,-1
EndSplineSet
EndChar
StartChar: i
Encoding: 105 105 74
Width: 120
Flags: W
Fore
33 0 m 1,0,-1
 33 306 l 1,1,-1
 69 306 l 1,2,-1
 69 0 l 1,3,-1
 33 0 l 1,0,-1
61 375 m 1,4,-1
 74 362 l 1,5,-1
 74 343 l 1,6,-1
 61 330 l 1,7,-1
 42 330 l 1,8,-1
 29 343 l 1,9,-1
 29 362 l 1,10,-1
 42 375 l 1,11,-1
 61 375 l 1,4,-1
EndSplineSet
EndChar
StartChar: j
Encoding: 106 106 75
Width: 129
Flags: W
Fore
42 -58 m 1,0,-1
 42 305 l 1,1,-1
 78 305 l 1,2,-1
 78 -73 l 1,3,-1
 24 -127 l 1,4,-1
 -26 -127 l 1,5,-1
 -26 -91 l 1,6,-1
 9 -91 l 1,7,-1
 42 -58 l 1,0,-1
69 375 m 1,8,-1
 82 362 l 1,9,-1
 82 343 l 1,10,-1
 69 330 l 1,11,-1
 50 330 l 1,12,-1
 37 343 l 1,13,-1
 37 362 l 1,14,-1
 50 375 l 1,15,-1
 69 375 l 1,8,-1
EndSplineSet
EndChar
StartChar: k
Encoding: 107 107 76
Width: 353
Flags: W
Fore
266 306 m 1,0,-1
 302 306 l 1,1,-1
 302 248 l 1,2,-1
 208 153 l 1,3,-1
 302 59 l 1,4,-1
 302 0 l 1,5,-1
 266 0 l 1,6,-1
 266 51 l 1,7,-1
 181 135 l 1,8,-1
 68 135 l 1,9,-1
 68 0 l 1,10,-1
 32 0 l 1,11,-1
 32 432 l 1,12,-1
 68 432 l 1,13,-1
 68 171 l 1,14,-1
 181 171 l 1,15,-1
 266 256 l 1,16,-1
 266 306 l 1,0,-1
EndSplineSet
EndChar
StartChar: l
Encoding: 108 108 77
Width: 119
Flags: W
Fore
33 0 m 1,0,-1
 33 432 l 1,1,-1
 69 432 l 1,2,-1
 69 0 l 1,3,-1
 33 0 l 1,0,-1
EndSplineSet
EndChar
StartChar: m
Encoding: 109 109 78
Width: 478
Flags: W
Fore
427 252 m 1,0,-1
 427 0 l 1,1,-1
 391 0 l 1,2,-1
 391 238 l 1,3,-1
 358 270 l 1,4,-1
 280 270 l 1,5,-1
 247 238 l 1,6,-1
 247 0 l 1,7,-1
 211 0 l 1,8,-1
 211 238 l 1,9,-1
 178 270 l 1,10,-1
 148 270 l 1,11,-1
 67 190 l 1,12,-1
 67 0 l 1,13,-1
 31 0 l 1,14,-1
 31 306 l 1,15,-1
 67 306 l 1,16,-1
 67 234 l 1,17,-1
 139 306 l 1,18,-1
 193 306 l 1,19,-1
 229 270 l 1,20,-1
 265 306 l 1,21,-1
 373 306 l 1,22,-1
 427 252 l 1,0,-1
EndSplineSet
EndChar
StartChar: n
Encoding: 110 110 79
Width: 353
Flags: W
Fore
301 252 m 1,0,-1
 301 0 l 1,1,-1
 265 0 l 1,2,-1
 265 238 l 1,3,-1
 233 270 l 1,4,-1
 148 270 l 1,5,-1
 68 190 l 1,6,-1
 68 0 l 1,7,-1
 32 0 l 1,8,-1
 32 306 l 1,9,-1
 68 306 l 1,10,-1
 68 234 l 1,11,-1
 140 306 l 1,12,-1
 248 306 l 1,13,-1
 301 252 l 1,0,-1
EndSplineSet
EndChar
StartChar: o
Encoding: 111 111 80
Width: 372
Flags: W
Fore
321 54 m 1,0,-1
 267 0 l 1,1,-1
 87 0 l 1,2,-1
 33 54 l 1,3,-1
 33 252 l 1,4,-1
 87 306 l 1,5,-1
 267 306 l 1,6,-1
 321 252 l 1,7,-1
 321 54 l 1,0,-1
102 36 m 1,8,-1
 252 36 l 1,9,-1
 285 69 l 1,10,-1
 285 237 l 1,11,-1
 252 270 l 1,12,-1
 102 270 l 1,13,-1
 69 237 l 1,14,-1
 69 69 l 1,15,-1
 102 36 l 1,8,-1
EndSplineSet
EndChar
StartChar: p
Encoding: 112 112 81
Width: 372
Flags: W
Fore
267 306 m 1,0,-1
 321 252 l 1,1,-1
 321 54 l 1,2,-1
 267 0 l 1,3,-1
 69 0 l 1,4,-1
 69 -125 l 1,5,-1
 33 -125 l 1,6,-1
 33 252 l 1,7,-1
 87 306 l 1,8,-1
 267 306 l 1,0,-1
285 69 m 1,9,-1
 285 237 l 1,10,-1
 252 270 l 1,11,-1
 102 270 l 1,12,-1
 69 237 l 1,13,-1
 69 36 l 1,14,-1
 252 36 l 1,15,-1
 285 69 l 1,9,-1
EndSplineSet
EndChar
StartChar: q
Encoding: 113 113 82
Width: 371
Flags: W
Fore
33 252 m 1,0,-1
 87 306 l 1,1,-1
 267 306 l 1,2,-1
 321 252 l 1,3,-1
 321 -125 l 1,4,-1
 285 -125 l 1,5,-1
 285 0 l 1,6,-1
 87 0 l 1,7,-1
 33 54 l 1,8,-1
 33 252 l 1,0,-1
69 237 m 1,9,-1
 69 69 l 1,10,-1
 102 36 l 1,11,-1
 285 36 l 1,12,-1
 285 237 l 1,13,-1
 252 270 l 1,14,-1
 102 270 l 1,15,-1
 69 237 l 1,9,-1
EndSplineSet
EndChar
StartChar: r
Encoding: 114 114 83
Width: 280
Flags: W
Fore
230 270 m 1,0,-1
 148 270 l 1,1,-1
 68 190 l 1,2,-1
 68 0 l 1,3,-1
 32 0 l 1,4,-1
 32 306 l 1,5,-1
 68 306 l 1,6,-1
 68 234 l 1,7,-1
 140 306 l 1,8,-1
 230 306 l 1,9,-1
 230 270 l 1,0,-1
EndSplineSet
EndChar
StartChar: s
Encoding: 115 115 84
Width: 372
Flags: W
Fore
321 118 m 1,0,-1
 321 54 l 1,1,-1
 267 0 l 1,2,-1
 96 0 l 1,3,-1
 42 54 l 1,4,-1
 42 90 l 1,5,-1
 78 90 l 1,6,-1
 78 69 l 1,7,-1
 111 36 l 1,8,-1
 252 36 l 1,9,-1
 285 69 l 1,10,-1
 285 103 l 1,11,-1
 252 135 l 1,12,-1
 87 135 l 1,13,-1
 33 189 l 1,14,-1
 33 252 l 1,15,-1
 87 306 l 1,16,-1
 258 306 l 1,17,-1
 312 252 l 1,18,-1
 312 216 l 1,19,-1
 276 216 l 1,20,-1
 276 237 l 1,21,-1
 243 270 l 1,22,-1
 102 270 l 1,23,-1
 69 237 l 1,24,-1
 69 204 l 1,25,-1
 102 171 l 1,26,-1
 267 171 l 1,27,-1
 321 118 l 1,0,-1
EndSplineSet
EndChar
StartChar: t
Encoding: 116 116 85
Width: 208
Flags: W
Fore
158 269 m 1,0,-1
 68 269 l 1,1,-1
 68 68 l 1,2,-1
 101 35 l 1,3,-1
 158 35 l 1,4,-1
 158 0 l 1,5,-1
 86 0 l 1,6,-1
 32 54 l 1,7,-1
 32 431 l 1,8,-1
 68 431 l 1,9,-1
 68 305 l 1,10,-1
 158 305 l 1,11,-1
 158 269 l 1,0,-1
EndSplineSet
EndChar
StartChar: u
Encoding: 117 117 86
Width: 354
Flags: W
Fore
267 305 m 1,0,-1
 303 305 l 1,1,-1
 303 0 l 1,2,-1
 267 0 l 1,3,-1
 267 72 l 1,4,-1
 195 0 l 1,5,-1
 87 0 l 1,6,-1
 33 53 l 1,7,-1
 33 305 l 1,8,-1
 69 305 l 1,9,-1
 69 68 l 1,10,-1
 102 35 l 1,11,-1
 186 35 l 1,12,-1
 267 116 l 1,13,-1
 267 305 l 1,0,-1
EndSplineSet
EndChar
StartChar: v
Encoding: 118 118 87
Width: 334
Flags: W
Fore
248 306 m 1,0,-1
 284 306 l 1,1,-1
 284 135 l 1,2,-1
 185 0 l 1,3,-1
 131 0 l 1,4,-1
 32 135 l 1,5,-1
 32 306 l 1,6,-1
 68 306 l 1,7,-1
 68 139 l 1,8,-1
 144 36 l 1,9,-1
 172 36 l 1,10,-1
 248 139 l 1,11,-1
 248 306 l 1,0,-1
EndSplineSet
EndChar
StartChar: w
Encoding: 119 119 88
Width: 479
Flags: W
Fore
392 306 m 1,0,-1
 428 306 l 1,1,-1
 428 135 l 1,2,-1
 347 0 l 1,3,-1
 294 0 l 1,4,-1
 231 105 l 1,5,-1
 167 0 l 1,6,-1
 114 0 l 1,7,-1
 33 135 l 1,8,-1
 33 306 l 1,9,-1
 69 306 l 1,10,-1
 69 137 l 1,11,-1
 129 36 l 1,12,-1
 152 36 l 1,13,-1
 213 137 l 1,14,-1
 213 306 l 1,15,-1
 249 306 l 1,16,-1
 249 137 l 1,17,-1
 309 36 l 1,18,-1
 332 36 l 1,19,-1
 392 137 l 1,20,-1
 392 306 l 1,0,-1
EndSplineSet
EndChar
StartChar: x
Encoding: 120 120 89
Width: 371
Flags: W
Fore
284 306 m 1,0,-1
 320 306 l 1,1,-1
 320 248 l 1,2,-1
 226 153 l 1,3,-1
 320 59 l 1,4,-1
 320 0 l 1,5,-1
 284 0 l 1,6,-1
 284 51 l 1,7,-1
 199 135 l 1,8,-1
 153 135 l 1,9,-1
 68 51 l 1,10,-1
 68 0 l 1,11,-1
 32 0 l 1,12,-1
 32 59 l 1,13,-1
 127 153 l 1,14,-1
 32 248 l 1,15,-1
 32 306 l 1,16,-1
 68 306 l 1,17,-1
 68 256 l 1,18,-1
 153 171 l 1,19,-1
 199 171 l 1,20,-1
 284 256 l 1,21,-1
 284 306 l 1,0,-1
EndSplineSet
EndChar
StartChar: y
Encoding: 121 121 90
Width: 372
Flags: W
Fore
321 306 m 1,0,-1
 321 -72 l 1,1,-1
 267 -126 l 1,2,-1
 177 -126 l 1,3,-1
 177 -90 l 1,4,-1
 252 -90 l 1,5,-1
 285 -57 l 1,6,-1
 285 72 l 1,7,-1
 213 0 l 1,8,-1
 87 0 l 1,9,-1
 33 54 l 1,10,-1
 33 306 l 1,11,-1
 69 306 l 1,12,-1
 69 69 l 1,13,-1
 102 36 l 1,14,-1
 204 36 l 1,15,-1
 285 117 l 1,16,-1
 285 306 l 1,17,-1
 321 306 l 1,0,-1
EndSplineSet
EndChar
StartChar: z
Encoding: 122 122 91
Width: 371
Flags: W
Fore
33 306 m 1,0,-1
 321 306 l 1,1,-1
 321 234 l 1,2,-1
 69 59 l 1,3,-1
 69 36 l 1,4,-1
 321 36 l 1,5,-1
 321 0 l 1,6,-1
 33 0 l 1,7,-1
 33 72 l 1,8,-1
 285 247 l 1,9,-1
 285 270 l 1,10,-1
 33 270 l 1,11,-1
 33 306 l 1,0,-1
EndSplineSet
EndChar
StartChar: braceleft
Encoding: 123 123 92
Width: 226
Flags: W
Fore
121 255 m 1,0,-1
 82 216 l 1,1,-1
 121 177 l 1,2,-1
 121 -4 l 1,3,-1
 154 -36 l 1,4,-1
 175 -36 l 1,5,-1
 175 -72 l 1,6,-1
 139 -72 l 1,7,-1
 85 -19 l 1,8,-1
 85 162 l 1,9,-1
 31 216 l 1,10,-1
 85 270 l 1,11,-1
 85 449 l 1,12,-1
 139 503 l 1,13,-1
 175 503 l 1,14,-1
 175 467 l 1,15,-1
 154 467 l 1,16,-1
 121 434 l 1,17,-1
 121 255 l 1,0,-1
EndSplineSet
EndChar
StartChar: bar
Encoding: 124 124 93
Width: 119
Flags: W
Fore
68 521 m 1,0,-1
 68 -126 l 1,1,-1
 32 -126 l 1,2,-1
 32 521 l 1,3,-1
 68 521 l 1,0,-1
EndSplineSet
EndChar
StartChar: braceright
Encoding: 125 125 94
Width: 194
Flags: W
Fore
90 269 m 1,0,-1
 144 215 l 1,1,-1
 90 161 l 1,2,-1
 90 -18 l 1,3,-1
 36 -72 l 1,4,-1
 0 -72 l 1,5,-1
 0 -36 l 1,6,-1
 21 -36 l 1,7,-1
 54 -3 l 1,8,-1
 54 176 l 1,9,-1
 93 215 l 1,10,-1
 54 254 l 1,11,-1
 54 434 l 1,12,-1
 21 467 l 1,13,-1
 0 467 l 1,14,-1
 0 503 l 1,15,-1
 36 503 l 1,16,-1
 90 449 l 1,17,-1
 90 269 l 1,0,-1
EndSplineSet
EndChar
StartChar: asciitilde
Encoding: 126 126 95
Width: 370
Flags: W
Fore
283 305 m 1,0,-1
 319 305 l 1,1,-1
 319 269 l 1,2,-1
 265 215 l 1,3,-1
 229 215 l 1,4,-1
 114 269 l 1,5,-1
 100 269 l 1,6,-1
 68 236 l 1,7,-1
 68 215 l 1,8,-1
 32 215 l 1,9,-1
 32 251 l 1,10,-1
 86 305 l 1,11,-1
 122 305 l 1,12,-1
 237 251 l 1,13,-1
 250 251 l 1,14,-1
 283 284 l 1,15,-1
 283 305 l 1,0,-1
EndSplineSet
EndChar
StartChar: uni0E33.alt1
Encoding: 65539 -1 96
Width: 353
Flags: W
Fore
249 396 m 1,0,-1
 302 342 l 1,1,-1
 302 0 l 1,2,-1
 266 0 l 1,3,-1
 266 327 l 1,4,-1
 234 360 l 1,5,-1
 101 360 l 1,6,-1
 69 327 l 1,7,-1
 69 306 l 1,8,-1
 33 306 l 1,9,-1
 33 342 l 1,10,-1
 87 396 l 1,11,-1
 249 396 l 1,0,-1
-216 581 m 1,12,-1
 -164 581 l 1,13,-1
 -127 544 l 1,14,-1
 -127 492 l 1,15,-1
 -164 455 l 1,16,-1
 -216 455 l 1,17,-1
 -253 492 l 1,18,-1
 -253 544 l 1,19,-1
 -216 581 l 1,12,-1
-159 505 m 1,20,-1
 -159 531 l 1,21,-1
 -177 550 l 1,22,-1
 -203 550 l 1,23,-1
 -222 531 l 1,24,-1
 -222 505 l 1,25,-1
 -203 487 l 1,26,-1
 -177 487 l 1,27,-1
 -159 505 l 1,20,-1
EndSplineSet
EndChar
StartChar: quotedbl
Encoding: 34 34 97
Width: 173
Flags: W
Fore
41 342 m 1,0,-1
 32 432 l 1,1,-1
 68 432 l 1,2,-1
 59 342 l 1,3,-1
 41 342 l 1,0,-1
86 432 m 1,4,-1
 122 432 l 1,5,-1
 113 342 l 1,6,-1
 95 342 l 1,7,-1
 86 432 l 1,4,-1
EndSplineSet
EndChar
StartChar: exclam
Encoding: 33 33 98
Width: 124
Flags: W
Fore
41 45 m 1,0,-1
 59 45 l 1,1,-1
 73 32 l 1,2,-1
 73 13 l 1,3,-1
 59 0 l 1,4,-1
 41 0 l 1,5,-1
 28 13 l 1,6,-1
 28 32 l 1,7,-1
 41 45 l 1,0,-1
64 90 m 1,8,-1
 37 90 l 1,9,-1
 28 432 l 1,10,-1
 73 432 l 1,11,-1
 64 90 l 1,8,-1
EndSplineSet
EndChar
StartChar: uni0E4E.alt1
Encoding: 65540 -1 99
Width: 0
Flags: W
Fore
-217 617 m 1,0,-1
 -145 617 l 1,1,-1
 -145 581 l 1,2,-1
 -202 581 l 1,3,-1
 -208 574 l 1,4,-1
 -208 518 l 1,5,-1
 -265 518 l 1,6,-1
 -271 511 l 1,7,-1
 -271 455 l 1,8,-1
 -307 455 l 1,9,-1
 -307 526 l 1,10,-1
 -280 554 l 1,11,-1
 -244 554 l 1,12,-1
 -244 589 l 1,13,-1
 -217 617 l 1,14,-1
 -217 617 l 1,0,-1
EndSplineSet
EndChar
StartChar: exclamdown
Encoding: 161 161 100
Width: 124
Flags: W
Fore
60 305 m 1,0,-1
 73 292 l 1,1,-1
 73 274 l 1,2,-1
 60 260 l 1,3,-1
 41 260 l 1,4,-1
 28 274 l 1,5,-1
 28 292 l 1,6,-1
 41 305 l 1,7,-1
 60 305 l 1,0,-1
37 216 m 1,8,-1
 64 216 l 1,9,-1
 73 -126 l 1,10,-1
 28 -126 l 1,11,-1
 37 216 l 1,8,-1
EndSplineSet
EndChar
StartChar: cent
Encoding: 162 162 101
Width: 334
Flags: W
Fore
284 305 m 1,0,-1
 248 305 l 1,1,-1
 248 326 l 1,2,-1
 215 359 l 1,3,-1
 101 359 l 1,4,-1
 68 326 l 1,5,-1
 68 69 l 1,6,-1
 101 36 l 1,7,-1
 215 36 l 1,8,-1
 248 69 l 1,9,-1
 248 90 l 1,10,-1
 284 90 l 1,11,-1
 284 54 l 1,12,-1
 230 0 l 1,13,-1
 176 0 l 1,14,-1
 176 -36 l 1,15,-1
 140 -36 l 1,16,-1
 140 0 l 1,17,-1
 86 0 l 1,18,-1
 32 54 l 1,19,-1
 32 341 l 1,20,-1
 86 395 l 1,21,-1
 140 395 l 1,22,-1
 140 431 l 1,23,-1
 176 431 l 1,24,-1
 176 395 l 1,25,-1
 230 395 l 1,26,-1
 284 341 l 1,27,-1
 284 305 l 1,0,-1
EndSplineSet
EndChar
StartChar: sterling
Encoding: 163 163 102
Width: 386
Flags: W
Fore
82 36 m 1,0,-1
 336 36 l 1,1,-1
 336 0 l 1,2,-1
 31 0 l 1,3,-1
 31 36 l 1,4,-1
 103 108 l 1,5,-1
 103 198 l 1,6,-1
 31 198 l 1,7,-1
 31 234 l 1,8,-1
 103 234 l 1,9,-1
 103 378 l 1,10,-1
 157 432 l 1,11,-1
 265 432 l 1,12,-1
 318 378 l 1,13,-1
 318 342 l 1,14,-1
 283 342 l 1,15,-1
 283 363 l 1,16,-1
 250 396 l 1,17,-1
 172 396 l 1,18,-1
 139 363 l 1,19,-1
 139 234 l 1,20,-1
 211 234 l 1,21,-1
 211 198 l 1,22,-1
 139 198 l 1,23,-1
 139 93 l 1,24,-1
 82 36 l 1,0,-1
EndSplineSet
EndChar
StartChar: currency
Encoding: 164 164 103
Width: 399
Flags: W
Fore
331 126 m 1,0,-1
 317 111 l 1,1,-1
 349 79 l 1,2,-1
 323 54 l 1,3,-1
 291 86 l 1,4,-1
 277 72 l 1,5,-1
 97 72 l 1,6,-1
 83 86 l 1,7,-1
 51 54 l 1,8,-1
 25 79 l 1,9,-1
 57 111 l 1,10,-1
 43 126 l 1,11,-1
 43 306 l 1,12,-1
 57 320 l 1,13,-1
 25 352 l 1,14,-1
 51 378 l 1,15,-1
 83 345 l 1,16,-1
 97 360 l 1,17,-1
 277 360 l 1,18,-1
 291 345 l 1,19,-1
 323 378 l 1,20,-1
 349 352 l 1,21,-1
 317 320 l 1,22,-1
 331 306 l 1,23,-1
 331 126 l 1,0,-1
112 108 m 1,24,-1
 262 108 l 1,25,-1
 295 141 l 1,26,-1
 295 291 l 1,27,-1
 262 324 l 1,28,-1
 112 324 l 1,29,-1
 79 291 l 1,30,-1
 79 141 l 1,31,-1
 112 108 l 1,24,-1
EndSplineSet
EndChar
StartChar: yen
Encoding: 165 165 104
Width: 372
Flags: W
Fore
285 431 m 1,0,-1
 321 431 l 1,1,-1
 321 305 l 1,2,-1
 226 225 l 1,3,-1
 285 225 l 1,4,-1
 285 189 l 1,5,-1
 195 189 l 1,6,-1
 195 153 l 1,7,-1
 285 153 l 1,8,-1
 285 117 l 1,9,-1
 195 117 l 1,10,-1
 195 0 l 1,11,-1
 159 0 l 1,12,-1
 159 117 l 1,13,-1
 69 117 l 1,14,-1
 69 153 l 1,15,-1
 159 153 l 1,16,-1
 159 189 l 1,17,-1
 69 189 l 1,18,-1
 69 225 l 1,19,-1
 129 225 l 1,20,-1
 33 307 l 1,21,-1
 33 431 l 1,22,-1
 69 431 l 1,23,-1
 69 323 l 1,24,-1
 177 230 l 1,25,-1
 285 322 l 1,26,-1
 285 431 l 1,0,-1
EndSplineSet
EndChar
StartChar: brokenbar
Encoding: 166 166 105
Width: 120
Flags: W
Fore
34 503 m 1,0,-1
 69 503 l 1,1,-1
 69 216 l 1,2,-1
 34 216 l 1,3,-1
 34 503 l 1,0,-1
34 -126 m 1,4,-1
 34 180 l 1,5,-1
 69 180 l 1,6,-1
 69 -126 l 1,7,-1
 34 -126 l 1,4,-1
EndSplineSet
EndChar
StartChar: section
Encoding: 167 167 106
Width: 335
Flags: W
Fore
249 126 m 1,0,-1
 285 90 l 1,1,-1
 285 18 l 1,2,-1
 231 -36 l 1,3,-1
 105 -36 l 1,4,-1
 51 18 l 1,5,-1
 51 54 l 1,6,-1
 87 54 l 1,7,-1
 87 33 l 1,8,-1
 120 0 l 1,9,-1
 216 0 l 1,10,-1
 249 33 l 1,11,-1
 249 76 l 1,12,-1
 216 108 l 1,13,-1
 105 108 l 1,14,-1
 33 180 l 1,15,-1
 33 234 l 1,16,-1
 69 270 l 1,17,-1
 33 306 l 1,18,-1
 33 378 l 1,19,-1
 87 432 l 1,20,-1
 213 432 l 1,21,-1
 267 378 l 1,22,-1
 267 342 l 1,23,-1
 231 342 l 1,24,-1
 231 363 l 1,25,-1
 198 396 l 1,26,-1
 102 396 l 1,27,-1
 69 363 l 1,28,-1
 69 321 l 1,29,-1
 102 288 l 1,30,-1
 212 288 l 1,31,-1
 285 216 l 1,32,-1
 285 162 l 1,33,-1
 249 126 l 1,0,-1
120 144 m 1,34,-1
 216 144 l 1,35,-1
 249 177 l 1,36,-1
 249 201 l 1,37,-1
 198 252 l 1,38,-1
 102 252 l 1,39,-1
 69 219 l 1,40,-1
 69 195 l 1,41,-1
 120 144 l 1,34,-1
EndSplineSet
EndChar
StartChar: dieresis
Encoding: 168 168 107
Width: 246
Flags: W
Fore
49 533 m 1,0,-1
 76 533 l 1,1,-1
 95 514 l 1,2,-1
 95 487 l 1,3,-1
 76 468 l 1,4,-1
 49 468 l 1,5,-1
 30 487 l 1,6,-1
 30 514 l 1,7,-1
 49 533 l 1,0,-1
177 533 m 1,8,-1
 196 514 l 1,9,-1
 196 487 l 1,10,-1
 177 468 l 1,11,-1
 150 468 l 1,12,-1
 131 487 l 1,13,-1
 131 514 l 1,14,-1
 150 533 l 1,15,-1
 177 533 l 1,8,-1
EndSplineSet
EndChar
StartChar: copyright
Encoding: 169 169 108
Width: 442
Flags: W
Fore
302 395 m 1,0,-1
 392 306 l 1,1,-1
 392 126 l 1,2,-1
 302 36 l 1,3,-1
 122 36 l 1,4,-1
 32 126 l 1,5,-1
 32 305 l 1,6,-1
 122 395 l 1,7,-1
 302 395 l 1,0,-1
356 141 m 1,8,-1
 356 291 l 1,9,-1
 287 359 l 1,10,-1
 137 359 l 1,11,-1
 68 290 l 1,12,-1
 68 141 l 1,13,-1
 137 72 l 1,14,-1
 287 72 l 1,15,-1
 356 141 l 1,8,-1
265 323 m 1,16,-1
 320 269 l 1,17,-1
 320 234 l 1,18,-1
 284 234 l 1,19,-1
 284 254 l 1,20,-1
 250 288 l 1,21,-1
 173 288 l 1,22,-1
 140 254 l 1,23,-1
 140 177 l 1,24,-1
 173 144 l 1,25,-1
 251 144 l 1,26,-1
 284 177 l 1,27,-1
 284 198 l 1,28,-1
 320 198 l 1,29,-1
 320 162 l 1,30,-1
 266 108 l 1,31,-1
 158 108 l 1,32,-1
 104 162 l 1,33,-1
 104 269 l 1,34,-1
 158 323 l 1,35,-1
 265 323 l 1,16,-1
EndSplineSet
EndChar
StartChar: ordfeminine
Encoding: 170 170 109
Width: 304
Flags: W
Fore
211 400 m 1,0,-1
 253 358 l 1,1,-1
 253 166 l 1,2,-1
 220 166 l 1,3,-1
 220 215 l 1,4,-1
 171 166 l 1,5,-1
 75 166 l 1,6,-1
 33 208 l 1,7,-1
 33 271 l 1,8,-1
 75 313 l 1,9,-1
 220 313 l 1,10,-1
 220 344 l 1,11,12
 218 346 218 346 208.5 355 c 128,-1,13
 199 364 199 364 198 366 c 1,14,-1
 89 366 l 1,15,16
 87 364 87 364 77.5 355 c 128,-1,17
 68 346 68 346 66 344 c 1,18,-1
 66 326 l 1,19,-1
 33 326 l 1,20,-1
 33 358 l 1,21,-1
 75 400 l 1,22,-1
 211 400 l 1,0,-1
89 279 m 1,23,24
 87 278 87 278 77.5 268.5 c 128,-1,25
 68 259 68 259 66 257 c 1,26,-1
 66 222 l 1,27,-1
 89 199 l 1,28,-1
 162 199 l 1,29,30
 163 200 163 200 171.5 209 c 128,-1,31
 180 218 180 218 190.5 228.5 c 128,-1,32
 201 239 201 239 210 248 c 128,-1,33
 219 257 219 257 220 258 c 1,34,-1
 220 279 l 1,35,-1
 89 279 l 1,23,24
EndSplineSet
EndChar
StartChar: guillemotleft
Encoding: 171 171 110
Width: 302
Flags: W
Fore
71 168 m 1,0,-1
 71 164 l 1,1,-1
 143 98 l 1,2,-1
 143 49 l 1,3,-1
 35 148 l 1,4,-1
 35 184 l 1,5,-1
 143 283 l 1,6,-1
 143 234 l 1,7,-1
 71 168 l 1,0,-1
251 234 m 1,8,-1
 179 168 l 1,9,-1
 179 164 l 1,10,-1
 251 98 l 1,11,-1
 251 49 l 1,12,-1
 143 148 l 1,13,-1
 143 184 l 1,14,-1
 251 283 l 1,15,-1
 251 234 l 1,8,-1
EndSplineSet
EndChar
StartChar: logicalnot
Encoding: 172 172 111
Width: 391
Flags: W
Fore
34 234 m 1,0,-1
 340 234 l 1,1,-1
 340 90 l 1,2,-1
 304 90 l 1,3,-1
 304 198 l 1,4,-1
 34 198 l 1,5,-1
 34 234 l 1,0,-1
EndSplineSet
EndChar
StartChar: registered
Encoding: 174 174 112
Width: 331
Flags: W
Fore
205 432 m 1,0,-1
 280 357 l 1,1,-1
 280 259 l 2,2,3
 280 258 280 258 268.5 246.5 c 128,-1,4
 257 235 257 235 243 221 c 128,-1,5
 229 207 229 207 217.5 195.5 c 128,-1,6
 206 184 206 184 205 184 c 2,7,-1
 106 184 l 1,8,9
 94.5 195.5 l 130,-1,10
 83 207 83 207 69.5 221 c 128,-1,11
 56 235 56 235 44.5 246.5 c 128,-1,12
 33 258 33 258 32 258 c 1,13,-1
 32 357 l 1,14,-1
 107 432 l 1,15,-1
 205 432 l 1,0,-1
255 269 m 1,16,-1
 255 346 l 1,17,-1
 195 407 l 1,18,-1
 117 407 l 1,19,-1
 57 347 l 1,20,-1
 57 268 l 1,21,-1
 116 209 l 1,22,-1
 195 209 l 1,23,-1
 255 269 l 1,16,-1
111 368 m 1,24,-1
 180 368 l 1,25,-1
 210 338 l 1,26,-1
 210 317 l 1,27,-1
 202 309 l 1,28,-1
 192 299 l 1,29,30
 193 297 193 297 196 294 c 128,-1,31
 202 288 l 2,32,-1
 210 280 l 1,33,-1
 210 248 l 1,34,-1
 186 248 l 1,35,-1
 186 271 l 1,36,-1
 170 287 l 1,37,-1
 135 287 l 1,38,-1
 135 249 l 1,39,-1
 111 249 l 1,40,-1
 111 368 l 1,24,-1
186 327 m 1,41,-1
 186 328 l 1,42,-1
 170 344 l 1,43,-1
 135 344 l 1,44,-1
 135 310 l 1,45,-1
 170 310 l 1,46,-1
 186 327 l 1,41,-1
EndSplineSet
EndChar
StartChar: macron
Encoding: 175 175 113
Width: 211
Flags: W
Fore
34 483 m 1,0,-1
 34 519 l 1,1,-1
 160 519 l 1,2,-1
 160 483 l 1,3,-1
 34 483 l 1,0,-1
34 483 m 1,4,-1
 34 519 l 1,5,-1
 160 519 l 1,6,-1
 160 483 l 1,7,-1
 34 483 l 1,4,-1
EndSplineSet
EndChar
StartChar: degree
Encoding: 176 176 114
Width: 177
Flags: W
Fore
124 431 m 1,0,-1
 161 394 l 1,1,-1
 161 342 l 1,2,-1
 124 305 l 1,3,-1
 72 305 l 1,4,-1
 35 342 l 1,5,-1
 35 394 l 1,6,-1
 72 431 l 1,7,-1
 124 431 l 1,0,-1
129 355 m 1,8,-1
 129 381 l 1,9,-1
 111 400 l 1,10,-1
 85 400 l 1,11,-1
 66 381 l 1,12,-1
 66 355 l 1,13,-1
 85 337 l 1,14,-1
 111 337 l 1,15,-1
 129 355 l 1,8,-1
EndSplineSet
EndChar
StartChar: plusminus
Encoding: 177 177 115
Width: 405
Flags: W
Fore
354 180 m 1,0,-1
 210 180 l 1,1,-1
 210 36 l 1,2,-1
 354 36 l 1,3,-1
 354 0 l 1,4,-1
 31 0 l 1,5,-1
 31 36 l 1,6,-1
 174 36 l 1,7,-1
 174 180 l 1,8,-1
 31 180 l 1,9,-1
 31 216 l 1,10,-1
 174 216 l 1,11,-1
 174 360 l 1,12,-1
 210 360 l 1,13,-1
 210 216 l 1,14,-1
 354 216 l 1,15,-1
 354 180 l 1,16,-1
 354 180 l 1,0,-1
EndSplineSet
EndChar
StartChar: twosuperior
Encoding: 178 178 116
Width: 248
Flags: W
Fore
73 430 m 1,0,-1
 163 430 l 1,1,-1
 197 397 l 1,2,-1
 197 341 l 1,3,-1
 133 283 l 2,4,5
 109 261 109 261 88.5 242.5 c 128,-1,6
 68 224 68 224 67 223 c 1,7,-1
 67 211 l 1,8,-1
 197 211 l 1,9,-1
 197 178 l 1,10,-1
 34 178 l 1,11,-1
 34 237 l 1,12,13
 70 270 70 270 98 296 c 0,14,15
 122 318 122 318 142 336.5 c 128,-1,16
 162 355 162 355 163 356 c 1,17,-1
 163 383 l 1,18,-1
 149 397 l 1,19,-1
 86 397 l 1,20,21
 85 396 85 396 79.5 390 c 128,-1,22
 74 384 74 384 72 383 c 1,23,-1
 72 367 l 1,24,-1
 39 367 l 1,25,-1
 39 396 l 1,26,-1
 73 430 l 1,0,-1
EndSplineSet
EndChar
StartChar: threesuperior
Encoding: 179 179 117
Width: 248
Flags: W
Fore
73 430 m 1,0,-1
 163 430 l 1,1,-1
 197 397 l 1,2,-1
 197 331 l 1,3,-1
 190 324 l 2,4,5
 187 321 187 321 184 318.5 c 128,-1,6
 181 316 181 316 180 314 c 1,7,8
 181 312 181 312 184 309.5 c 128,-1,9
 187 307 187 307 190 304 c 2,10,-1
 197 297 l 1,11,-1
 197 212 l 1,12,-1
 163 178 l 1,13,-1
 68 178 l 1,14,-1
 34 212 l 1,15,-1
 34 241 l 1,16,-1
 67 241 l 1,17,-1
 67 225 l 1,18,19
 69 224 69 224 74.5 218.5 c 128,-1,20
 80 213 80 213 82 211 c 1,21,-1
 149 211 l 2,22,23
 150 211 150 211 156 217.5 c 128,-1,24
 162 224 162 224 164 225 c 1,25,-1
 164 283 l 1,26,27
 162 285 162 285 156.5 290.5 c 128,-1,28
 151 296 151 296 149 297 c 1,29,-1
 84 297 l 1,30,-1
 84 331 l 1,31,-1
 149 331 l 1,32,33
 151 332 151 332 156.5 337.5 c 128,-1,34
 162 343 162 343 164 345 c 1,35,-1
 164 383 l 1,36,37
 162 384 162 384 156.5 389.5 c 128,-1,38
 151 395 151 395 149 397 c 1,39,-1
 87 397 l 1,40,41
 85 395 85 395 79.5 389.5 c 128,-1,42
 74 384 74 384 72 383 c 1,43,-1
 72 367 l 1,44,-1
 39 367 l 1,45,-1
 39 396 l 1,46,-1
 73 430 l 1,0,-1
EndSplineSet
EndChar
StartChar: acute
Encoding: 180 180 118
Width: 156
Flags: W
Fore
33 455 m 1,0,-1
 60 527 l 1,1,-1
 105 527 l 1,2,-1
 51 455 l 1,3,-1
 33 455 l 1,0,-1
EndSplineSet
EndChar
StartChar: mu
Encoding: 181 181 119
Width: 353
Flags: W
Fore
267 305 m 1,0,-1
 303 305 l 1,1,-1
 303 0 l 1,2,-1
 267 0 l 1,3,-1
 267 72 l 1,4,-1
 195 0 l 1,5,-1
 87 0 l 1,6,-1
 69 18 l 1,7,-1
 69 -126 l 1,8,-1
 33 -126 l 1,9,-1
 33 305 l 1,10,-1
 69 305 l 1,11,-1
 69 68 l 1,12,-1
 102 36 l 1,13,-1
 186 36 l 1,14,-1
 267 116 l 1,15,-1
 267 305 l 1,0,-1
EndSplineSet
EndChar
StartChar: paragraph
Encoding: 182 182 120
Width: 279
Flags: W
Fore
193 432 m 1,0,-1
 229 432 l 1,1,-1
 229 -126 l 1,2,-1
 193 -126 l 1,3,-1
 193 432 l 1,0,-1
89 432 m 1,4,-1
 157 432 l 1,5,-1
 157 -126 l 1,6,-1
 121 -126 l 1,7,-1
 121 234 l 1,8,-1
 89 234 l 1,9,-1
 31 292 l 1,10,-1
 31 374 l 1,11,-1
 89 432 l 1,4,-1
EndSplineSet
EndChar
StartChar: periodcentered
Encoding: 183 183 121
Width: 159
Flags: W
Fore
108 230 m 1,0,-1
 108 201 l 1,1,-1
 87 180 l 1,2,-1
 57 180 l 1,3,-1
 36 201 l 1,4,-1
 36 230 l 1,5,-1
 57 251 l 1,6,-1
 87 251 l 1,7,-1
 108 230 l 1,0,-1
EndSplineSet
EndChar
StartChar: cedilla
Encoding: 184 184 122
Width: 172
Flags: W
Fore
85 -30 m 1,0,-1
 122 -66 l 1,1,-1
 122 -114 l 1,2,-1
 85 -151 l 1,3,-1
 31 -151 l 1,4,-1
 31 -120 l 1,5,-1
 72 -120 l 1,6,-1
 90 -101 l 1,7,-1
 90 -80 l 1,8,-1
 72 -61 l 1,9,-1
 31 -61 l 1,10,-1
 31 -43 l 1,11,-1
 82 20 l 1,12,-1
 99 9 l 1,13,-1
 77 -30 l 1,14,-1
 85 -30 l 1,15,-1
 85 -30 l 1,0,-1
EndSplineSet
EndChar
StartChar: onesuperior
Encoding: 185 185 123
Width: 155
Flags: W
Fore
104 431 m 1,0,-1
 104 178 l 1,1,-1
 71 178 l 1,2,-1
 71 380 l 1,3,4
 68 378 68 378 65 374.5 c 128,-1,5
 62 371 62 371 59 368 c 2,6,-1
 52 361 l 1,7,-1
 28 385 l 1,8,-1
 74 431 l 1,9,-1
 104 431 l 1,0,-1
EndSplineSet
EndChar
StartChar: ordmasculine
Encoding: 186 186 124
Width: 248
Flags: W
Fore
160 395 m 1,0,-1
 197 359 l 1,1,-1
 197 270 l 1,2,-1
 160 234 l 1,3,-1
 72 234 l 1,4,-1
 35 270 l 1,5,-1
 35 359 l 1,6,-1
 72 395 l 1,7,-1
 160 395 l 1,0,-1
165 283 m 1,8,-1
 165 345 l 1,9,-1
 147 364 l 1,10,-1
 85 364 l 1,11,-1
 66 345 l 1,12,-1
 66 283 l 1,13,-1
 85 265 l 1,14,-1
 147 265 l 1,15,-1
 165 283 l 1,8,-1
EndSplineSet
EndChar
StartChar: guillemotright
Encoding: 187 187 125
Width: 302
Flags: W
Fore
144 283 m 1,0,-1
 252 184 l 1,1,-1
 252 148 l 1,2,-1
 144 49 l 1,3,-1
 144 97 l 1,4,-1
 216 163 l 1,5,-1
 216 168 l 1,6,-1
 144 234 l 1,7,-1
 144 283 l 1,0,-1
144 184 m 1,8,-1
 144 148 l 1,9,-1
 36 49 l 1,10,-1
 36 97 l 1,11,-1
 108 163 l 1,12,-1
 108 168 l 1,13,-1
 36 234 l 1,14,-1
 36 283 l 1,15,-1
 144 184 l 1,8,-1
EndSplineSet
EndChar
StartChar: onequarter
Encoding: 188 188 126
Width: 460
Flags: W
Fore
409 73 m 1,0,-1
 409 40 l 1,1,-1
 389 40 l 1,2,-1
 389 0 l 1,3,-1
 356 0 l 1,4,-1
 356 40 l 1,5,-1
 247 40 l 1,6,-1
 247 87 l 1,7,-1
 247 88 l 1,8,-1
 339 252 l 1,9,-1
 389 252 l 1,10,-1
 389 73 l 1,11,-1
 409 73 l 1,0,-1
356 216 m 1,12,13
 354 212 354 212 342 190.5 c 128,-1,14
 330 169 330 169 316.5 144.5 c 128,-1,15
 303 120 303 120 291.5 100 c 128,-1,16
 280 80 280 80 280 79 c 2,17,-1
 280 73 l 1,18,-1
 356 73 l 1,19,-1
 356 216 l 1,12,13
356 432 m 1,20,-1
 108 0 l 1,21,-1
 67 0 l 1,22,-1
 314 432 l 1,23,-1
 356 432 l 1,20,-1
73 381 m 1,24,-1
 54 362 l 1,25,-1
 31 386 l 1,26,-1
 77 432 l 1,27,-1
 106 432 l 1,28,-1
 106 179 l 1,29,-1
 73 179 l 1,30,-1
 73 381 l 1,24,-1
EndSplineSet
Ligature: 0 0 'frac' one fraction four
Ligature: 0 0 'frac' one slash four
EndChar
StartChar: onehalf
Encoding: 189 189 127
Width: 512
Flags: W
Fore
332 33 m 1,0,-1
 461 33 l 1,1,-1
 461 0 l 1,2,-1
 299 0 l 1,3,-1
 299 59 l 1,4,5
 335 92 335 92 363 118 c 0,6,7
 387 140 387 140 407 158.5 c 128,-1,8
 427 177 427 177 428 178 c 1,9,-1
 428 205 l 1,10,11
 426 206 426 206 420.5 211.5 c 128,-1,12
 415 217 415 217 414 219 c 1,13,-1
 351 219 l 1,14,15
 350 217 350 217 344 211.5 c 128,-1,16
 338 206 338 206 337 205 c 1,17,-1
 337 188 l 1,18,-1
 304 188 l 1,19,-1
 304 218 l 1,20,-1
 337 252 l 1,21,-1
 428 252 l 1,22,-1
 461 218 l 1,23,-1
 461 166 l 1,24,-1
 461 163 l 1,25,-1
 397 105 l 2,26,27
 373 83 373 83 353 64.5 c 128,-1,28
 333 46 333 46 332 45 c 1,29,-1
 332 33 l 1,0,-1
72 381 m 1,30,31
 70 379 70 379 66.5 376 c 128,-1,32
 63 373 63 373 60 370 c 2,33,-1
 53 363 l 1,34,-1
 30 386 l 1,35,-1
 76 432 l 1,36,-1
 105 432 l 1,37,-1
 105 180 l 1,38,-1
 72 180 l 1,39,-1
 72 381 l 1,30,31
355 432 m 1,40,-1
 108 0 l 1,41,-1
 66 0 l 1,42,-1
 314 432 l 1,43,-1
 355 432 l 1,40,-1
EndSplineSet
Ligature: 0 0 'frac' one fraction two
Ligature: 0 0 'frac' one slash two
EndChar
StartChar: threequarters
Encoding: 190 190 128
Width: 549
Flags: W
Fore
159 179 m 1,0,-1
 64 179 l 1,1,-1
 30 213 l 1,2,-1
 30 243 l 1,3,-1
 63 243 l 1,4,-1
 63 227 l 1,5,-1
 77 213 l 1,6,-1
 145 213 l 1,7,8
 149 216 149 216 152 219 c 0,9,10
 154 221 154 221 156 223.5 c 128,-1,11
 158 226 158 226 159 227 c 1,12,-1
 159 285 l 1,13,14
 158 286 158 286 152 291.5 c 128,-1,15
 146 297 146 297 145 299 c 1,16,-1
 80 299 l 1,17,-1
 80 332 l 1,18,-1
 145 332 l 1,19,-1
 159 346 l 1,20,-1
 159 384 l 1,21,22
 158 386 158 386 152.5 391.5 c 128,-1,23
 147 397 147 397 145 399 c 1,24,-1
 82 399 l 1,25,26
 81 397 81 397 75.5 391.5 c 128,-1,27
 70 386 70 386 68 384 c 1,28,-1
 68 369 l 1,29,-1
 35 369 l 1,30,-1
 35 398 l 1,31,-1
 69 432 l 1,32,-1
 159 432 l 1,33,-1
 192 398 l 1,34,-1
 192 333 l 1,35,-1
 185 326 l 2,36,37
 182 323 182 323 179.5 320 c 128,-1,38
 177 317 177 317 175 316 c 1,39,40
 177 314 177 314 179.5 311 c 128,-1,41
 182 308 182 308 185 305 c 2,42,-1
 192 298 l 1,43,-1
 192 213 l 1,44,-1
 159 179 l 1,0,-1
498 73 m 1,45,-1
 498 40 l 1,46,-1
 478 40 l 1,47,-1
 478 0 l 1,48,-1
 445 0 l 1,49,-1
 445 40 l 1,50,-1
 336 40 l 1,51,-1
 336 87 l 1,52,-1
 336 88 l 1,53,-1
 428 252 l 1,54,-1
 478 252 l 1,55,-1
 478 73 l 1,56,-1
 498 73 l 1,45,-1
445 216 m 1,57,58
 443 212 443 212 431 190.5 c 128,-1,59
 419 169 419 169 405.5 144.5 c 128,-1,60
 392 120 392 120 380.5 100 c 128,-1,61
 369 80 369 80 369 79 c 2,62,-1
 369 73 l 1,63,-1
 445 73 l 1,64,-1
 445 216 l 1,57,58
443 432 m 1,65,-1
 196 0 l 1,66,-1
 154 0 l 1,67,-1
 402 432 l 1,68,-1
 443 432 l 1,65,-1
EndSplineSet
Ligature: 0 0 'frac' three fraction four
Ligature: 0 0 'frac' three slash four
EndChar
StartChar: questiondown
Encoding: 191 191 129
Width: 352
Flags: W
Fore
176 260 m 1,0,-1
 157 260 l 1,1,-1
 144 274 l 1,2,-1
 144 292 l 1,3,-1
 157 305 l 1,4,-1
 176 305 l 1,5,-1
 189 292 l 1,6,-1
 189 274 l 1,7,-1
 176 260 l 1,0,-1
265 -36 m 1,8,-1
 301 -36 l 1,9,-1
 301 -72 l 1,10,-1
 247 -126 l 1,11,-1
 85 -126 l 1,12,-1
 32 -72 l 1,13,-1
 32 19 l 1,14,-1
 148 125 l 1,15,-1
 148 216 l 1,16,-1
 184 216 l 1,17,-1
 184 109 l 1,18,-1
 68 3 l 1,19,-1
 68 -57 l 1,20,-1
 100 -90 l 1,21,-1
 232 -90 l 1,22,-1
 265 -57 l 1,23,-1
 265 -36 l 1,8,-1
EndSplineSet
EndChar
StartChar: AE
Encoding: 198 198 135
Width: 604
Flags: W
Fore
352 396 m 1,0,-1
 319 363 l 1,1,-1
 319 234 l 1,2,-1
 535 234 l 1,3,-1
 535 198 l 1,4,-1
 319 198 l 1,5,-1
 319 69 l 1,6,-1
 352 36 l 1,7,-1
 553 36 l 1,8,-1
 553 0 l 1,9,-1
 337 0 l 1,10,-1
 283 54 l 1,11,-1
 283 126 l 1,12,-1
 67 126 l 1,13,-1
 67 0 l 1,14,-1
 31 0 l 1,15,-1
 31 234 l 1,16,-1
 265 432 l 1,17,-1
 319 432 l 1,18,-1
 319 414 l 1,19,-1
 337 432 l 1,20,-1
 553 432 l 1,21,-1
 553 396 l 1,22,-1
 352 396 l 1,0,-1
67 162 m 1,23,-1
 283 162 l 1,24,-1
 283 396 l 1,25,-1
 270 396 l 1,26,-1
 67 224 l 1,27,-1
 67 162 l 1,23,-1
EndSplineSet
EndChar
StartChar: Ccedilla
Encoding: 199 199 136
Width: 371
Flags: W
Fore
223 -66 m 1,0,-1
 223 -114 l 1,1,-1
 186 -151 l 1,2,-1
 132 -151 l 1,3,-1
 132 -120 l 1,4,-1
 173 -120 l 1,5,-1
 191 -101 l 1,6,-1
 191 -80 l 1,7,-1
 173 -61 l 1,8,-1
 132 -61 l 1,9,-1
 132 -43 l 1,10,-1
 167 0 l 1,11,-1
 87 0 l 1,12,-1
 33 54 l 1,13,-1
 33 377 l 1,14,-1
 87 431 l 1,15,-1
 267 431 l 1,16,-1
 321 377 l 1,17,-1
 321 341 l 1,18,-1
 285 341 l 1,19,-1
 285 363 l 1,20,-1
 252 395 l 1,21,-1
 102 395 l 1,22,-1
 69 362 l 1,23,-1
 69 68 l 1,24,-1
 102 36 l 1,25,-1
 252 36 l 1,26,-1
 285 69 l 1,27,-1
 285 90 l 1,28,-1
 321 90 l 1,29,-1
 321 54 l 1,30,-1
 267 0 l 1,31,-1
 195 0 l 1,32,-1
 178 -30 l 1,33,-1
 186 -30 l 1,34,-1
 223 -66 l 1,0,-1
EndSplineSet
EndChar
StartChar: Eth
Encoding: 208 208 145
Width: 407
Flags: W
Fore
302 431 m 1,0,-1
 356 377 l 1,1,-1
 356 54 l 1,2,-1
 302 0 l 1,3,-1
 68 0 l 1,4,-1
 68 198 l 1,5,-1
 32 198 l 1,6,-1
 32 234 l 1,7,-1
 68 234 l 1,8,-1
 68 431 l 1,9,-1
 302 431 l 1,0,-1
320 69 m 1,10,-1
 320 363 l 1,11,-1
 287 395 l 1,12,-1
 104 395 l 1,13,-1
 104 234 l 1,14,-1
 212 234 l 1,15,-1
 212 198 l 1,16,-1
 104 198 l 1,17,-1
 104 36 l 1,18,-1
 287 36 l 1,19,-1
 320 69 l 1,10,-1
EndSplineSet
EndChar
StartChar: multiply
Encoding: 215 215 152
Width: 356
Flags: W
Fore
168 236 m 1,0,1
 169 237 169 237 186.5 254.5 c 128,-1,2
 204 272 204 272 225 293 c 128,-1,3
 246 314 246 314 263.5 332 c 128,-1,4
 281 350 281 350 282 351 c 1,5,6
 283 350 283 350 286.5 346.5 c 128,-1,7
 293.5 339.5 l 128,-1,8
 297 336 297 336 300.5 333 c 128,-1,9
 304 330 304 330 305 329 c 1,10,-1
 190 214 l 1,11,-1
 246 158 l 2,12,13
 267 137 267 137 285 119 c 128,-1,14
 303 101 303 101 305 100 c 1,15,-1
 282 77 l 1,16,17
 280 79 280 79 262.5 97 c 128,-1,18
 245 115 245 115 224 136 c 2,19,-1
 168 192 l 1,20,-1
 112 136 l 2,21,22
 91 115 91 115 73 97 c 128,-1,23
 55 79 55 79 54 77 c 1,24,-1
 31 100 l 1,25,26
 36.5 105.5 l 130,-1,27
 42 111 42 111 50.5 119 c 128,-1,28
 59 127 59 127 69 137 c 128,-1,29
 79 147 79 147 90 158 c 2,30,-1
 146 214 l 1,31,-1
 31 329 l 1,32,33
 32 330 32 330 35.5 333 c 128,-1,34
 39 336 39 336 42.5 339.5 c 128,-1,35
 49.5 346.5 l 128,-1,36
 53 350 53 350 54 351 c 1,37,38
 55 349 55 349 73 331 c 128,-1,39
 91 313 91 313 112 292 c 2,40,-1
 168 236 l 1,41,-1
 168 236 l 1,0,1
EndSplineSet
EndChar
StartChar: Oslash
Encoding: 216 216 153
Width: 388
Flags: W
Fore
338 431 m 1,0,-1
 317 398 l 1,1,-1
 338 378 l 1,2,-1
 338 54 l 1,3,-1
 284 0 l 1,4,-1
 86 0 l 1,5,-1
 78 7 l 1,6,-1
 63 -19 l 1,7,-1
 32 0 l 1,8,-1
 52 33 l 1,9,-1
 32 54 l 1,10,-1
 32 377 l 1,11,-1
 86 431 l 1,12,-1
 284 431 l 1,13,-1
 291 424 l 1,14,-1
 307 450 l 1,15,-1
 338 431 l 1,0,-1
68 68 m 1,16,-1
 72 65 l 1,17,-1
 272 392 l 1,18,-1
 269 395 l 1,19,-1
 101 395 l 1,20,-1
 68 362 l 1,21,-1
 68 68 l 1,16,-1
302 363 m 1,22,-1
 298 366 l 1,23,-1
 98 39 l 1,24,-1
 101 36 l 1,25,-1
 269 36 l 1,26,-1
 302 69 l 1,27,-1
 302 363 l 1,22,-1
EndSplineSet
EndChar
StartChar: Thorn
Encoding: 222 222 159
Width: 354
Flags: W
Fore
249 332 m 1,0,-1
 303 279 l 1,1,-1
 303 153 l 1,2,-1
 249 99 l 1,3,-1
 69 99 l 1,4,-1
 69 0 l 1,5,-1
 33 0 l 1,6,-1
 33 431 l 1,7,-1
 69 431 l 1,8,-1
 69 332 l 1,9,-1
 249 332 l 1,0,-1
267 168 m 1,10,-1
 267 264 l 1,11,-1
 234 296 l 1,12,-1
 69 296 l 1,13,-1
 69 135 l 1,14,-1
 234 135 l 1,15,-1
 267 168 l 1,10,-1
EndSplineSet
EndChar
StartChar: uni00DF
Encoding: 223 223 160
Width: 335
Flags: W
Fore
209 213 m 1,0,-1
 284 138 l 1,1,-1
 284 54 l 1,2,-1
 230 0 l 1,3,-1
 104 0 l 1,4,-1
 104 36 l 1,5,-1
 215 36 l 1,6,-1
 248 69 l 1,7,-1
 248 123 l 1,8,-1
 158 213 l 1,9,-1
 230 284 l 1,10,-1
 230 362 l 1,11,-1
 197 395 l 1,12,-1
 101 395 l 1,13,-1
 68 363 l 1,14,-1
 68 -126 l 1,15,-1
 32 -126 l 1,16,-1
 32 377 l 1,17,-1
 86 431 l 1,18,-1
 212 431 l 1,19,-1
 266 377 l 1,20,-1
 266 270 l 1,21,-1
 209 213 l 1,0,-1
EndSplineSet
EndChar
StartChar: ae
Encoding: 230 230 167
Width: 623
Flags: W
Fore
571 135 m 1,0,-1
 320 135 l 1,1,-1
 320 69 l 1,2,-1
 352 36 l 1,3,-1
 500 36 l 1,4,-1
 500 0 l 1,5,-1
 338 0 l 1,6,-1
 284 54 l 1,7,-1
 284 73 l 1,8,-1
 212 0 l 1,9,-1
 86 0 l 1,10,-1
 32 54 l 1,11,-1
 32 135 l 1,12,-1
 86 189 l 1,13,-1
 284 189 l 1,14,-1
 284 237 l 1,15,-1
 251 270 l 1,16,-1
 101 270 l 1,17,-1
 68 237 l 1,18,-1
 68 216 l 1,19,-1
 32 216 l 1,20,-1
 32 252 l 1,21,-1
 86 306 l 1,22,-1
 266 306 l 1,23,-1
 302 270 l 1,24,-1
 338 306 l 1,25,-1
 518 306 l 1,26,-1
 571 252 l 1,27,-1
 571 135 l 1,0,-1
353 270 m 1,28,-1
 320 237 l 1,29,-1
 320 171 l 1,30,-1
 535 171 l 1,31,-1
 535 237 l 1,32,-1
 503 270 l 1,33,-1
 353 270 l 1,28,-1
68 69 m 1,34,-1
 101 36 l 1,35,-1
 203 36 l 1,36,-1
 284 117 l 1,37,-1
 284 153 l 1,38,-1
 101 153 l 1,39,-1
 68 120 l 1,40,-1
 68 69 l 1,34,-1
EndSplineSet
EndChar
StartChar: ccedilla
Encoding: 231 231 168
Width: 373
Flags: W
Fore
222 -65 m 1,0,-1
 222 -113 l 1,1,-1
 185 -150 l 1,2,-1
 131 -150 l 1,3,-1
 131 -119 l 1,4,-1
 172 -119 l 1,5,-1
 190 -100 l 1,6,-1
 190 -79 l 1,7,-1
 172 -60 l 1,8,-1
 131 -60 l 1,9,-1
 131 -42 l 1,10,-1
 165 0 l 1,11,-1
 87 0 l 1,12,-1
 33 54 l 1,13,-1
 33 252 l 1,14,-1
 87 306 l 1,15,-1
 267 306 l 1,16,-1
 321 252 l 1,17,-1
 321 216 l 1,18,-1
 285 216 l 1,19,-1
 285 237 l 1,20,-1
 252 270 l 1,21,-1
 102 270 l 1,22,-1
 69 237 l 1,23,-1
 69 69 l 1,24,-1
 102 36 l 1,25,-1
 252 36 l 1,26,-1
 285 69 l 1,27,-1
 285 90 l 1,28,-1
 321 90 l 1,29,-1
 321 54 l 1,30,-1
 267 0 l 1,31,-1
 193 0 l 1,32,-1
 177 -29 l 1,33,-1
 185 -29 l 1,34,-1
 222 -65 l 1,0,-1
EndSplineSet
EndChar
StartChar: eth
Encoding: 240 240 177
Width: 372
Flags: W
Fore
385 390 m 1,0,-1
 321 353 l 1,1,-1
 321 54 l 1,2,-1
 267 0 l 1,3,-1
 87 0 l 1,4,-1
 33 54 l 1,5,-1
 33 252 l 1,6,-1
 87 306 l 1,7,-1
 213 306 l 1,8,-1
 285 234 l 1,9,-1
 285 333 l 1,10,-1
 238 305 l 1,11,-1
 222 332 l 1,12,-1
 285 369 l 1,13,-1
 285 432 l 1,14,-1
 321 432 l 1,15,-1
 321 390 l 1,16,-1
 369 417 l 1,17,-1
 385 390 l 1,0,-1
285 69 m 1,18,-1
 285 189 l 1,19,-1
 205 270 l 1,20,-1
 102 270 l 1,21,-1
 69 237 l 1,22,-1
 69 69 l 1,23,-1
 102 36 l 1,24,-1
 252 36 l 1,25,-1
 285 69 l 1,18,-1
EndSplineSet
EndChar
StartChar: divide
Encoding: 247 247 184
Width: 405
Flags: W
Fore
30 232 m 1,0,-1
 354 232 l 1,1,-1
 354 196 l 1,2,-1
 30 196 l 1,3,-1
 30 232 l 1,0,-1
204 268 m 1,4,-1
 181 268 l 1,5,-1
 165 284 l 1,6,-1
 165 306 l 1,7,-1
 181 322 l 1,8,-1
 204 322 l 1,9,-1
 219 306 l 1,10,-1
 219 284 l 1,11,-1
 204 268 l 1,4,-1
181 160 m 1,12,-1
 204 160 l 1,13,-1
 219 144 l 1,14,-1
 219 122 l 1,15,-1
 204 106 l 1,16,-1
 181 106 l 1,17,-1
 165 122 l 1,18,-1
 165 144 l 1,19,-1
 181 160 l 1,12,-1
EndSplineSet
EndChar
StartChar: oslash
Encoding: 248 248 185
Width: 371
Flags: W
Fore
320 252 m 1,0,-1
 320 54 l 1,1,-1
 266 0 l 1,2,-1
 86 0 l 1,3,-1
 80 7 l 1,4,-1
 60 -18 l 1,5,-1
 32 5 l 1,6,-1
 54 33 l 1,7,-1
 32 54 l 1,8,-1
 32 252 l 1,9,-1
 86 306 l 1,10,-1
 266 306 l 1,11,-1
 272 301 l 1,12,-1
 291 325 l 1,13,-1
 319 302 l 1,14,-1
 297 275 l 1,15,-1
 320 252 l 1,0,-1
68 69 m 1,16,-1
 77 61 l 1,17,-1
 247 270 l 1,18,-1
 101 270 l 1,19,-1
 68 237 l 1,20,-1
 68 69 l 1,16,-1
251 36 m 1,21,-1
 284 69 l 1,22,-1
 284 237 l 1,23,-1
 274 247 l 1,24,-1
 103 36 l 1,25,-1
 251 36 l 1,21,-1
EndSplineSet
EndChar
StartChar: thorn
Encoding: 254 254 191
Width: 372
Flags: W
Fore
320 252 m 1,0,-1
 320 54 l 1,1,-1
 266 0 l 1,2,-1
 87 0 l 1,3,-1
 69 18 l 1,4,-1
 69 -108 l 1,5,-1
 33 -108 l 1,6,-1
 33 414 l 1,7,-1
 69 414 l 1,8,-1
 69 288 l 1,9,-1
 87 306 l 1,10,-1
 267 306 l 1,11,-1
 320 252 l 1,0,-1
252 36 m 1,12,-1
 284 69 l 1,13,-1
 284 237 l 1,14,-1
 252 270 l 1,15,-1
 102 270 l 1,16,-1
 69 237 l 1,17,-1
 69 69 l 1,18,-1
 101 36 l 1,19,-1
 252 36 l 1,12,-1
EndSplineSet
EndChar
StartChar: Lslash
Encoding: 321 321 193
Width: 339
Flags: W
Fore
72 36 m 1,0,-1
 288 36 l 1,1,-1
 288 0 l 1,2,-1
 36 0 l 1,3,-1
 36 164 l 1,4,-1
 0 128 l 1,5,-1
 0 179 l 1,6,-1
 36 215 l 1,7,-1
 36 432 l 1,8,-1
 72 432 l 1,9,-1
 72 250 l 1,10,-1
 126 304 l 1,11,-1
 126 254 l 1,12,-1
 72 200 l 1,13,-1
 72 36 l 1,0,-1
EndSplineSet
EndChar
StartChar: lslash
Encoding: 322 322 194
Width: 160
Flags: W
Fore
108 294 m 1,0,-1
 108 244 l 1,1,-1
 72 208 l 1,2,-1
 72 0 l 1,3,-1
 36 0 l 1,4,-1
 36 172 l 1,5,-1
 0 136 l 1,6,-1
 0 186 l 1,7,-1
 36 222 l 1,8,-1
 36 432 l 1,9,-1
 72 432 l 1,10,-1
 72 258 l 1,11,-1
 108 294 l 1,0,-1
EndSplineSet
EndChar
StartChar: OE
Encoding: 338 338 195
Width: 605
Flags: W
Fore
353 396 m 1,0,-1
 320 363 l 1,1,-1
 320 234 l 1,2,-1
 536 234 l 1,3,-1
 536 198 l 1,4,-1
 320 198 l 1,5,-1
 320 69 l 1,6,-1
 353 36 l 1,7,-1
 554 36 l 1,8,-1
 554 0 l 1,9,-1
 86 0 l 1,10,-1
 32 54 l 1,11,-1
 32 378 l 1,12,-1
 86 432 l 1,13,-1
 554 432 l 1,14,-1
 554 396 l 1,15,-1
 353 396 l 1,0,-1
68 69 m 1,16,-1
 101 36 l 1,17,-1
 302 36 l 1,18,-1
 284 54 l 1,19,-1
 284 378 l 1,20,-1
 302 396 l 1,21,-1
 101 396 l 1,22,-1
 68 363 l 1,23,-1
 68 69 l 1,16,-1
EndSplineSet
EndChar
StartChar: oe
Encoding: 339 339 196
Width: 622
Flags: W
Fore
572 252 m 1,0,-1
 572 135 l 1,1,-1
 320 135 l 1,2,-1
 320 69 l 1,3,-1
 353 36 l 1,4,-1
 500 36 l 1,5,-1
 500 0 l 1,6,-1
 338 0 l 1,7,-1
 302 36 l 1,8,-1
 266 0 l 1,9,-1
 86 0 l 1,10,-1
 32 54 l 1,11,-1
 32 252 l 1,12,-1
 86 306 l 1,13,-1
 266 306 l 1,14,-1
 302 270 l 1,15,-1
 338 306 l 1,16,-1
 518 306 l 1,17,-1
 572 252 l 1,0,-1
251 36 m 1,18,-1
 284 69 l 1,19,-1
 284 237 l 1,20,-1
 251 270 l 1,21,-1
 101 270 l 1,22,-1
 68 237 l 1,23,-1
 68 69 l 1,24,-1
 101 36 l 1,25,-1
 251 36 l 1,18,-1
320 237 m 1,26,-1
 320 171 l 1,27,-1
 536 171 l 1,28,-1
 536 237 l 1,29,-1
 503 270 l 1,30,-1
 353 270 l 1,31,-1
 320 237 l 1,26,-1
EndSplineSet
EndChar
StartChar: florin
Encoding: 402 402 202
Width: 372
Flags: W
Fore
267 396 m 1,0,-1
 228 363 l 1,1,-1
 208 270 l 1,2,-1
 280 270 l 1,3,-1
 272 234 l 1,4,-1
 200 234 l 1,5,-1
 162 54 l 1,6,-1
 96 0 l 1,7,-1
 34 0 l 1,8,-1
 34 36 l 1,9,-1
 89 36 l 1,10,-1
 129 69 l 1,11,-1
 164 234 l 1,12,-1
 92 234 l 1,13,-1
 100 270 l 1,14,-1
 172 270 l 1,15,-1
 195 378 l 1,16,-1
 260 432 l 1,17,-1
 322 432 l 1,18,-1
 322 396 l 1,19,-1
 267 396 l 1,0,-1
EndSplineSet
EndChar
StartChar: circumflex
Encoding: 710 710 203
Width: 259
Flags: W
Fore
30 468 m 1,0,-1
 108 545 l 1,1,-1
 131 545 l 1,2,-1
 208 468 l 1,3,-1
 196 455 l 1,4,-1
 119 506 l 1,5,-1
 43 455 l 1,6,-1
 30 468 l 1,7,-1
 30 468 l 1,0,-1
EndSplineSet
EndChar
StartChar: caron
Encoding: 711 711 204
Width: 259
Flags: W
Fore
209 532 m 1,0,-1
 132 455 l 1,1,-1
 108 455 l 1,2,-1
 31 532 l 1,3,-1
 43 545 l 1,4,-1
 120 494 l 1,5,-1
 196 545 l 1,6,-1
 209 532 l 1,7,-1
 209 532 l 1,0,-1
EndSplineSet
EndChar
StartChar: breve
Encoding: 728 728 205
Width: 262
Flags: W
Fore
193 545 m 1,0,-1
 211 536 l 1,1,-1
 164 455 l 1,2,-1
 78 455 l 1,3,-1
 31 536 l 1,4,-1
 49 545 l 1,5,-1
 96 491 l 1,6,-1
 146 491 l 1,7,-1
 193 545 l 1,8,-1
 193 545 l 1,0,-1
EndSplineSet
EndChar
StartChar: dotaccent
Encoding: 729 729 206
Width: 147
Flags: W
Fore
96 501 m 1,0,-1
 96 474 l 1,1,-1
 77 455 l 1,2,-1
 50 455 l 1,3,-1
 31 474 l 1,4,-1
 31 501 l 1,5,-1
 50 520 l 1,6,-1
 77 520 l 1,7,-1
 96 501 l 1,8,-1
 96 501 l 1,0,-1
EndSplineSet
EndChar
StartChar: ring
Encoding: 730 730 207
Width: 190
Flags: W
Fore
63 563 m 1,0,-1
 108 563 l 1,1,-1
 139 532 l 1,2,-1
 139 531 l 1,3,-1
 139 531 l 1,4,-1
 139 531 l 1,5,-1
 139 487 l 1,6,-1
 108 455 l 1,7,-1
 63 455 l 1,8,-1
 31 487 l 1,9,-1
 31 532 l 1,10,-1
 63 563 l 1,0,-1
95 532 m 1,11,-1
 76 532 l 1,12,-1
 63 518 l 1,13,-1
 63 500 l 1,14,-1
 76 487 l 1,15,-1
 95 487 l 1,16,-1
 108 500 l 1,17,-1
 108 518 l 1,18,-1
 95 532 l 1,11,-1
EndSplineSet
EndChar
StartChar: tilde
Encoding: 732 732 209
Width: 241
Flags: W
Fore
168 437 m 1,0,-1
 190 415 l 1,1,-1
 140 365 l 1,2,3
 125 374 125 374 113 381 c 0,4,5
 102 387 102 387 93.5 392 c 128,-1,6
 85 397 85 397 84 398 c 1,7,-1
 51 365 l 1,8,-1
 29 387 l 1,9,-1
 79 437 l 1,10,11
 94 428 94 428 106 421 c 0,12,13
 117 415 117 415 125 410 c 128,-1,14
 133 405 133 405 135 404 c 1,15,-1
 168 437 l 1,0,-1
EndSplineSet
EndChar
StartChar: uni0E01
Encoding: 3585 3585 212
Width: 390
Flags: W
Fore
285 396 m 1,0,-1
 339 342 l 1,1,-1
 339 0 l 1,2,-1
 303 0 l 1,3,-1
 303 327 l 1,4,-1
 270 360 l 1,5,-1
 102 360 l 1,6,-1
 84 342 l 1,7,-1
 141 285 l 1,8,-1
 87 231 l 1,9,-1
 87 0 l 1,10,-1
 51 0 l 1,11,-1
 51 246 l 1,12,-1
 90 285 l 1,13,-1
 33 342 l 1,14,-1
 87 396 l 1,15,-1
 285 396 l 1,0,-1
EndSplineSet
EndChar
StartChar: uni0E02
Encoding: 3586 3586 213
Width: 375
Flags: W
Fore
288 396 m 1,0,-1
 324 396 l 1,1,-1
 324 54 l 1,2,-1
 270 0 l 1,3,-1
 234 0 l 1,4,-1
 180 54 l 1,5,-1
 180 327 l 1,6,-1
 147 360 l 1,7,-1
 87 360 l 1,8,-1
 69 342 l 1,9,-1
 107 342 l 1,10,-1
 144 305 l 1,11,-1
 144 253 l 1,12,-1
 107 216 l 1,13,-1
 55 216 l 1,14,-1
 18 253 l 1,15,-1
 18 342 l 1,16,-1
 72 396 l 1,17,-1
 162 396 l 1,18,-1
 216 342 l 1,19,-1
 216 69 l 1,20,-1
 249 36 l 1,21,-1
 255 36 l 1,22,-1
 288 69 l 1,23,-1
 288 396 l 1,0,-1
112 292 m 1,24,-1
 94 310 l 1,25,-1
 68 310 l 1,26,-1
 49 292 l 1,27,-1
 49 266 l 1,28,-1
 68 247 l 1,29,-1
 94 247 l 1,30,-1
 112 266 l 1,31,-1
 112 292 l 1,24,-1
EndSplineSet
EndChar
StartChar: uni0E03
Encoding: 3587 3587 214
Width: 376
Flags: W
Fore
289 396 m 1,0,-1
 325 396 l 1,1,-1
 325 54 l 1,2,-1
 271 0 l 1,3,-1
 235 0 l 1,4,-1
 181 54 l 1,5,-1
 181 288 l 1,6,-1
 226 333 l 1,7,-1
 226 352 l 1,8,-1
 218 360 l 1,9,-1
 199 360 l 1,10,-1
 163 324 l 1,11,-1
 127 360 l 1,12,-1
 88 360 l 1,13,-1
 70 342 l 1,14,-1
 108 342 l 1,15,-1
 145 305 l 1,16,-1
 145 253 l 1,17,-1
 108 216 l 1,18,-1
 56 216 l 1,19,-1
 19 253 l 1,20,-1
 19 342 l 1,21,-1
 73 396 l 1,22,-1
 136 396 l 1,23,-1
 163 368 l 1,24,-1
 190 396 l 1,25,-1
 226 396 l 1,26,-1
 262 361 l 1,27,-1
 262 324 l 1,28,-1
 217 279 l 1,29,-1
 217 69 l 1,30,-1
 250 36 l 1,31,-1
 256 36 l 1,32,-1
 289 69 l 1,33,-1
 289 396 l 1,0,-1
95 310 m 1,34,-1
 69 310 l 1,35,-1
 51 292 l 1,36,-1
 51 266 l 1,37,-1
 69 247 l 1,38,-1
 95 247 l 1,39,-1
 113 266 l 1,40,-1
 113 292 l 1,41,-1
 95 310 l 1,34,-1
EndSplineSet
EndChar
StartChar: uni0E04
Encoding: 3588 3588 215
Width: 400
Flags: W
Fore
295 396 m 1,0,-1
 349 342 l 1,1,-1
 349 0 l 1,2,-1
 313 0 l 1,3,-1
 313 327 l 1,4,-1
 280 360 l 1,5,-1
 112 360 l 1,6,-1
 79 327 l 1,7,-1
 79 179 l 1,8,-1
 170 270 l 1,9,-1
 222 270 l 1,10,-1
 259 233 l 1,11,-1
 259 181 l 1,12,-1
 222 144 l 1,13,-1
 170 144 l 1,14,-1
 133 181 l 1,15,-1
 133 189 l 1,16,-1
 79 135 l 1,17,-1
 79 0 l 1,18,-1
 43 0 l 1,19,-1
 43 342 l 1,20,-1
 97 396 l 1,21,-1
 295 396 l 1,0,-1
227 220 m 1,22,-1
 209 238 l 1,23,-1
 183 238 l 1,24,-1
 164 220 l 1,25,-1
 164 194 l 1,26,-1
 183 176 l 1,27,-1
 209 176 l 1,28,-1
 227 194 l 1,29,-1
 227 220 l 1,22,-1
EndSplineSet
EndChar
StartChar: uni0E05
Encoding: 3589 3589 216
Width: 399
Flags: W
Fore
295 395 m 1,0,-1
 349 341 l 1,1,-1
 349 0 l 1,2,-1
 313 0 l 1,3,-1
 313 326 l 1,4,-1
 280 359 l 1,5,-1
 250 359 l 1,6,-1
 196 305 l 1,7,-1
 142 359 l 1,8,-1
 112 359 l 1,9,-1
 79 326 l 1,10,-1
 79 178 l 1,11,-1
 170 269 l 1,12,-1
 222 269 l 1,13,-1
 259 232 l 1,14,-1
 259 180 l 1,15,-1
 222 143 l 1,16,-1
 170 143 l 1,17,-1
 133 180 l 1,18,-1
 133 188 l 1,19,-1
 79 134 l 1,20,-1
 79 0 l 1,21,-1
 43 0 l 1,22,-1
 43 341 l 1,23,-1
 97 395 l 1,24,-1
 157 395 l 1,25,-1
 196 356 l 1,26,-1
 236 395 l 1,27,-1
 295 395 l 1,0,-1
227 219 m 1,28,-1
 209 238 l 1,29,-1
 183 238 l 1,30,-1
 164 219 l 1,31,-1
 164 193 l 1,32,-1
 183 175 l 1,33,-1
 209 175 l 1,34,-1
 227 193 l 1,35,-1
 227 219 l 1,28,-1
EndSplineSet
EndChar
StartChar: uni0E06
Encoding: 3590 3590 217
Width: 448
Flags: W
Fore
361 395 m 1,0,-1
 397 395 l 1,1,-1
 397 0 l 1,2,-1
 361 0 l 1,3,-1
 235 70 l 1,4,-1
 235 37 l 1,5,-1
 198 0 l 1,6,-1
 146 0 l 1,7,-1
 109 37 l 1,8,-1
 109 89 l 1,9,-1
 146 126 l 1,10,-1
 181 126 l 1,11,-1
 181 288 l 1,12,-1
 226 333 l 1,13,-1
 226 352 l 1,14,-1
 218 360 l 1,15,-1
 204 360 l 1,16,-1
 168 324 l 1,17,-1
 132 360 l 1,18,-1
 88 360 l 1,19,-1
 70 342 l 1,20,-1
 108 342 l 1,21,-1
 145 305 l 1,22,-1
 145 253 l 1,23,-1
 108 216 l 1,24,-1
 56 216 l 1,25,-1
 19 253 l 1,26,-1
 19 342 l 1,27,-1
 73 396 l 1,28,-1
 141 396 l 1,29,-1
 168 369 l 1,30,-1
 195 396 l 1,31,-1
 226 396 l 1,32,-1
 262 361 l 1,33,-1
 262 324 l 1,34,-1
 217 279 l 1,35,-1
 217 116 l 1,36,-1
 361 36 l 1,37,-1
 361 395 l 1,0,-1
95 311 m 1,38,-1
 69 311 l 1,39,-1
 51 292 l 1,40,-1
 51 266 l 1,41,-1
 69 248 l 1,42,-1
 95 248 l 1,43,-1
 114 266 l 1,44,-1
 114 292 l 1,45,-1
 95 311 l 1,38,-1
204 50 m 1,46,-1
 204 76 l 1,47,-1
 185 94 l 1,48,-1
 159 94 l 1,49,-1
 141 76 l 1,50,-1
 141 50 l 1,51,-1
 159 31 l 1,52,-1
 185 31 l 1,53,-1
 204 50 l 1,46,-1
EndSplineSet
EndChar
StartChar: uni0E07
Encoding: 3591 3591 218
Width: 320
Flags: W
Fore
232 396 m 1,0,-1
 269 359 l 1,1,-1
 269 0 l 1,2,-1
 233 0 l 1,3,-1
 36 265 l 1,4,-1
 64 286 l 1,5,-1
 233 60 l 1,6,-1
 233 271 l 1,7,-1
 232 270 l 1,8,-1
 180 270 l 1,9,-1
 143 307 l 1,10,-1
 143 359 l 1,11,-1
 180 396 l 1,12,-1
 232 396 l 1,0,-1
219 302 m 1,13,-1
 238 320 l 1,14,-1
 238 346 l 1,15,-1
 219 365 l 1,16,-1
 193 365 l 1,17,-1
 175 346 l 1,18,-1
 175 320 l 1,19,-1
 193 302 l 1,20,-1
 219 302 l 1,13,-1
EndSplineSet
EndChar
StartChar: uni0E08
Encoding: 3592 3592 219
Width: 389
Flags: W
Fore
284 396 m 1,0,-1
 338 342 l 1,1,-1
 338 0 l 1,2,-1
 302 0 l 1,3,-1
 302 135 l 1,4,-1
 248 189 l 1,5,-1
 248 181 l 1,6,-1
 211 144 l 1,7,-1
 159 144 l 1,8,-1
 122 181 l 1,9,-1
 122 233 l 1,10,-1
 159 270 l 1,11,-1
 211 270 l 1,12,-1
 302 179 l 1,13,-1
 302 327 l 1,14,-1
 269 360 l 1,15,-1
 101 360 l 1,16,-1
 68 327 l 1,17,-1
 68 306 l 1,18,-1
 32 306 l 1,19,-1
 32 342 l 1,20,-1
 86 396 l 1,21,-1
 284 396 l 1,0,-1
216 194 m 1,22,-1
 216 220 l 1,23,-1
 198 239 l 1,24,-1
 172 239 l 1,25,-1
 154 220 l 1,26,-1
 154 194 l 1,27,-1
 172 176 l 1,28,-1
 198 176 l 1,29,-1
 216 194 l 1,22,-1
EndSplineSet
EndChar
StartChar: uni0E09
Encoding: 3593 3593 220
Width: 429
Flags: W
Fore
356 126 m 1,0,-1
 393 89 l 1,1,-1
 393 37 l 1,2,-1
 356 0 l 1,3,-1
 304 0 l 1,4,-1
 267 37 l 1,5,-1
 267 62 l 1,6,-1
 177 0 l 1,7,-1
 141 0 l 1,8,-1
 141 145 l 1,9,-1
 140 144 l 1,10,-1
 88 144 l 1,11,-1
 51 181 l 1,12,-1
 51 233 l 1,13,-1
 88 270 l 1,14,-1
 140 270 l 1,15,-1
 177 233 l 1,16,-1
 177 38 l 1,17,-1
 303 125 l 1,18,-1
 303 327 l 1,19,-1
 270 360 l 1,20,-1
 102 360 l 1,21,-1
 69 327 l 1,22,-1
 69 306 l 1,23,-1
 33 306 l 1,24,-1
 33 342 l 1,25,-1
 87 396 l 1,26,-1
 285 396 l 1,27,-1
 339 342 l 1,28,-1
 339 126 l 1,29,-1
 356 126 l 1,0,-1
127 175 m 1,30,-1
 146 194 l 1,31,-1
 146 220 l 1,32,-1
 127 238 l 1,33,-1
 101 238 l 1,34,-1
 83 220 l 1,35,-1
 83 194 l 1,36,-1
 101 175 l 1,37,-1
 127 175 l 1,30,-1
362 50 m 1,38,-1
 362 76 l 1,39,-1
 343 94 l 1,40,-1
 317 94 l 1,41,-1
 299 76 l 1,42,-1
 299 50 l 1,43,-1
 317 31 l 1,44,-1
 343 31 l 1,45,-1
 362 50 l 1,38,-1
EndSplineSet
EndChar
StartChar: uni0E0A
Encoding: 3594 3594 221
Width: 376
Flags: W
Fore
304 341 m 1,0,-1
 325 319 l 1,1,-1
 325 54 l 1,2,-1
 271 0 l 1,3,-1
 235 0 l 1,4,-1
 181 53 l 1,5,-1
 181 327 l 1,6,-1
 149 359 l 1,7,-1
 88 359 l 1,8,-1
 70 341 l 1,9,-1
 109 341 l 1,10,-1
 145 304 l 1,11,-1
 145 252 l 1,12,-1
 109 215 l 1,13,-1
 56 215 l 1,14,-1
 19 252 l 1,15,-1
 19 341 l 1,16,-1
 73 395 l 1,17,-1
 163 395 l 1,18,-1
 217 341 l 1,19,-1
 217 68 l 1,20,-1
 250 36 l 1,21,-1
 256 36 l 1,22,-1
 289 69 l 1,23,-1
 290 305 l 1,24,-1
 253 341 l 1,25,-1
 362 449 l 1,26,-1
 387 424 l 1,27,-1
 304 341 l 1,0,-1
114 291 m 1,28,-1
 95 310 l 1,29,-1
 69 310 l 1,30,-1
 51 291 l 1,31,-1
 51 265 l 1,32,-1
 69 247 l 1,33,-1
 95 247 l 1,34,-1
 114 265 l 1,35,-1
 114 291 l 1,28,-1
EndSplineSet
EndChar
StartChar: uni0E0B
Encoding: 3595 3595 222
Width: 375
Flags: W
Fore
386 424 m 1,0,-1
 303 341 l 1,1,-1
 325 319 l 1,2,-1
 324 54 l 1,3,-1
 270 0 l 1,4,-1
 234 0 l 1,5,-1
 180 53 l 1,6,-1
 180 287 l 1,7,-1
 225 332 l 1,8,-1
 225 352 l 1,9,-1
 218 359 l 1,10,-1
 203 359 l 1,11,-1
 167 323 l 1,12,-1
 131 359 l 1,13,-1
 87 359 l 1,14,-1
 70 341 l 1,15,-1
 108 341 l 1,16,-1
 144 304 l 1,17,-1
 144 252 l 1,18,-1
 108 215 l 1,19,-1
 55 215 l 1,20,-1
 19 252 l 1,21,-1
 19 341 l 1,22,-1
 73 395 l 1,23,-1
 140 395 l 1,24,-1
 167 368 l 1,25,-1
 195 395 l 1,26,-1
 225 395 l 1,27,-1
 261 360 l 1,28,-1
 261 350 l 1,29,-1
 361 449 l 1,30,-1
 386 424 l 1,0,-1
95 310 m 1,31,-1
 68 310 l 1,32,-1
 50 291 l 1,33,-1
 50 265 l 1,34,-1
 69 247 l 1,35,-1
 95 247 l 1,36,-1
 113 265 l 1,37,-1
 113 291 l 1,38,-1
 95 310 l 1,31,-1
288 69 m 1,39,-1
 289 305 l 1,40,-1
 261 332 l 1,41,-1
 261 324 l 1,42,-1
 216 279 l 1,43,-1
 216 68 l 1,44,-1
 249 36 l 1,45,-1
 255 36 l 1,46,-1
 288 69 l 1,39,-1
EndSplineSet
EndChar
StartChar: uni0E0C
Encoding: 3596 3596 223
Width: 568
Flags: W
Fore
481 395 m 1,0,-1
 517 395 l 1,1,-1
 517 0 l 1,2,-1
 481 0 l 1,3,-1
 355 69 l 1,4,-1
 355 36 l 1,5,-1
 319 0 l 1,6,-1
 266 0 l 1,7,-1
 229 36 l 1,8,-1
 229 89 l 1,9,-1
 266 125 l 1,10,-1
 301 125 l 1,11,-1
 301 327 l 1,12,-1
 269 359 l 1,13,-1
 101 359 l 1,14,-1
 82 341 l 1,15,-1
 140 284 l 1,16,-1
 86 230 l 1,17,-1
 86 125 l 1,18,-1
 87 125 l 1,19,-1
 139 125 l 1,20,-1
 176 89 l 1,21,-1
 176 36 l 1,22,-1
 139 0 l 1,23,-1
 86 0 l 1,24,-1
 50 36 l 1,25,-1
 50 245 l 1,26,-1
 89 284 l 1,27,-1
 32 341 l 1,28,-1
 86 395 l 1,29,-1
 284 395 l 1,30,-1
 337 341 l 1,31,-1
 337 115 l 1,32,-1
 481 36 l 1,33,-1
 481 395 l 1,0,-1
100 94 m 1,34,-1
 81 76 l 1,35,-1
 81 49 l 1,36,-1
 100 31 l 1,37,-1
 126 31 l 1,38,-1
 144 49 l 1,39,-1
 144 76 l 1,40,-1
 126 94 l 1,41,-1
 100 94 l 1,34,-1
324 49 m 1,42,-1
 324 76 l 1,43,-1
 305 94 l 1,44,-1
 279 94 l 1,45,-1
 261 76 l 1,46,-1
 261 49 l 1,47,-1
 279 31 l 1,48,-1
 305 31 l 1,49,-1
 324 49 l 1,42,-1
EndSplineSet
EndChar
StartChar: uni0E0D
Encoding: 3597 3597 224
Width: 569
Flags: W
Fore
438 -125 m 1,0,-1
 492 -71 l 1,1,-1
 518 -97 l 1,2,-1
 453 -161 l 1,3,-1
 333 -161 l 1,4,-1
 302 -129 l 1,5,-1
 302 -85 l 1,6,-1
 334 -53 l 1,7,-1
 378 -53 l 1,8,-1
 410 -85 l 1,9,-1
 410 -125 l 1,10,-1
 438 -125 l 1,0,-1
365 -130 m 1,11,-1
 378 -117 l 1,12,-1
 378 -98 l 1,13,-1
 365 -85 l 1,14,-1
 346 -85 l 1,15,-1
 333 -98 l 1,16,-1
 333 -116 l 1,17,-1
 347 -130 l 1,18,-1
 365 -130 l 1,11,-1
482 396 m 1,19,-1
 518 396 l 1,20,-1
 518 54 l 1,21,-1
 464 0 l 1,22,-1
 302 0 l 1,23,-1
 302 327 l 1,24,-1
 269 360 l 1,25,-1
 101 360 l 1,26,-1
 83 342 l 1,27,-1
 140 284 l 1,28,-1
 86 230 l 1,29,-1
 86 125 l 1,30,-1
 87 126 l 1,31,-1
 139 126 l 1,32,-1
 176 89 l 1,33,-1
 176 37 l 1,34,-1
 139 0 l 1,35,-1
 87 0 l 1,36,-1
 50 37 l 1,37,-1
 50 245 l 1,38,-1
 89 284 l 1,39,-1
 32 341 l 1,40,-1
 32 342 l 1,41,-1
 86 396 l 1,42,-1
 284 396 l 1,43,-1
 338 342 l 1,44,-1
 338 36 l 1,45,-1
 449 36 l 1,46,-1
 482 69 l 1,47,-1
 482 396 l 1,19,-1
100 94 m 1,48,-1
 82 76 l 1,49,-1
 82 50 l 1,50,-1
 100 31 l 1,51,-1
 126 31 l 1,52,-1
 145 50 l 1,53,-1
 145 76 l 1,54,-1
 126 94 l 1,55,-1
 100 94 l 1,48,-1
EndSplineSet
Substitution: 0 65534 'L026' uni0E0D.alt1
Substitution: 0 65534 'L026' uni0E0D.alt1
EndChar
StartChar: uni0E0E
Encoding: 3598 3598 225
Width: 447
Flags: W
Fore
343 396 m 1,0,-1
 397 342 l 1,1,-1
 397 -180 l 1,2,-1
 361 -180 l 1,3,-1
 324 -142 l 1,4,-1
 286 -180 l 1,5,-1
 145 -180 l 1,6,-1
 109 -144 l 1,7,-1
 109 -90 l 1,8,-1
 145 -54 l 1,9,-1
 286 -54 l 1,10,-1
 361 -129 l 1,11,-1
 361 327 l 1,12,-1
 328 360 l 1,13,-1
 160 360 l 1,14,-1
 142 342 l 1,15,-1
 199 285 l 1,16,-1
 145 231 l 1,17,-1
 145 37 l 1,18,-1
 108 0 l 1,19,-1
 56 0 l 1,20,-1
 19 37 l 1,21,-1
 19 89 l 1,22,-1
 56 126 l 1,23,-1
 108 126 l 1,24,-1
 109 125 l 1,25,-1
 109 245 l 1,26,-1
 148 285 l 1,27,-1
 91 342 l 1,28,-1
 145 396 l 1,29,-1
 343 396 l 1,0,-1
114 50 m 1,30,-1
 114 76 l 1,31,-1
 95 94 l 1,32,-1
 69 94 l 1,33,-1
 51 76 l 1,34,-1
 51 50 l 1,35,-1
 69 31 l 1,36,-1
 95 31 l 1,37,-1
 114 50 l 1,30,-1
271 -144 m 1,38,-1
 298 -117 l 1,39,-1
 271 -90 l 1,40,-1
 160 -90 l 1,41,-1
 145 -105 l 1,42,-1
 145 -129 l 1,43,-1
 160 -144 l 1,44,-1
 271 -144 l 1,38,-1
EndSplineSet
Substitution: 0 65534 'L026' uni0E0E.alt1
Substitution: 0 65534 'L026' uni0E0E.alt1
EndChar
StartChar: uni0E0F
Encoding: 3599 3599 226
Width: 448
Flags: W
Fore
343 396 m 1,0,-1
 397 342 l 1,1,-1
 397 -179 l 1,2,-1
 360 -179 l 1,3,-1
 323 -142 l 1,4,-1
 285 -180 l 1,5,-1
 248 -142 l 1,6,-1
 210 -179 l 1,7,-1
 145 -179 l 1,8,-1
 109 -143 l 1,9,-1
 109 -89 l 1,10,-1
 145 -54 l 1,11,-1
 210 -54 l 1,12,-1
 285 -129 l 1,13,-1
 323 -91 l 1,14,-1
 361 -129 l 1,15,-1
 361 327 l 1,16,-1
 328 360 l 1,17,-1
 160 360 l 1,18,-1
 142 342 l 1,19,-1
 199 285 l 1,20,-1
 145 231 l 1,21,-1
 145 37 l 1,22,-1
 108 0 l 1,23,-1
 56 0 l 1,24,-1
 19 37 l 1,25,-1
 19 89 l 1,26,-1
 56 126 l 1,27,-1
 108 126 l 1,28,-1
 109 125 l 1,29,-1
 109 246 l 1,30,-1
 148 285 l 1,31,-1
 91 342 l 1,32,-1
 145 396 l 1,33,-1
 343 396 l 1,0,-1
113 50 m 1,34,-1
 113 76 l 1,35,-1
 95 95 l 1,36,-1
 69 95 l 1,37,-1
 50 76 l 1,38,-1
 50 50 l 1,39,-1
 69 32 l 1,40,-1
 95 32 l 1,41,-1
 113 50 l 1,34,-1
195 -143 m 1,42,-1
 222 -116 l 1,43,-1
 195 -89 l 1,44,-1
 160 -89 l 1,45,-1
 145 -104 l 1,46,-1
 145 -128 l 1,47,-1
 160 -143 l 1,48,-1
 195 -143 l 1,42,-1
EndSplineSet
Substitution: 0 65534 'L026' uni0E0F.alt1
Substitution: 0 65534 'L026' uni0E0F.alt1
EndChar
StartChar: uni0E10
Encoding: 3600 3600 227
Width: 371
Flags: W
Fore
320 359 m 1,0,-1
 101 359 l 1,1,-1
 70 329 l 1,2,-1
 320 270 l 1,3,-1
 320 0 l 1,4,-1
 284 0 l 1,5,-1
 284 98 l 1,6,-1
 230 152 l 1,7,-1
 230 144 l 1,8,-1
 193 107 l 1,9,-1
 141 107 l 1,10,-1
 104 144 l 1,11,-1
 104 196 l 1,12,-1
 141 233 l 1,13,-1
 193 233 l 1,14,-1
 284 142 l 1,15,-1
 284 246 l 1,16,-1
 32 305 l 1,17,-1
 32 341 l 1,18,-1
 86 395 l 1,19,-1
 320 395 l 1,20,-1
 320 359 l 1,0,-1
198 157 m 1,21,-1
 198 183 l 1,22,-1
 180 202 l 1,23,-1
 154 202 l 1,24,-1
 135 183 l 1,25,-1
 135 157 l 1,26,-1
 154 139 l 1,27,-1
 180 139 l 1,28,-1
 198 157 l 1,21,-1
288 -53 m 1,29,-1
 320 -85 l 1,30,-1
 320 -130 l 1,31,-1
 288 -161 l 1,32,-1
 244 -162 l 1,33,-1
 182 -101 l 1,34,-1
 122 -161 l 1,35,-1
 39 -78 l 1,36,-1
 61 -56 l 1,37,-1
 122 -117 l 1,38,-1
 182 -56 l 1,39,-1
 212 -86 l 1,40,-1
 244 -53 l 1,41,-1
 288 -53 l 1,29,-1
288 -117 m 1,42,-1
 288 -99 l 1,43,-1
 275 -85 l 1,44,-1
 257 -85 l 1,45,-1
 244 -99 l 1,46,-1
 244 -117 l 1,47,-1
 257 -130 l 1,48,-1
 275 -130 l 1,49,-1
 288 -117 l 1,42,-1
EndSplineSet
Substitution: 0 65534 'L026' uni0E10.alt1
Substitution: 0 65534 'L026' uni0E10.alt1
EndChar
StartChar: uni0E11
Encoding: 3601 3601 228
Width: 483
Flags: W
Fore
379 396 m 1,0,-1
 432 342 l 1,1,-1
 432 0 l 1,2,-1
 396 0 l 1,3,-1
 396 327 l 1,4,-1
 364 360 l 1,5,-1
 345 360 l 1,6,-1
 217 0 l 1,7,-1
 181 0 l 1,8,-1
 181 287 l 1,9,-1
 226 332 l 1,10,-1
 226 352 l 1,11,-1
 218 360 l 1,12,-1
 203 360 l 1,13,-1
 167 324 l 1,14,-1
 132 360 l 1,15,-1
 88 360 l 1,16,-1
 70 342 l 1,17,-1
 108 342 l 1,18,-1
 145 305 l 1,19,-1
 145 253 l 1,20,-1
 108 216 l 1,21,-1
 56 216 l 1,22,-1
 19 253 l 1,23,-1
 19 342 l 1,24,-1
 73 396 l 1,25,-1
 140 396 l 1,26,-1
 167 368 l 1,27,-1
 195 396 l 1,28,-1
 226 396 l 1,29,-1
 262 360 l 1,30,-1
 262 324 l 1,31,-1
 217 279 l 1,32,-1
 217 93 l 1,33,-1
 324 395 l 1,34,-1
 324 396 l 1,35,-1
 379 396 l 1,0,-1
95 310 m 1,36,-1
 69 310 l 1,37,-1
 50 292 l 1,38,-1
 50 266 l 1,39,-1
 69 247 l 1,40,-1
 95 247 l 1,41,-1
 113 266 l 1,42,-1
 113 292 l 1,43,-1
 95 310 l 1,36,-1
EndSplineSet
EndChar
StartChar: uni0E12
Encoding: 3602 3602 229
Width: 579
Flags: W
Fore
492 395 m 1,0,-1
 528 395 l 1,1,-1
 528 0 l 1,2,-1
 492 0 l 1,3,-1
 366 70 l 1,4,-1
 366 37 l 1,5,-1
 329 0 l 1,6,-1
 277 0 l 1,7,-1
 240 37 l 1,8,-1
 240 89 l 1,9,-1
 277 126 l 1,10,-1
 312 126 l 1,11,-1
 312 327 l 1,12,-1
 279 359 l 1,13,-1
 249 359 l 1,14,-1
 195 305 l 1,15,-1
 141 359 l 1,16,-1
 111 359 l 1,17,-1
 78 327 l 1,18,-1
 78 45 l 1,19,-1
 177 144 l 1,20,-1
 169 144 l 1,21,-1
 132 181 l 1,22,-1
 132 233 l 1,23,-1
 169 270 l 1,24,-1
 221 270 l 1,25,-1
 258 233 l 1,26,-1
 258 181 l 1,27,-1
 78 0 l 1,28,-1
 42 0 l 1,29,-1
 42 341 l 1,30,-1
 96 395 l 1,31,-1
 156 395 l 1,32,-1
 195 356 l 1,33,-1
 234 395 l 1,34,-1
 294 395 l 1,35,-1
 348 342 l 1,36,-1
 348 116 l 1,37,-1
 492 36 l 1,38,-1
 492 395 l 1,0,-1
164 194 m 1,39,-1
 182 175 l 1,40,-1
 208 175 l 1,41,-1
 226 194 l 1,42,-1
 226 220 l 1,43,-1
 208 238 l 1,44,-1
 182 238 l 1,45,-1
 164 220 l 1,46,-1
 164 194 l 1,39,-1
334 50 m 1,47,-1
 334 76 l 1,48,-1
 316 94 l 1,49,-1
 290 94 l 1,50,-1
 271 76 l 1,51,-1
 271 50 l 1,52,-1
 290 31 l 1,53,-1
 316 31 l 1,54,-1
 334 50 l 1,47,-1
EndSplineSet
EndChar
StartChar: uni0E13
Encoding: 3603 3603 230
Width: 608
Flags: W
Fore
536 125 m 1,0,-1
 573 89 l 1,1,-1
 573 36 l 1,2,-1
 536 0 l 1,3,-1
 484 0 l 1,4,-1
 447 36 l 1,5,-1
 447 66 l 1,6,-1
 338 0 l 1,7,-1
 303 0 l 1,8,-1
 303 327 l 1,9,-1
 270 359 l 1,10,-1
 102 359 l 1,11,-1
 84 341 l 1,12,-1
 141 284 l 1,13,-1
 87 230 l 1,14,-1
 87 125 l 1,15,-1
 140 125 l 1,16,-1
 177 89 l 1,17,-1
 177 36 l 1,18,-1
 140 0 l 1,19,-1
 88 0 l 1,20,-1
 51 36 l 1,21,-1
 51 245 l 1,22,-1
 90 284 l 1,23,-1
 33 341 l 1,24,-1
 87 395 l 1,25,-1
 285 395 l 1,26,-1
 339 341 l 1,27,-1
 339 37 l 1,28,-1
 482 124 l 1,29,-1
 483 125 l 1,30,-1
 483 395 l 1,31,-1
 519 395 l 1,32,-1
 519 125 l 1,33,-1
 536 125 l 1,0,-1
101 94 m 1,34,-1
 82 76 l 1,35,-1
 82 49 l 1,36,-1
 101 31 l 1,37,-1
 127 31 l 1,38,-1
 145 49 l 1,39,-1
 145 76 l 1,40,-1
 127 94 l 1,41,-1
 101 94 l 1,34,-1
541 49 m 1,42,-1
 541 76 l 1,43,-1
 523 94 l 1,44,-1
 498 94 l 1,45,-1
 478 76 l 1,46,-1
 478 49 l 1,47,-1
 497 31 l 1,48,-1
 523 31 l 1,49,-1
 541 49 l 1,42,-1
EndSplineSet
EndChar
StartChar: uni0E14
Encoding: 3604 3604 231
Width: 401
Flags: W
Fore
296 395 m 1,0,-1
 350 341 l 1,1,-1
 350 0 l 1,2,-1
 314 0 l 1,3,-1
 314 327 l 1,4,-1
 281 359 l 1,5,-1
 113 359 l 1,6,-1
 80 326 l 1,7,-1
 80 44 l 1,8,-1
 178 144 l 1,9,-1
 171 144 l 1,10,-1
 134 180 l 1,11,-1
 134 233 l 1,12,-1
 171 269 l 1,13,-1
 223 269 l 1,14,-1
 260 233 l 1,15,-1
 260 180 l 1,16,-1
 80 0 l 1,17,-1
 44 0 l 1,18,-1
 44 341 l 1,19,-1
 98 395 l 1,20,-1
 296 395 l 1,0,-1
165 193 m 1,21,-1
 184 175 l 1,22,-1
 210 175 l 1,23,-1
 228 193 l 1,24,-1
 228 220 l 1,25,-1
 210 238 l 1,26,-1
 184 238 l 1,27,-1
 165 220 l 1,28,-1
 165 193 l 1,21,-1
EndSplineSet
EndChar
StartChar: uni0E15
Encoding: 3605 3605 232
Width: 400
Flags: W
Fore
295 395 m 1,0,-1
 348 341 l 1,1,-1
 348 0 l 1,2,-1
 312 0 l 1,3,-1
 312 327 l 1,4,-1
 280 359 l 1,5,-1
 250 359 l 1,6,-1
 196 305 l 1,7,-1
 141 359 l 1,8,-1
 112 359 l 1,9,-1
 79 326 l 1,10,-1
 79 44 l 1,11,-1
 177 144 l 1,12,-1
 169 144 l 1,13,-1
 133 180 l 1,14,-1
 133 233 l 1,15,-1
 169 269 l 1,16,-1
 222 269 l 1,17,-1
 258 233 l 1,18,-1
 258 180 l 1,19,-1
 79 0 l 1,20,-1
 43 0 l 1,21,-1
 43 341 l 1,22,-1
 97 395 l 1,23,-1
 156 395 l 1,24,-1
 196 356 l 1,25,-1
 235 395 l 1,26,-1
 295 395 l 1,0,-1
164 193 m 1,27,-1
 182 175 l 1,28,-1
 209 175 l 1,29,-1
 227 193 l 1,30,-1
 227 220 l 1,31,-1
 209 238 l 1,32,-1
 182 238 l 1,33,-1
 164 220 l 1,34,-1
 164 193 l 1,27,-1
EndSplineSet
EndChar
StartChar: uni0E16
Encoding: 3606 3606 233
Width: 387
Flags: W
Fore
284 396 m 1,0,-1
 337 342 l 1,1,-1
 337 0 l 1,2,-1
 302 0 l 1,3,-1
 302 327 l 1,4,-1
 269 360 l 1,5,-1
 101 360 l 1,6,-1
 83 342 l 1,7,-1
 140 285 l 1,8,-1
 86 231 l 1,9,-1
 86 126 l 1,10,-1
 139 126 l 1,11,-1
 176 89 l 1,12,-1
 176 37 l 1,13,-1
 139 0 l 1,14,-1
 87 0 l 1,15,-1
 50 37 l 1,16,-1
 50 246 l 1,17,-1
 89 285 l 1,18,-1
 32 342 l 1,19,-1
 86 396 l 1,20,-1
 284 396 l 1,0,-1
100 95 m 1,21,-1
 81 76 l 1,22,-1
 81 50 l 1,23,-1
 100 32 l 1,24,-1
 126 32 l 1,25,-1
 144 50 l 1,26,-1
 144 76 l 1,27,-1
 126 95 l 1,28,-1
 100 95 l 1,21,-1
EndSplineSet
EndChar
StartChar: uni0E17
Encoding: 3607 3607 234
Width: 446
Flags: W
Fore
342 396 m 1,0,-1
 396 342 l 1,1,-1
 396 0 l 1,2,-1
 360 0 l 1,3,-1
 360 327 l 1,4,-1
 327 360 l 1,5,-1
 306 360 l 1,6,-1
 145 0 l 1,7,-1
 108 0 l 1,8,-1
 108 271 l 1,9,-1
 107 270 l 1,10,-1
 55 270 l 1,11,-1
 18 307 l 1,12,-1
 18 359 l 1,13,-1
 55 396 l 1,14,-1
 107 396 l 1,15,-1
 144 359 l 1,16,-1
 144 76 l 1,17,-1
 288 396 l 1,18,-1
 342 396 l 1,0,-1
94 302 m 1,19,-1
 113 320 l 1,20,-1
 113 346 l 1,21,-1
 94 364 l 1,22,-1
 68 364 l 1,23,-1
 50 346 l 1,24,-1
 50 320 l 1,25,-1
 68 302 l 1,26,-1
 94 302 l 1,19,-1
EndSplineSet
EndChar
StartChar: uni0E18
Encoding: 3608 3608 235
Width: 371
Flags: W
Fore
320 360 m 1,0,-1
 101 360 l 1,1,-1
 70 329 l 1,2,-1
 320 270 l 1,3,-1
 320 54 l 1,4,-1
 266 0 l 1,5,-1
 104 0 l 1,6,-1
 50 54 l 1,7,-1
 50 252 l 1,8,-1
 86 252 l 1,9,-1
 86 69 l 1,10,-1
 119 36 l 1,11,-1
 251 36 l 1,12,-1
 284 69 l 1,13,-1
 284 247 l 1,14,-1
 32 306 l 1,15,-1
 32 342 l 1,16,-1
 86 396 l 1,17,-1
 320 396 l 1,18,-1
 320 360 l 1,0,-1
EndSplineSet
EndChar
StartChar: uni0E19
Encoding: 3609 3609 236
Width: 450
Flags: W
Fore
377 126 m 1,0,-1
 414 89 l 1,1,-1
 414 37 l 1,2,-1
 377 0 l 1,3,-1
 325 0 l 1,4,-1
 288 37 l 1,5,-1
 288 72 l 1,6,-1
 144 0 l 1,7,-1
 108 0 l 1,8,-1
 108 271 l 1,9,-1
 107 270 l 1,10,-1
 55 270 l 1,11,-1
 18 307 l 1,12,-1
 18 359 l 1,13,-1
 55 396 l 1,14,-1
 107 396 l 1,15,-1
 144 359 l 1,16,-1
 144 35 l 1,17,-1
 324 125 l 1,18,-1
 324 396 l 1,19,-1
 360 396 l 1,20,-1
 360 126 l 1,21,-1
 377 126 l 1,0,-1
94 301 m 1,22,-1
 113 320 l 1,23,-1
 113 346 l 1,24,-1
 94 364 l 1,25,-1
 68 364 l 1,26,-1
 50 346 l 1,27,-1
 50 320 l 1,28,-1
 68 301 l 1,29,-1
 94 301 l 1,22,-1
383 50 m 1,30,-1
 383 76 l 1,31,-1
 364 95 l 1,32,-1
 338 95 l 1,33,-1
 320 76 l 1,34,-1
 320 50 l 1,35,-1
 338 32 l 1,36,-1
 364 32 l 1,37,-1
 383 50 l 1,30,-1
EndSplineSet
EndChar
StartChar: uni0E1A
Encoding: 3610 3610 237
Width: 429
Flags: W
Fore
342 396 m 1,0,-1
 378 396 l 1,1,-1
 378 54 l 1,2,-1
 324 0 l 1,3,-1
 162 0 l 1,4,-1
 108 54 l 1,5,-1
 108 271 l 1,6,-1
 107 270 l 1,7,-1
 55 270 l 1,8,-1
 18 307 l 1,9,-1
 18 359 l 1,10,-1
 55 396 l 1,11,-1
 107 396 l 1,12,-1
 144 359 l 1,13,-1
 144 69 l 1,14,-1
 177 36 l 1,15,-1
 309 36 l 1,16,-1
 342 69 l 1,17,-1
 342 396 l 1,0,-1
94 301 m 1,18,-1
 112 320 l 1,19,-1
 112 346 l 1,20,-1
 94 364 l 1,21,-1
 68 364 l 1,22,-1
 50 346 l 1,23,-1
 50 320 l 1,24,-1
 68 301 l 1,25,-1
 94 301 l 1,18,-1
EndSplineSet
EndChar
StartChar: uni0E1B
Encoding: 3611 3611 238
Width: 429
Flags: W
Fore
343 575 m 1,0,-1
 379 575 l 1,1,-1
 379 54 l 1,2,-1
 325 0 l 1,3,-1
 163 0 l 1,4,-1
 109 53 l 1,5,-1
 109 270 l 1,6,-1
 108 269 l 1,7,-1
 56 269 l 1,8,-1
 19 306 l 1,9,-1
 19 358 l 1,10,-1
 56 395 l 1,11,-1
 108 395 l 1,12,-1
 145 358 l 1,13,-1
 145 68 l 1,14,-1
 178 36 l 1,15,-1
 310 36 l 1,16,-1
 343 68 l 1,17,-1
 343 575 l 1,0,-1
95 301 m 1,18,-1
 113 319 l 1,19,-1
 113 345 l 1,20,-1
 95 364 l 1,21,-1
 69 364 l 1,22,-1
 50 345 l 1,23,-1
 50 319 l 1,24,-1
 69 301 l 1,25,-1
 95 301 l 1,18,-1
EndSplineSet
EndChar
StartChar: uni0E1C
Encoding: 3612 3612 239
Width: 399
Flags: W
Fore
348 396 m 1,0,-1
 348 0 l 1,1,-1
 312 0 l 1,2,-1
 195 133 l 1,3,-1
 78 0 l 1,4,-1
 42 0 l 1,5,-1
 42 359 l 1,6,-1
 79 396 l 1,7,-1
 131 396 l 1,8,-1
 168 359 l 1,9,-1
 168 307 l 1,10,-1
 131 270 l 1,11,-1
 79 270 l 1,12,-1
 78 271 l 1,13,-1
 78 48 l 1,14,-1
 195 180 l 1,15,-1
 312 48 l 1,16,-1
 312 396 l 1,17,-1
 348 396 l 1,0,-1
74 346 m 1,18,-1
 74 320 l 1,19,-1
 92 301 l 1,20,-1
 118 301 l 1,21,-1
 137 320 l 1,22,-1
 137 346 l 1,23,-1
 118 364 l 1,24,-1
 92 364 l 1,25,-1
 74 346 l 1,18,-1
EndSplineSet
EndChar
StartChar: uni0E1D
Encoding: 3613 3613 240
Width: 398
Flags: W
Fore
347 575 m 1,0,-1
 347 0 l 1,1,-1
 311 0 l 1,2,-1
 195 132 l 1,3,-1
 78 0 l 1,4,-1
 42 0 l 1,5,-1
 42 358 l 1,6,-1
 79 395 l 1,7,-1
 131 395 l 1,8,-1
 168 358 l 1,9,-1
 168 306 l 1,10,-1
 131 269 l 1,11,-1
 79 269 l 1,12,-1
 78 270 l 1,13,-1
 78 47 l 1,14,-1
 195 180 l 1,15,-1
 311 47 l 1,16,-1
 311 575 l 1,17,-1
 347 575 l 1,0,-1
73 345 m 1,18,-1
 73 319 l 1,19,-1
 92 301 l 1,20,-1
 118 301 l 1,21,-1
 136 319 l 1,22,-1
 136 345 l 1,23,-1
 118 364 l 1,24,-1
 92 364 l 1,25,-1
 73 345 l 1,18,-1
EndSplineSet
EndChar
StartChar: uni0E1E
Encoding: 3614 3614 241
Width: 465
Flags: W
Fore
379 395 m 1,0,-1
 415 395 l 1,1,-1
 415 0 l 1,2,-1
 379 0 l 1,3,-1
 262 307 l 1,4,-1
 145 0 l 1,5,-1
 109 0 l 1,6,-1
 109 270 l 1,7,-1
 108 269 l 1,8,-1
 56 269 l 1,9,-1
 19 306 l 1,10,-1
 19 358 l 1,11,-1
 56 395 l 1,12,-1
 108 395 l 1,13,-1
 145 358 l 1,14,-1
 145 88 l 1,15,-1
 262 395 l 1,16,-1
 379 87 l 1,17,-1
 379 395 l 1,0,-1
95 301 m 1,18,-1
 113 319 l 1,19,-1
 113 345 l 1,20,-1
 95 364 l 1,21,-1
 69 364 l 1,22,-1
 50 345 l 1,23,-1
 50 319 l 1,24,-1
 69 301 l 1,25,-1
 95 301 l 1,18,-1
EndSplineSet
EndChar
StartChar: uni0E1F
Encoding: 3615 3615 242
Width: 465
Flags: W
Fore
378 575 m 1,0,-1
 414 575 l 1,1,-1
 414 0 l 1,2,-1
 378 0 l 1,3,-1
 261 307 l 1,4,-1
 145 0 l 1,5,-1
 109 0 l 1,6,-1
 109 270 l 1,7,-1
 108 269 l 1,8,-1
 56 269 l 1,9,-1
 19 306 l 1,10,-1
 19 358 l 1,11,-1
 56 395 l 1,12,-1
 108 395 l 1,13,-1
 145 358 l 1,14,-1
 145 88 l 1,15,-1
 261 395 l 1,16,-1
 378 88 l 1,17,-1
 378 575 l 1,0,-1
95 301 m 1,18,-1
 113 319 l 1,19,-1
 113 345 l 1,20,-1
 95 364 l 1,21,-1
 69 364 l 1,22,-1
 50 345 l 1,23,-1
 50 319 l 1,24,-1
 69 301 l 1,25,-1
 95 301 l 1,18,-1
EndSplineSet
EndChar
StartChar: uni0E20
Encoding: 3616 3616 243
Width: 446
Flags: W
Fore
342 396 m 1,0,-1
 396 342 l 1,1,-1
 396 0 l 1,2,-1
 360 0 l 1,3,-1
 360 327 l 1,4,-1
 327 360 l 1,5,-1
 159 360 l 1,6,-1
 141 342 l 1,7,-1
 198 284 l 1,8,-1
 144 230 l 1,9,-1
 144 37 l 1,10,-1
 107 0 l 1,11,-1
 55 0 l 1,12,-1
 18 37 l 1,13,-1
 18 89 l 1,14,-1
 55 126 l 1,15,-1
 107 126 l 1,16,-1
 108 125 l 1,17,-1
 108 245 l 1,18,-1
 147 284 l 1,19,-1
 90 342 l 1,20,-1
 144 396 l 1,21,-1
 342 396 l 1,0,-1
113 50 m 1,22,-1
 113 76 l 1,23,-1
 94 94 l 1,24,-1
 68 94 l 1,25,-1
 50 76 l 1,26,-1
 50 50 l 1,27,-1
 68 31 l 1,28,-1
 94 31 l 1,29,-1
 113 50 l 1,22,-1
EndSplineSet
EndChar
StartChar: uni0E21
Encoding: 3617 3617 244
Width: 411
Flags: W
Fore
324 396 m 1,0,-1
 360 396 l 1,1,-1
 360 0 l 1,2,-1
 324 0 l 1,3,-1
 162 75 l 1,4,-1
 162 37 l 1,5,-1
 125 0 l 1,6,-1
 73 0 l 1,7,-1
 36 37 l 1,8,-1
 36 89 l 1,9,-1
 73 126 l 1,10,-1
 108 126 l 1,11,-1
 108 271 l 1,12,-1
 107 270 l 1,13,-1
 55 270 l 1,14,-1
 18 307 l 1,15,-1
 18 359 l 1,16,-1
 55 396 l 1,17,-1
 107 396 l 1,18,-1
 144 359 l 1,19,-1
 144 118 l 1,20,-1
 324 35 l 1,21,-1
 324 396 l 1,0,-1
94 301 m 1,22,-1
 113 320 l 1,23,-1
 113 346 l 1,24,-1
 94 364 l 1,25,-1
 68 364 l 1,26,-1
 50 346 l 1,27,-1
 50 320 l 1,28,-1
 68 301 l 1,29,-1
 94 301 l 1,22,-1
131 50 m 1,30,-1
 131 76 l 1,31,-1
 112 95 l 1,32,-1
 86 95 l 1,33,-1
 68 76 l 1,34,-1
 68 50 l 1,35,-1
 86 32 l 1,36,-1
 112 32 l 1,37,-1
 131 50 l 1,30,-1
EndSplineSet
EndChar
StartChar: uni0E22
Encoding: 3618 3618 245
Width: 390
Flags: W
Fore
304 396 m 1,0,-1
 340 396 l 1,1,-1
 340 54 l 1,2,-1
 286 0 l 1,3,-1
 106 0 l 1,4,-1
 52 54 l 1,5,-1
 52 141 l 1,6,-1
 91 180 l 1,7,-1
 34 237 l 1,8,-1
 34 359 l 1,9,-1
 71 396 l 1,10,-1
 123 396 l 1,11,-1
 160 359 l 1,12,-1
 160 307 l 1,13,-1
 123 270 l 1,14,-1
 71 270 l 1,15,-1
 70 271 l 1,16,-1
 70 252 l 1,17,-1
 142 180 l 1,18,-1
 88 126 l 1,19,-1
 88 69 l 1,20,-1
 121 36 l 1,21,-1
 271 36 l 1,22,-1
 304 69 l 1,23,-1
 304 396 l 1,0,-1
65 346 m 1,24,-1
 65 320 l 1,25,-1
 84 302 l 1,26,-1
 110 302 l 1,27,-1
 128 320 l 1,28,-1
 128 346 l 1,29,-1
 110 365 l 1,30,-1
 84 365 l 1,31,-1
 65 346 l 1,24,-1
EndSplineSet
EndChar
StartChar: uni0E23
Encoding: 3619 3619 246
Width: 318
Flags: W
Fore
101 359 m 1,0,-1
 68 326 l 1,1,-1
 68 312 l 1,2,-1
 266 269 l 1,3,-1
 266 269 l 1,4,-1
 266 36 l 1,5,-1
 229 0 l 1,6,-1
 177 0 l 1,7,-1
 140 36 l 1,8,-1
 140 89 l 1,9,-1
 177 125 l 1,10,-1
 229 125 l 1,11,-1
 230 125 l 1,12,-1
 230 245 l 1,13,-1
 32 287 l 1,14,-1
 32 341 l 1,15,-1
 86 395 l 1,16,-1
 284 395 l 1,17,-1
 284 359 l 1,18,-1
 101 359 l 1,0,-1
235 49 m 1,19,-1
 235 76 l 1,20,-1
 216 94 l 1,21,-1
 190 94 l 1,22,-1
 172 76 l 1,23,-1
 172 49 l 1,24,-1
 190 31 l 1,25,-1
 216 31 l 1,26,-1
 235 49 l 1,19,-1
EndSplineSet
EndChar
StartChar: uni0E24
Encoding: 3620 3620 247
Width: 389
Flags: W
Fore
284 396 m 1,0,-1
 338 342 l 1,1,-1
 338 -180 l 1,2,-1
 302 -180 l 1,3,-1
 302 327 l 1,4,-1
 269 360 l 1,5,-1
 101 360 l 1,6,-1
 83 342 l 1,7,-1
 140 284 l 1,8,-1
 86 230 l 1,9,-1
 86 125 l 1,10,-1
 87 126 l 1,11,-1
 139 126 l 1,12,-1
 176 89 l 1,13,-1
 176 37 l 1,14,-1
 139 0 l 1,15,-1
 87 0 l 1,16,-1
 50 37 l 1,17,-1
 50 245 l 1,18,-1
 89 284 l 1,19,-1
 32 342 l 1,20,-1
 86 396 l 1,21,-1
 284 396 l 1,0,-1
100 94 m 1,22,-1
 82 76 l 1,23,-1
 82 50 l 1,24,-1
 100 31 l 1,25,-1
 126 31 l 1,26,-1
 144 50 l 1,27,-1
 144 76 l 1,28,-1
 126 94 l 1,29,-1
 100 94 l 1,22,-1
EndSplineSet
EndChar
StartChar: uni0E25
Encoding: 3621 3621 248
Width: 389
Flags: W
Fore
285 396 m 1,0,-1
 339 342 l 1,1,-1
 339 0 l 1,2,-1
 303 0 l 1,3,-1
 303 147 l 1,4,-1
 216 234 l 1,5,-1
 120 234 l 1,6,-1
 87 201 l 1,7,-1
 87 125 l 1,8,-1
 88 126 l 1,9,-1
 140 126 l 1,10,-1
 177 89 l 1,11,-1
 177 37 l 1,12,-1
 140 0 l 1,13,-1
 88 0 l 1,14,-1
 51 37 l 1,15,-1
 51 216 l 1,16,-1
 105 270 l 1,17,-1
 231 270 l 1,18,-1
 303 198 l 1,19,-1
 303 327 l 1,20,-1
 270 360 l 1,21,-1
 102 360 l 1,22,-1
 69 327 l 1,23,-1
 69 306 l 1,24,-1
 33 306 l 1,25,-1
 33 342 l 1,26,-1
 87 396 l 1,27,-1
 285 396 l 1,0,-1
101 95 m 1,28,-1
 83 76 l 1,29,-1
 83 50 l 1,30,-1
 101 32 l 1,31,-1
 127 32 l 1,32,-1
 145 50 l 1,33,-1
 145 76 l 1,34,-1
 127 95 l 1,35,-1
 101 95 l 1,28,-1
EndSplineSet
EndChar
StartChar: uni0E26
Encoding: 3622 3622 249
Width: 447
Flags: W
Fore
343 395 m 1,0,-1
 397 341 l 1,1,-1
 397 -180 l 1,2,-1
 361 -180 l 1,3,-1
 361 327 l 1,4,-1
 328 359 l 1,5,-1
 160 359 l 1,6,-1
 142 341 l 1,7,-1
 199 284 l 1,8,-1
 145 230 l 1,9,-1
 145 36 l 1,10,-1
 108 0 l 1,11,-1
 56 0 l 1,12,-1
 19 36 l 1,13,-1
 19 89 l 1,14,-1
 56 125 l 1,15,-1
 108 125 l 1,16,-1
 109 125 l 1,17,-1
 109 245 l 1,18,-1
 148 284 l 1,19,-1
 91 341 l 1,20,-1
 145 395 l 1,21,-1
 343 395 l 1,0,-1
114 49 m 1,22,-1
 114 76 l 1,23,-1
 95 94 l 1,24,-1
 69 94 l 1,25,-1
 51 76 l 1,26,-1
 51 50 l 1,27,-1
 69 31 l 1,28,-1
 95 31 l 1,29,-1
 114 49 l 1,22,-1
EndSplineSet
EndChar
StartChar: uni0E27
Encoding: 3623 3623 250
Width: 353
Flags: W
Fore
248 396 m 1,0,-1
 302 342 l 1,1,-1
 302 37 l 1,2,-1
 265 0 l 1,3,-1
 213 0 l 1,4,-1
 176 37 l 1,5,-1
 176 89 l 1,6,-1
 213 126 l 1,7,-1
 265 126 l 1,8,-1
 266 125 l 1,9,-1
 266 327 l 1,10,-1
 233 360 l 1,11,-1
 101 360 l 1,12,-1
 68 327 l 1,13,-1
 68 306 l 1,14,-1
 32 306 l 1,15,-1
 32 342 l 1,16,-1
 86 396 l 1,17,-1
 248 396 l 1,0,-1
271 50 m 1,18,-1
 271 76 l 1,19,-1
 252 95 l 1,20,-1
 226 95 l 1,21,-1
 208 76 l 1,22,-1
 208 50 l 1,23,-1
 226 32 l 1,24,-1
 252 32 l 1,25,-1
 271 50 l 1,18,-1
EndSplineSet
EndChar
StartChar: uni0E28
Encoding: 3624 3624 251
Width: 400
Flags: W
Fore
318 374 m 1,0,-1
 349 342 l 1,1,-1
 349 0 l 1,2,-1
 313 0 l 1,3,-1
 313 327 l 1,4,-1
 281 360 l 1,5,-1
 112 360 l 1,6,-1
 80 327 l 1,7,-1
 80 179 l 1,8,-1
 170 270 l 1,9,-1
 223 270 l 1,10,-1
 259 233 l 1,11,-1
 259 181 l 1,12,-1
 223 144 l 1,13,-1
 170 144 l 1,14,-1
 134 181 l 1,15,-1
 134 189 l 1,16,-1
 80 135 l 1,17,-1
 80 0 l 1,18,-1
 44 0 l 1,19,-1
 44 342 l 1,20,-1
 98 396 l 1,21,-1
 295 396 l 1,22,-1
 349 450 l 1,23,-1
 372 428 l 1,24,-1
 318 374 l 1,0,-1
228 220 m 1,25,-1
 210 239 l 1,26,-1
 183 239 l 1,27,-1
 165 220 l 1,28,-1
 165 194 l 1,29,-1
 183 176 l 1,30,-1
 210 176 l 1,31,-1
 228 194 l 1,32,-1
 228 220 l 1,25,-1
EndSplineSet
EndChar
StartChar: uni0E29
Encoding: 3625 3625 252
Width: 429
Flags: W
Fore
342 395 m 1,0,-1
 378 395 l 1,1,-1
 378 54 l 1,2,-1
 324 0 l 1,3,-1
 162 0 l 1,4,-1
 109 53 l 1,5,-1
 109 270 l 1,6,-1
 108 269 l 1,7,-1
 56 269 l 1,8,-1
 19 306 l 1,9,-1
 19 358 l 1,10,-1
 56 395 l 1,11,-1
 108 395 l 1,12,-1
 145 358 l 1,13,-1
 145 68 l 1,14,-1
 177 36 l 1,15,-1
 309 36 l 1,16,-1
 342 68 l 1,17,-1
 342 143 l 1,18,-1
 217 143 l 1,19,-1
 181 180 l 1,20,-1
 181 233 l 1,21,-1
 217 269 l 1,22,-1
 270 269 l 1,23,-1
 306 233 l 1,24,-1
 306 180 l 1,25,-1
 301 175 l 1,26,-1
 342 175 l 1,27,-1
 342 395 l 1,0,-1
257 175 m 1,28,-1
 275 193 l 1,29,-1
 275 219 l 1,30,-1
 257 238 l 1,31,-1
 230 238 l 1,32,-1
 212 219 l 1,33,-1
 212 193 l 1,34,-1
 230 175 l 1,35,-1
 257 175 l 1,28,-1
95 301 m 1,36,-1
 113 319 l 1,37,-1
 113 345 l 1,38,-1
 95 364 l 1,39,-1
 69 364 l 1,40,-1
 50 345 l 1,41,-1
 50 319 l 1,42,-1
 69 301 l 1,43,-1
 95 301 l 1,36,-1
EndSplineSet
EndChar
StartChar: uni0E2A
Encoding: 3626 3626 253
Width: 389
Flags: W
Fore
307 373 m 1,0,-1
 338 341 l 1,1,-1
 338 0 l 1,2,-1
 302 0 l 1,3,-1
 302 147 l 1,4,-1
 216 233 l 1,5,-1
 120 233 l 1,6,-1
 87 201 l 1,7,-1
 87 125 l 1,8,-1
 88 126 l 1,9,-1
 140 126 l 1,10,-1
 177 89 l 1,11,-1
 177 37 l 1,12,-1
 140 0 l 1,13,-1
 88 0 l 1,14,-1
 51 37 l 1,15,-1
 51 215 l 1,16,-1
 105 269 l 1,17,-1
 231 269 l 1,18,-1
 302 197 l 1,19,-1
 302 327 l 1,20,-1
 270 359 l 1,21,-1
 102 359 l 1,22,-1
 69 326 l 1,23,-1
 69 305 l 1,24,-1
 33 305 l 1,25,-1
 33 341 l 1,26,-1
 87 395 l 1,27,-1
 285 395 l 1,28,-1
 339 449 l 1,29,-1
 361 427 l 1,30,-1
 307 373 l 1,0,-1
101 94 m 1,31,-1
 82 76 l 1,32,-1
 82 50 l 1,33,-1
 101 31 l 1,34,-1
 127 31 l 1,35,-1
 145 50 l 1,36,-1
 145 76 l 1,37,-1
 127 94 l 1,38,-1
 101 94 l 1,31,-1
EndSplineSet
EndChar
StartChar: uni0E2B
Encoding: 3627 3627 254
Width: 447
Flags: W
Fore
396 307 m 1,0,-1
 359 270 l 1,1,-1
 396 233 l 1,2,-1
 396 0 l 1,3,-1
 360 0 l 1,4,-1
 360 218 l 1,5,-1
 330 248 l 1,6,-1
 144 0 l 1,7,-1
 108 0 l 1,8,-1
 108 271 l 1,9,-1
 108 270 l 1,10,-1
 55 270 l 1,11,-1
 18 307 l 1,12,-1
 18 359 l 1,13,-1
 55 396 l 1,14,-1
 108 396 l 1,15,-1
 144 359 l 1,16,-1
 144 53 l 1,17,-1
 307 270 l 1,18,-1
 270 307 l 1,19,-1
 270 359 l 1,20,-1
 307 396 l 1,21,-1
 359 396 l 1,22,-1
 396 359 l 1,23,-1
 396 307 l 1,0,-1
94 301 m 1,24,-1
 113 320 l 1,25,-1
 113 346 l 1,26,-1
 94 364 l 1,27,-1
 68 364 l 1,28,-1
 50 346 l 1,29,-1
 50 320 l 1,30,-1
 68 301 l 1,31,-1
 94 301 l 1,24,-1
302 320 m 1,32,-1
 320 301 l 1,33,-1
 346 301 l 1,34,-1
 365 320 l 1,35,-1
 365 346 l 1,36,-1
 346 364 l 1,37,-1
 320 364 l 1,38,-1
 302 346 l 1,39,-1
 302 320 l 1,32,-1
EndSplineSet
EndChar
StartChar: uni0E2C
Encoding: 3628 3628 255
Width: 447
Flags: W
Fore
442 415 m 1,0,-1
 465 393 l 1,1,-1
 397 325 l 1,2,-1
 397 0 l 1,3,-1
 361 0 l 1,4,-1
 253 189 l 1,5,-1
 145 0 l 1,6,-1
 109 0 l 1,7,-1
 109 271 l 1,8,-1
 108 270 l 1,9,-1
 56 270 l 1,10,-1
 19 307 l 1,11,-1
 19 359 l 1,12,-1
 56 396 l 1,13,-1
 108 396 l 1,14,-1
 145 359 l 1,15,-1
 145 64 l 1,16,-1
 253 252 l 1,17,-1
 361 64 l 1,18,-1
 361 289 l 1,19,-1
 360 288 l 1,20,-1
 308 288 l 1,21,-1
 271 325 l 1,22,-1
 271 377 l 1,23,-1
 308 414 l 1,24,-1
 360 414 l 1,25,-1
 397 377 l 1,26,-1
 397 369 l 1,27,-1
 442 415 l 1,0,-1
95 302 m 1,28,-1
 114 320 l 1,29,-1
 114 346 l 1,30,-1
 95 365 l 1,31,-1
 69 365 l 1,32,-1
 51 346 l 1,33,-1
 51 320 l 1,34,-1
 69 302 l 1,35,-1
 95 302 l 1,28,-1
347 320 m 1,36,-1
 365 338 l 1,37,-1
 365 364 l 1,38,-1
 347 383 l 1,39,-1
 321 383 l 1,40,-1
 302 364 l 1,41,-1
 302 338 l 1,42,-1
 321 320 l 1,43,-1
 347 320 l 1,36,-1
EndSplineSet
Substitution: 0 65534 'L026' uni0E2C.alt1
Substitution: 0 65534 'L026' uni0E2C.alt1
EndChar
StartChar: uni0E2D
Encoding: 3629 3629 256
Width: 390
Flags: W
Fore
285 395 m 1,0,-1
 339 341 l 1,1,-1
 339 54 l 1,2,-1
 285 0 l 1,3,-1
 105 0 l 1,4,-1
 51 54 l 1,5,-1
 51 233 l 1,6,-1
 88 269 l 1,7,-1
 140 269 l 1,8,-1
 177 233 l 1,9,-1
 177 180 l 1,10,-1
 140 144 l 1,11,-1
 88 144 l 1,12,-1
 87 144 l 1,13,-1
 87 68 l 1,14,-1
 120 36 l 1,15,-1
 270 36 l 1,16,-1
 303 69 l 1,17,-1
 303 327 l 1,18,-1
 270 359 l 1,19,-1
 102 359 l 1,20,-1
 69 326 l 1,21,-1
 69 305 l 1,22,-1
 33 305 l 1,23,-1
 33 341 l 1,24,-1
 87 395 l 1,25,-1
 285 395 l 1,0,-1
82 220 m 1,26,-1
 82 193 l 1,27,-1
 101 175 l 1,28,-1
 127 175 l 1,29,-1
 145 193 l 1,30,-1
 145 220 l 1,31,-1
 127 238 l 1,32,-1
 101 238 l 1,33,-1
 82 220 l 1,26,-1
EndSplineSet
EndChar
StartChar: uni0E2E
Encoding: 3630 3630 257
Width: 390
Flags: W
Fore
361 428 m 1,0,-1
 307 374 l 1,1,-1
 339 342 l 1,2,-1
 339 54 l 1,3,-1
 285 0 l 1,4,-1
 105 0 l 1,5,-1
 51 54 l 1,6,-1
 51 197 l 1,7,-1
 88 234 l 1,8,-1
 140 234 l 1,9,-1
 177 197 l 1,10,-1
 177 145 l 1,11,-1
 140 108 l 1,12,-1
 88 108 l 1,13,-1
 87 109 l 1,14,-1
 87 69 l 1,15,-1
 120 36 l 1,16,-1
 270 36 l 1,17,-1
 303 69 l 1,18,-1
 303 327 l 1,19,-1
 282 348 l 1,20,-1
 204 270 l 1,21,-1
 69 270 l 1,22,-1
 33 306 l 1,23,-1
 33 360 l 1,24,-1
 69 396 l 1,25,-1
 285 396 l 1,26,-1
 339 450 l 1,27,-1
 361 428 l 1,0,-1
82 184 m 1,28,-1
 82 158 l 1,29,-1
 101 140 l 1,30,-1
 127 140 l 1,31,-1
 145 158 l 1,32,-1
 145 184 l 1,33,-1
 127 203 l 1,34,-1
 101 203 l 1,35,-1
 82 184 l 1,28,-1
249 360 m 1,36,-1
 84 360 l 1,37,-1
 69 345 l 1,38,-1
 69 321 l 1,39,-1
 84 306 l 1,40,-1
 195 306 l 1,41,-1
 249 360 l 1,36,-1
EndSplineSet
EndChar
StartChar: uni0E2F
Encoding: 3631 3631 258
Width: 321
Flags: W
Fore
235 396 m 1,0,-1
 271 396 l 1,1,-1
 271 0 l 1,2,-1
 235 0 l 1,3,-1
 235 324 l 1,4,-1
 181 270 l 1,5,-1
 56 270 l 1,6,-1
 19 307 l 1,7,-1
 19 359 l 1,8,-1
 56 396 l 1,9,-1
 108 396 l 1,10,-1
 145 359 l 1,11,-1
 145 307 l 1,12,-1
 144 306 l 1,13,-1
 166 306 l 1,14,-1
 235 375 l 1,15,-1
 235 396 l 1,0,-1
69 302 m 1,16,-1
 95 302 l 1,17,-1
 114 320 l 1,18,-1
 114 346 l 1,19,-1
 95 365 l 1,20,-1
 69 365 l 1,21,-1
 51 346 l 1,22,-1
 51 320 l 1,23,-1
 69 302 l 1,16,-1
EndSplineSet
EndChar
StartChar: uni0E30
Encoding: 3632 3632 259
Width: 321
Flags: W
Fore
34 301 m 1,0,-1
 34 346 l 1,1,-1
 66 377 l 1,2,-1
 110 377 l 1,3,-1
 142 346 l 1,4,-1
 142 345 l 1,5,-1
 142 305 l 1,6,-1
 191 305 l 1,7,-1
 244 359 l 1,8,-1
 270 334 l 1,9,-1
 205 269 l 1,10,-1
 66 269 l 1,11,-1
 34 301 l 1,0,-1
66 333 m 1,12,-1
 66 314 l 1,13,-1
 79 301 l 1,14,-1
 97 301 l 1,15,-1
 111 314 l 1,16,-1
 111 333 l 1,17,-1
 97 346 l 1,18,-1
 79 346 l 1,19,-1
 66 333 l 1,12,-1
34 32 m 1,20,-1
 34 77 l 1,21,-1
 66 108 l 1,22,-1
 110 108 l 1,23,-1
 142 77 l 1,24,-1
 142 76 l 1,25,-1
 142 36 l 1,26,-1
 191 36 l 1,27,-1
 244 90 l 1,28,-1
 270 65 l 1,29,-1
 205 0 l 1,30,-1
 66 0 l 1,31,-1
 34 32 l 1,20,-1
66 45 m 1,32,-1
 79 32 l 1,33,-1
 97 32 l 1,34,-1
 111 45 l 1,35,-1
 111 64 l 1,36,-1
 97 77 l 1,37,-1
 79 77 l 1,38,-1
 66 64 l 1,39,-1
 66 45 l 1,32,-1
EndSplineSet
EndChar
StartChar: uni0E31
Encoding: 3633 3633 260
Width: 0
Flags: W
Fore
34 545 m 1,0,-1
 56 523 l 1,1,2
 39 506 39 506 21.5 489 c 128,-1,3
 4 472 4 472 -13 455 c 1,4,-1
 -204 455 l 1,5,-1
 -236 486 l 1,6,-1
 -236 531 l 1,7,-1
 -204 563 l 1,8,-1
 -160 563 l 1,9,-1
 -128 531 l 1,10,-1
 -128 487 l 1,11,-1
 -25 486 l 1,12,-1
 34 545 l 1,0,-1
-191 486 m 1,13,-1
 -172 486 l 1,14,-1
 -159 500 l 1,15,-1
 -159 518 l 1,16,-1
 -172 531 l 1,17,-1
 -191 531 l 1,18,-1
 -204 518 l 1,19,-1
 -204 500 l 1,20,-1
 -191 486 l 1,13,-1
EndSplineSet
Substitution: 0 65534 'L026' uni0E31.alt1
Substitution: 0 65534 'L026' uni0E31.alt1
EndChar
StartChar: uni0E32
Encoding: 3634 3634 261
Width: 353
Flags: W
Fore
248 395 m 1,0,-1
 302 342 l 1,1,-1
 302 0 l 1,2,-1
 266 0 l 1,3,-1
 266 327 l 1,4,-1
 233 359 l 1,5,-1
 101 359 l 1,6,-1
 68 327 l 1,7,-1
 68 305 l 1,8,-1
 32 305 l 1,9,-1
 32 341 l 1,10,-1
 86 395 l 1,11,-1
 248 395 l 1,0,-1
EndSplineSet
EndChar
StartChar: uni0E33
Encoding: 3635 3635 262
Width: 353
Flags: W
Fore
249 396 m 1,0,-1
 303 342 l 1,1,-1
 303 0 l 1,2,-1
 267 0 l 1,3,-1
 267 327 l 1,4,-1
 234 360 l 1,5,-1
 102 360 l 1,6,-1
 69 327 l 1,7,-1
 69 306 l 1,8,-1
 33 306 l 1,9,-1
 33 342 l 1,10,-1
 87 396 l 1,11,-1
 249 396 l 1,0,-1
-140 581 m 1,12,-1
 -87 581 l 1,13,-1
 -51 544 l 1,14,-1
 -51 492 l 1,15,-1
 -87 455 l 1,16,-1
 -140 455 l 1,17,-1
 -176 492 l 1,18,-1
 -176 544 l 1,19,-1
 -140 581 l 1,12,-1
-82 505 m 1,20,-1
 -82 531 l 1,21,-1
 -100 549 l 1,22,-1
 -127 549 l 1,23,-1
 -145 531 l 1,24,-1
 -145 505 l 1,25,-1
 -127 486 l 1,26,-1
 -100 486 l 1,27,-1
 -82 505 l 1,20,-1
EndSplineSet
Substitution: 0 65534 'L026' uni0E33.alt1
Substitution: 0 65534 'L026' uni0E33.alt1
EndChar
StartChar: uni0E34
Encoding: 3636 3636 263
Width: 0
Flags: W
Fore
-105 563 m 1,0,-1
 -51 509 l 1,1,-1
 -51 455 l 1,2,-1
 -338 455 l 1,3,-1
 -338 510 l 1,4,-1
 -285 563 l 1,5,-1
 -105 563 l 1,0,-1
-307 487 m 1,6,-1
 -82 487 l 1,7,-1
 -82 496 l 1,8,9
 -99 515 -99 515 -118 532 c 1,10,-1
 -272 532 l 1,11,-1
 -307 497 l 1,12,-1
 -307 487 l 1,6,-1
EndSplineSet
Substitution: 0 65534 'L026' uni0E34.alt1
Substitution: 0 65534 'L026' uni0E34.alt1
EndChar
StartChar: uni0E35
Encoding: 3637 3637 264
Width: 0
Flags: W
Fore
-82 617 m 1,0,-1
 -51 617 l 1,1,-1
 -51 455 l 1,2,-1
 -338 455 l 1,3,-1
 -338 509 l 1,4,-1
 -285 563 l 1,5,-1
 -104 563 l 1,6,-1
 -82 540 l 1,7,-1
 -82 617 l 1,0,-1
-307 486 m 1,8,-1
 -82 486 l 1,9,-1
 -82 496 l 1,10,-1
 -117 531 l 1,11,-1
 -272 531 l 1,12,-1
 -307 496 l 1,13,-1
 -307 486 l 1,8,-1
EndSplineSet
Substitution: 0 65534 'L026' uni0E35.alt1
Substitution: 0 65534 'L026' uni0E35.alt1
EndChar
StartChar: uni0E36
Encoding: 3638 3638 265
Width: 0
Flags: W
Fore
-19 540 m 1,0,-1
 -51 509 l 1,1,-1
 -51 508 l 1,2,-1
 -51 455 l 1,3,-1
 -338 455 l 1,4,-1
 -338 509 l 1,5,-1
 -285 563 l 1,6,-1
 -127 563 l 1,7,-1
 -127 585 l 1,8,-1
 -95 616 l 1,9,-1
 -51 616 l 1,10,-1
 -19 585 l 1,11,-1
 -19 540 l 1,0,-1
-82 486 m 1,12,-1
 -82 496 l 1,13,-1
 -117 531 l 1,14,-1
 -272 531 l 1,15,-1
 -307 496 l 1,16,-1
 -307 486 l 1,17,-1
 -82 486 l 1,12,-1
-64 540 m 1,18,-1
 -51 553 l 1,19,-1
 -51 572 l 1,20,-1
 -64 585 l 1,21,-1
 -82 585 l 1,22,-1
 -95 572 l 1,23,-1
 -95 554 l 1,24,25
 -92 550 -92 550 -89 547 c 128,-1,26
 -86 544 -86 544 -82 540 c 1,27,-1
 -64 540 l 1,18,-1
EndSplineSet
Substitution: 0 65534 'L026' uni0E36.alt1
Substitution: 0 65534 'L026' uni0E36.alt1
EndChar
StartChar: uni0E37
Encoding: 3639 3639 266
Width: 0
Flags: W
Fore
-82 616 m 1,0,-1
 -50 616 l 1,1,-1
 -50 454 l 1,2,-1
 -338 454 l 1,3,-1
 -338 509 l 1,4,-1
 -284 562 l 1,5,-1
 -154 562 l 1,6,-1
 -154 616 l 1,7,-1
 -122 616 l 1,8,-1
 -122 562 l 1,9,-1
 -104 562 l 1,10,-1
 -82 540 l 1,11,-1
 -82 616 l 1,0,-1
-307 486 m 1,12,-1
 -82 486 l 1,13,-1
 -82 495 l 1,14,15
 -90 503 -90 503 -99.5 513 c 128,-1,16
 -109 523 -109 523 -117 531 c 1,17,-1
 -271 531 l 1,18,19
 -279 523 -279 523 -288.5 513.5 c 128,-1,20
 -298 504 -298 504 -307 496 c 1,21,-1
 -307 486 l 1,12,-1
EndSplineSet
Substitution: 0 65534 'L026' uni0E37.alt1
Substitution: 0 65534 'L026' uni0E37.alt1
EndChar
StartChar: uni0E38
Encoding: 3640 3640 267
Width: 0
Flags: W
Fore
-50 -227 m 1,0,-1
 -86 -227 l 1,1,-1
 -86 -137 l 1,2,-1
 -127 -137 l 1,3,-1
 -158 -105 l 1,4,-1
 -158 -60 l 1,5,-1
 -127 -29 l 1,6,-1
 -82 -29 l 1,7,-1
 -50 -60 l 1,8,-1
 -50 -227 l 1,0,-1
-114 -105 m 1,9,-1
 -95 -105 l 1,10,-1
 -82 -92 l 1,11,-1
 -82 -74 l 1,12,-1
 -95 -60 l 1,13,-1
 -114 -60 l 1,14,-1
 -127 -74 l 1,15,-1
 -127 -92 l 1,16,-1
 -114 -105 l 1,9,-1
EndSplineSet
Substitution: 0 65534 'L027' a
Substitution: 0 65534 'L026' uni0E38.alt1
Substitution: 0 65534 'L027' a
Substitution: 0 65534 'L026' uni0E38.alt1
EndChar
StartChar: uni0E39
Encoding: 3641 3641 268
Width: 0
Flags: W
Fore
-87 -29 m 1,0,-1
 -51 -29 l 1,1,-1
 -51 -226 l 1,2,-1
 -177 -226 l 1,3,-1
 -177 -136 l 1,4,-1
 -218 -136 l 1,5,-1
 -249 -105 l 1,6,-1
 -249 -60 l 1,7,-1
 -217 -29 l 1,8,-1
 -173 -29 l 1,9,-1
 -141 -60 l 1,10,-1
 -141 -190 l 1,11,-1
 -87 -190 l 1,12,-1
 -87 -29 l 1,0,-1
-205 -105 m 1,13,-1
 -186 -105 l 1,14,-1
 -173 -92 l 1,15,-1
 -173 -73 l 1,16,-1
 -186 -60 l 1,17,-1
 -205 -60 l 1,18,-1
 -218 -73 l 1,19,-1
 -218 -92 l 1,20,-1
 -205 -105 l 1,13,-1
EndSplineSet
Substitution: 0 65534 'L027' b
Substitution: 0 65534 'L026' uni0E39.alt1
Substitution: 0 65534 'L027' b
Substitution: 0 65534 'L026' uni0E39.alt1
EndChar
StartChar: uni0E3A
Encoding: 3642 3642 269
Width: 0
Flags: W
Fore
-51 -50 m 1,0,-1
 -51 -79 l 1,1,-1
 -72 -101 l 1,2,-1
 -102 -101 l 1,3,-1
 -123 -79 l 1,4,-1
 -123 -50 l 1,5,-1
 -102 -29 l 1,6,-1
 -72 -29 l 1,7,-1
 -51 -50 l 1,0,-1
EndSplineSet
Substitution: 0 65534 'L027' c
Substitution: 0 65534 'L026' uni0E3A.alt1
Substitution: 0 65534 'L027' c
Substitution: 0 65534 'L026' uni0E3A.alt1
EndChar
StartChar: uni0E3F
Encoding: 3647 3647 270
Width: 354
Flags: W
Fore
258 225 m 1,0,-1
 303 180 l 1,1,-1
 303 54 l 1,2,-1
 249 0 l 1,3,-1
 168 0 l 1,4,-1
 168 -36 l 1,5,-1
 132 -36 l 1,6,-1
 132 0 l 1,7,-1
 33 0 l 1,8,-1
 33 432 l 1,9,-1
 132 432 l 1,10,-1
 132 468 l 1,11,-1
 168 468 l 1,12,-1
 168 432 l 1,13,-1
 231 432 l 1,14,-1
 285 378 l 1,15,-1
 285 252 l 1,16,-1
 258 225 l 1,0,-1
216 396 m 1,17,-1
 168 396 l 1,18,-1
 168 234 l 1,19,-1
 216 234 l 1,20,-1
 249 267 l 1,21,-1
 249 363 l 1,22,-1
 216 396 l 1,17,-1
69 396 m 1,23,-1
 69 234 l 1,24,-1
 132 234 l 1,25,-1
 132 396 l 1,26,-1
 69 396 l 1,23,-1
69 36 m 1,27,-1
 132 36 l 1,28,-1
 132 198 l 1,29,-1
 69 198 l 1,30,-1
 69 36 l 1,27,-1
267 69 m 1,31,-1
 267 165 l 1,32,-1
 234 198 l 1,33,-1
 168 198 l 1,34,-1
 168 36 l 1,35,-1
 234 36 l 1,36,-1
 267 69 l 1,31,-1
EndSplineSet
EndChar
StartChar: uni0E40
Encoding: 3648 3648 271
Width: 182
Flags: W
Fore
121 126 m 1,0,-1
 158 90 l 1,1,-1
 158 37 l 1,2,-1
 121 0 l 1,3,-1
 69 0 l 1,4,-1
 32 37 l 1,5,-1
 32 396 l 1,6,-1
 68 396 l 1,7,-1
 68 125 l 1,8,-1
 69 126 l 1,9,-1
 121 126 l 1,0,-1
126 50 m 1,10,-1
 126 76 l 1,11,-1
 108 95 l 1,12,-1
 82 95 l 1,13,-1
 64 76 l 1,14,-1
 64 50 l 1,15,-1
 82 32 l 1,16,-1
 108 32 l 1,17,-1
 126 50 l 1,10,-1
EndSplineSet
EndChar
StartChar: uni0E41
Encoding: 3649 3649 272
Width: 344
Flags: W
Fore
69 126 m 1,0,-1
 122 126 l 1,1,-1
 158 89 l 1,2,-1
 158 37 l 1,3,-1
 122 0 l 1,4,-1
 69 0 l 1,5,-1
 33 37 l 1,6,-1
 33 396 l 1,7,-1
 69 396 l 1,8,-1
 69 125 l 1,9,-1
 69 126 l 1,0,-1
127 50 m 1,10,-1
 127 76 l 1,11,-1
 109 94 l 1,12,-1
 82 94 l 1,13,-1
 64 76 l 1,14,-1
 64 50 l 1,15,-1
 82 31 l 1,16,-1
 109 31 l 1,17,-1
 127 50 l 1,10,-1
283 126 m 1,18,-1
 320 89 l 1,19,-1
 320 37 l 1,20,-1
 283 0 l 1,21,-1
 231 0 l 1,22,-1
 194 37 l 1,23,-1
 194 396 l 1,24,-1
 230 396 l 1,25,-1
 230 125 l 1,26,-1
 231 126 l 1,27,-1
 283 126 l 1,18,-1
289 50 m 1,28,-1
 289 76 l 1,29,-1
 270 94 l 1,30,-1
 244 94 l 1,31,-1
 226 76 l 1,32,-1
 226 50 l 1,33,-1
 244 31 l 1,34,-1
 270 31 l 1,35,-1
 289 50 l 1,28,-1
EndSplineSet
EndChar
StartChar: uni0E42
Encoding: 3650 3650 273
Width: 292
Flags: W
Fore
231 126 m 1,0,-1
 268 89 l 1,1,-1
 268 37 l 1,2,-1
 231 0 l 1,3,-1
 179 0 l 1,4,-1
 142 37 l 1,5,-1
 142 466 l 1,6,-1
 -20 531 l 1,7,-1
 -20 558 l 1,8,-1
 34 612 l 1,9,-1
 196 612 l 1,10,-1
 196 576 l 1,11,-1
 49 576 l 1,12,-1
 22 548 l 1,13,-1
 178 486 l 1,14,-1
 178 125 l 1,15,-1
 179 126 l 1,16,-1
 231 126 l 1,0,-1
237 50 m 1,17,-1
 237 76 l 1,18,-1
 218 95 l 1,19,-1
 192 95 l 1,20,-1
 174 76 l 1,21,-1
 174 50 l 1,22,-1
 192 32 l 1,23,-1
 218 32 l 1,24,-1
 237 50 l 1,17,-1
EndSplineSet
EndChar
StartChar: uni0E43
Encoding: 3651 3651 274
Width: 293
Flags: W
Fore
232 126 m 1,0,-1
 269 89 l 1,1,-1
 269 37 l 1,2,-1
 232 0 l 1,3,-1
 180 0 l 1,4,-1
 143 37 l 1,5,-1
 143 543 l 1,6,-1
 110 576 l 1,7,-1
 50 576 l 1,8,-1
 32 558 l 1,9,-1
 70 558 l 1,10,-1
 107 521 l 1,11,-1
 107 469 l 1,12,-1
 70 432 l 1,13,-1
 18 432 l 1,14,-1
 -19 469 l 1,15,-1
 -19 557 l 1,16,-1
 35 611 l 1,17,-1
 125 611 l 1,18,-1
 179 558 l 1,19,-1
 179 125 l 1,20,-1
 180 126 l 1,21,-1
 232 126 l 1,0,-1
75 508 m 1,22,-1
 57 526 l 1,23,-1
 31 526 l 1,24,-1
 12 508 l 1,25,-1
 12 482 l 1,26,-1
 31 463 l 1,27,-1
 57 463 l 1,28,-1
 75 482 l 1,29,-1
 75 508 l 1,22,-1
237 50 m 1,30,-1
 237 76 l 1,31,-1
 219 94 l 1,32,-1
 193 94 l 1,33,-1
 174 76 l 1,34,-1
 174 50 l 1,35,-1
 193 31 l 1,36,-1
 219 31 l 1,37,-1
 237 50 l 1,30,-1
EndSplineSet
EndChar
StartChar: uni0E44
Encoding: 3652 3652 275
Width: 292
Flags: W
Fore
232 126 m 1,0,-1
 268 89 l 1,1,-1
 268 37 l 1,2,-1
 232 0 l 1,3,-1
 179 0 l 1,4,-1
 143 37 l 1,5,-1
 143 560 l 1,6,-1
 86 503 l 1,7,-1
 14 575 l 1,8,-1
 -19 575 l 1,9,-1
 -19 611 l 1,10,-1
 29 611 l 1,11,-1
 86 554 l 1,12,-1
 143 612 l 1,13,-1
 179 612 l 1,14,-1
 179 125 l 1,15,-1
 179 126 l 1,16,-1
 232 126 l 1,0,-1
237 50 m 1,17,-1
 237 76 l 1,18,-1
 219 94 l 1,19,-1
 192 94 l 1,20,-1
 174 76 l 1,21,-1
 174 50 l 1,22,-1
 192 31 l 1,23,-1
 219 31 l 1,24,-1
 237 50 l 1,17,-1
EndSplineSet
EndChar
StartChar: uni0E45
Encoding: 3653 3653 276
Width: 354
Flags: W
Fore
249 396 m 1,0,-1
 303 342 l 1,1,-1
 303 -179 l 1,2,-1
 267 -179 l 1,3,-1
 267 327 l 1,4,-1
 234 360 l 1,5,-1
 102 360 l 1,6,-1
 69 327 l 1,7,-1
 69 306 l 1,8,-1
 33 306 l 1,9,-1
 33 342 l 1,10,-1
 87 396 l 1,11,-1
 249 396 l 1,0,-1
EndSplineSet
EndChar
StartChar: uni0E46
Encoding: 3654 3654 277
Width: 338
Flags: W
Fore
233 395 m 1,0,-1
 287 341 l 1,1,-1
 287 -181 l 1,2,-1
 251 -181 l 1,3,-1
 251 326 l 1,4,-1
 218 359 l 1,5,-1
 206 359 l 1,6,-1
 170 323 l 1,7,-1
 134 359 l 1,8,-1
 104 359 l 1,9,-1
 71 326 l 1,10,-1
 71 323 l 1,11,-1
 72 324 l 1,12,-1
 124 324 l 1,13,-1
 161 287 l 1,14,-1
 161 234 l 1,15,-1
 124 197 l 1,16,-1
 72 197 l 1,17,-1
 35 235 l 1,18,-1
 35 341 l 1,19,-1
 89 395 l 1,20,-1
 149 395 l 1,21,-1
 170 374 l 1,22,-1
 191 395 l 1,23,-1
 233 395 l 1,0,-1
85 292 m 1,24,-1
 66 274 l 1,25,-1
 66 248 l 1,26,-1
 85 230 l 1,27,-1
 111 230 l 1,28,-1
 129 248 l 1,29,-1
 129 274 l 1,30,-1
 111 292 l 1,31,-1
 85 292 l 1,24,-1
EndSplineSet
EndChar
StartChar: uni0E47
Encoding: 3655 3655 278
Width: 0
Flags: W
Fore
-82 558 m 1,0,-1
 -51 529 l 1,1,-1
 -51 486 l 1,2,-1
 -81 455 l 1,3,-1
 -177 455 l 1,4,-1
 -204 483 l 1,5,-1
 -232 455 l 1,6,-1
 -267 455 l 1,7,-1
 -267 545 l 1,8,-1
 -213 599 l 1,9,-1
 -101 599 l 1,10,-1
 -64 635 l 1,11,-1
 -42 613 l 1,12,-1
 -87 568 l 1,13,-1
 -200 568 l 1,14,-1
 -236 532 l 1,15,-1
 -236 496 l 1,16,-1
 -223 509 l 2,17,18
 -218 514 -218 514 -212.5 519.5 c 128,-1,19
 -207 525 -207 525 -204 527 c 1,20,-1
 -164 487 l 1,21,-1
 -155 487 l 1,22,-1
 -155 529 l 1,23,-1
 -126 558 l 1,24,-1
 -82 558 l 1,0,-1
-83 499 m 1,25,-1
 -83 516 l 1,26,-1
 -95 528 l 1,27,-1
 -112 528 l 1,28,-1
 -124 516 l 1,29,-1
 -124 499 l 1,30,-1
 -112 487 l 1,31,-1
 -95 487 l 1,32,-1
 -83 499 l 1,25,-1
EndSplineSet
Substitution: 0 65534 'L026' uni0E47.alt1
Substitution: 0 65534 'L026' uni0E47.alt1
EndChar
StartChar: uni0E48
Encoding: 3656 3656 279
Width: 0
Flags: W
Fore
-51 784 m 1,0,-1
 -51 640 l 1,1,-1
 -83 640 l 1,2,-1
 -83 784 l 1,3,-1
 -51 784 l 1,0,-1
EndSplineSet
Substitution: 0 65534 'L026' uni0E48.alt2
Substitution: 0 65534 'L026' uni0E48.alt2
EndChar
StartChar: uni0E49
Encoding: 3657 3657 280
Width: 0
Flags: W
Fore
25 767 m 1,0,1
 26 766 26 766 29.5 763 c 128,-1,2
 33 760 33 760 36.5 756.5 c 128,-1,3
 43.5 749.5 l 128,-1,4
 47 746 47 746 48 745 c 1,5,-1
 -50 641 l 1,6,-1
 -185 641 l 1,7,-1
 -185 671 l 1,8,-1
 -164 671 l 1,9,-1
 -155 680 l 1,10,-1
 -185 710 l 1,11,-1
 -185 753 l 1,12,-1
 -155 783 l 1,13,-1
 -111 783 l 1,14,-1
 -82 754 l 1,15,-1
 -82 710 l 1,16,-1
 -120 671 l 1,17,-1
 -71 671 l 1,18,-1
 25 767 l 1,0,1
-153 740 m 1,19,-1
 -153 723 l 1,20,-1
 -141 711 l 1,21,-1
 -124 711 l 1,22,-1
 -112 723 l 1,23,-1
 -112 740 l 1,24,-1
 -124 752 l 1,25,-1
 -141 752 l 1,26,-1
 -153 740 l 1,19,-1
EndSplineSet
Substitution: 0 65534 'L026' uni0E49.alt2
Substitution: 0 65534 'L026' uni0E49.alt2
EndChar
StartChar: uni0E4A
Encoding: 3658 3658 281
Width: 0
Flags: W
Fore
45 770 m 1,0,-1
 67 748 l 1,1,-1
 -41 640 l 1,2,-1
 -63 662 l 1,3,-1
 -28 697 l 1,4,-1
 -52 721 l 1,5,-1
 -111 663 l 1,6,-1
 -154 663 l 2,7,8
 -155 663 -155 663 -159.5 667.5 c 128,-1,9
 -164 672 -164 672 -169 677 c 2,10,-1
 -184 692 l 1,11,-1
 -184 736 l 1,12,-1
 -155 766 l 1,13,-1
 -111 766 l 1,14,-1
 -82 736 l 1,15,-1
 -52 766 l 1,16,-1
 -6 719 l 1,17,-1
 45 770 l 1,0,-1
-141 694 m 1,18,-1
 -124 694 l 1,19,-1
 -112 706 l 1,20,-1
 -112 723 l 1,21,-1
 -124 735 l 1,22,-1
 -141 735 l 1,23,-1
 -153 723 l 1,24,-1
 -153 706 l 1,25,-1
 -141 694 l 1,18,-1
EndSplineSet
Substitution: 0 65534 'L026' uni0E4A.alt2
Substitution: 0 65534 'L026' uni0E4A.alt2
EndChar
StartChar: uni0E4B
Encoding: 3659 3659 282
Width: 0
Flags: W
Fore
5 728 m 1,0,-1
 5 696 l 1,1,-1
 -51 696 l 1,2,-1
 -51 640 l 1,3,-1
 -83 640 l 1,4,-1
 -83 696 l 1,5,-1
 -139 696 l 1,6,-1
 -139 728 l 1,7,-1
 -83 728 l 1,8,-1
 -83 784 l 1,9,-1
 -51 784 l 1,10,-1
 -51 728 l 1,11,-1
 5 728 l 1,0,-1
EndSplineSet
Substitution: 0 65534 'L026' uni0E4B.alt2
Substitution: 0 65534 'L026' uni0E4B.alt2
EndChar
StartChar: uni0E4C
Encoding: 3660 3660 283
Width: 0
Flags: W
Fore
-51 661 m 1,0,-1
 -51 616 l 1,1,-1
 -82 584 l 1,2,-1
 -127 584 l 1,3,-1
 -159 616 l 1,4,-1
 -159 661 l 1,5,-1
 -37 783 l 1,6,-1
 -15 761 l 1,7,8
 -26 749 -26 749 -37 738 c 0,9,10
 -47 728 -47 728 -59.5 716 c 128,-1,11
 -72 704 -72 704 -83 692 c 1,12,-1
 -51 661 l 1,0,-1
-82 629 m 1,13,-1
 -82 648 l 1,14,-1
 -95 661 l 1,15,-1
 -114 661 l 1,16,-1
 -127 648 l 1,17,-1
 -127 629 l 1,18,-1
 -114 616 l 1,19,-1
 -95 616 l 1,20,-1
 -82 629 l 1,13,-1
EndSplineSet
Substitution: 0 65534 'L026' uni0E4C.alt2
Substitution: 0 65534 'L026' uni0E4C.alt2
EndChar
StartChar: uni0E4D
Encoding: 3661 3661 284
Width: 0
Flags: W
Fore
-139 581 m 1,0,-1
 -87 581 l 1,1,-1
 -50 544 l 1,2,-1
 -50 492 l 1,3,-1
 -87 455 l 1,4,-1
 -139 455 l 1,5,-1
 -176 492 l 1,6,-1
 -176 544 l 1,7,-1
 -139 581 l 1,0,-1
-81 505 m 1,8,-1
 -81 531 l 1,9,-1
 -100 550 l 1,10,-1
 -126 550 l 1,11,-1
 -144 531 l 1,12,-1
 -144 505 l 1,13,-1
 -126 487 l 1,14,-1
 -100 487 l 1,15,-1
 -81 505 l 1,8,-1
EndSplineSet
Substitution: 0 65534 'L026' uni0E4D.alt1
Substitution: 0 65534 'L026' uni0E4D.alt1
EndChar
StartChar: uni0E4E
Encoding: 3662 3662 285
Width: 0
Flags: W
Fore
-33 617 m 1,0,-1
 39 617 l 1,1,-1
 39 581 l 1,2,-1
 -18 581 l 1,3,-1
 -24 574 l 1,4,-1
 -24 518 l 1,5,-1
 -81 518 l 1,6,-1
 -87 511 l 1,7,-1
 -87 455 l 1,8,-1
 -123 455 l 1,9,-1
 -123 526 l 1,10,-1
 -95 554 l 1,11,-1
 -60 554 l 1,12,-1
 -60 589 l 1,13,-1
 -33 617 l 1,14,-1
 -33 617 l 1,0,-1
EndSplineSet
Substitution: 0 65534 'L026' uni0E4E.alt1
Substitution: 0 65534 'L026' uni0E4E.alt1
EndChar
StartChar: uni0E4F
Encoding: 3663 3663 286
Width: 353
Flags: W
Fore
193 198 m 1,0,-1
 230 161 l 1,1,-1
 230 109 l 1,2,-1
 193 72 l 1,3,-1
 141 72 l 1,4,-1
 105 108 l 1,5,-1
 105 162 l 1,6,-1
 141 198 l 1,7,-1
 193 198 l 1,0,-1
194 124 m 1,8,-1
 194 146 l 1,9,-1
 178 162 l 1,10,-1
 155 162 l 1,11,-1
 140 146 l 1,12,-1
 140 124 l 1,13,-1
 155 108 l 1,14,-1
 178 108 l 1,15,-1
 194 124 l 1,8,-1
220 270 m 1,16,-1
 302 188 l 1,17,-1
 302 81 l 1,18,-1
 220 0 l 1,19,-1
 112 0 l 1,20,-1
 32 81 l 1,21,-1
 32 189 l 1,22,-1
 113 270 l 1,23,-1
 220 270 l 1,16,-1
266 96 m 1,24,-1
 266 173 l 1,25,-1
 205 234 l 1,26,-1
 128 234 l 1,27,-1
 68 174 l 1,28,-1
 68 96 l 1,29,-1
 127 36 l 1,30,-1
 205 36 l 1,31,-1
 266 96 l 1,24,-1
EndSplineSet
EndChar
StartChar: uni0E50
Encoding: 3664 3664 287
Width: 389
Flags: W
Fore
284 288 m 1,0,-1
 338 233 l 1,1,-1
 338 54 l 1,2,-1
 284 0 l 1,3,-1
 86 0 l 1,4,-1
 32 54 l 1,5,-1
 32 234 l 1,6,-1
 86 287 l 1,7,-1
 284 288 l 1,0,-1
302 68 m 1,8,-1
 302 219 l 1,9,-1
 269 252 l 1,10,-1
 101 252 l 1,11,-1
 68 219 l 1,12,-1
 68 69 l 1,13,-1
 101 36 l 1,14,-1
 269 36 l 1,15,-1
 302 68 l 1,8,-1
EndSplineSet
EndChar
StartChar: uni0E51
Encoding: 3665 3665 288
Width: 390
Flags: W
Fore
285 287 m 1,0,-1
 339 233 l 1,1,-1
 339 18 l 1,2,-1
 285 -36 l 1,3,-1
 260 -11 l 1,4,-1
 303 32 l 1,5,-1
 303 218 l 1,6,-1
 270 251 l 1,7,-1
 102 251 l 1,8,-1
 69 219 l 1,9,-1
 69 69 l 1,10,-1
 102 36 l 1,11,-1
 106 36 l 1,12,-1
 105 37 l 1,13,-1
 105 89 l 1,14,-1
 142 126 l 1,15,-1
 194 126 l 1,16,-1
 231 89 l 1,17,-1
 231 37 l 1,18,-1
 194 0 l 1,19,-1
 87 0 l 1,20,-1
 33 54 l 1,21,-1
 33 233 l 1,22,-1
 87 287 l 1,23,-1
 285 287 l 1,0,-1
137 76 m 1,24,-1
 137 50 l 1,25,-1
 155 31 l 1,26,-1
 181 31 l 1,27,-1
 199 50 l 1,28,-1
 199 76 l 1,29,-1
 181 94 l 1,30,-1
 155 94 l 1,31,-1
 137 76 l 1,24,-1
EndSplineSet
EndChar
StartChar: uni0E52
Encoding: 3666 3666 289
Width: 461
Flags: W
Fore
356 287 m 1,0,-1
 410 233 l 1,1,-1
 410 54 l 1,2,-1
 356 0 l 1,3,-1
 86 0 l 1,4,-1
 32 54 l 1,5,-1
 32 341 l 1,6,-1
 68 341 l 1,7,-1
 68 69 l 1,8,-1
 101 36 l 1,9,-1
 341 36 l 1,10,-1
 374 69 l 1,11,-1
 374 218 l 1,12,-1
 341 251 l 1,13,-1
 329 251 l 1,14,-1
 275 197 l 1,15,-1
 221 251 l 1,16,-1
 191 251 l 1,17,-1
 158 218 l 1,18,-1
 158 214 l 1,19,-1
 159 215 l 1,20,-1
 211 215 l 1,21,-1
 248 179 l 1,22,-1
 248 126 l 1,23,-1
 211 89 l 1,24,-1
 159 89 l 1,25,-1
 122 126 l 1,26,-1
 122 233 l 1,27,-1
 176 287 l 1,28,-1
 236 287 l 1,29,-1
 275 248 l 1,30,-1
 314 287 l 1,31,-1
 356 287 l 1,0,-1
172 184 m 1,32,-1
 153 165 l 1,33,-1
 153 139 l 1,34,-1
 172 121 l 1,35,-1
 198 121 l 1,36,-1
 216 139 l 1,37,-1
 216 165 l 1,38,-1
 198 184 l 1,39,-1
 172 184 l 1,32,-1
EndSplineSet
EndChar
StartChar: uni0E53
Encoding: 3667 3667 290
Width: 443
Flags: W
Fore
338 287 m 1,0,-1
 392 233 l 1,1,-1
 392 0 l 1,2,-1
 356 0 l 1,3,-1
 356 219 l 1,4,-1
 323 251 l 1,5,-1
 280 251 l 1,6,-1
 248 219 l 1,7,-1
 248 0 l 1,8,-1
 212 0 l 1,9,-1
 212 219 l 1,10,-1
 180 251 l 1,11,-1
 101 251 l 1,12,-1
 68 218 l 1,13,-1
 68 125 l 1,14,-1
 69 126 l 1,15,-1
 121 126 l 1,16,-1
 158 89 l 1,17,-1
 158 37 l 1,18,-1
 121 0 l 1,19,-1
 69 0 l 1,20,-1
 32 37 l 1,21,-1
 32 233 l 1,22,-1
 86 287 l 1,23,-1
 194 287 l 1,24,-1
 230 251 l 1,25,-1
 266 287 l 1,26,-1
 338 287 l 1,0,-1
82 94 m 1,27,-1
 64 76 l 1,28,-1
 64 50 l 1,29,-1
 82 31 l 1,30,-1
 108 31 l 1,31,-1
 127 50 l 1,32,-1
 127 76 l 1,33,-1
 108 94 l 1,34,-1
 82 94 l 1,27,-1
EndSplineSet
EndChar
StartChar: uni0E54
Encoding: 3668 3668 291
Width: 407
Flags: W
Fore
258 36 m 1,0,-1
 356 36 l 1,1,-1
 356 0 l 1,2,-1
 86 0 l 1,3,-1
 32 54 l 1,4,-1
 32 233 l 1,5,-1
 86 287 l 1,6,-1
 313 287 l 1,7,-1
 367 341 l 1,8,-1
 392 316 l 1,9,-1
 328 251 l 1,10,-1
 101 251 l 1,11,-1
 68 218 l 1,12,-1
 68 69 l 1,13,-1
 101 36 l 1,14,-1
 213 36 l 1,15,-1
 140 109 l 1,16,-1
 140 161 l 1,17,-1
 177 198 l 1,18,-1
 229 198 l 1,19,-1
 266 161 l 1,20,-1
 266 109 l 1,21,-1
 229 72 l 1,22,-1
 222 72 l 1,23,-1
 258 36 l 1,0,-1
172 148 m 1,24,-1
 172 122 l 1,25,-1
 190 103 l 1,26,-1
 216 103 l 1,27,-1
 235 122 l 1,28,-1
 235 148 l 1,29,-1
 216 166 l 1,30,-1
 190 166 l 1,31,-1
 172 148 l 1,24,-1
EndSplineSet
EndChar
StartChar: uni0E55
Encoding: 3669 3669 292
Width: 407
Flags: W
Fore
258 36 m 1,0,-1
 357 36 l 1,1,-1
 357 0 l 1,2,-1
 87 0 l 1,3,-1
 33 54 l 1,4,-1
 33 233 l 1,5,-1
 87 287 l 1,6,-1
 142 287 l 1,7,-1
 141 288 l 1,8,-1
 141 340 l 1,9,-1
 178 377 l 1,10,-1
 230 377 l 1,11,-1
 267 340 l 1,12,-1
 267 288 l 1,13,-1
 266 287 l 1,14,-1
 313 287 l 1,15,-1
 368 342 l 1,16,-1
 393 316 l 1,17,-1
 328 251 l 1,18,-1
 102 251 l 1,19,-1
 69 219 l 1,20,-1
 69 69 l 1,21,-1
 102 36 l 1,22,-1
 214 36 l 1,23,-1
 141 109 l 1,24,-1
 141 161 l 1,25,-1
 178 198 l 1,26,-1
 230 198 l 1,27,-1
 267 161 l 1,28,-1
 267 109 l 1,29,-1
 230 72 l 1,30,-1
 222 72 l 1,31,-1
 258 36 l 1,0,-1
172 148 m 1,32,-1
 172 122 l 1,33,-1
 191 103 l 1,34,-1
 217 103 l 1,35,-1
 235 122 l 1,36,-1
 235 148 l 1,37,-1
 217 166 l 1,38,-1
 191 166 l 1,39,-1
 172 148 l 1,32,-1
172 301 m 1,40,-1
 186 287 l 1,41,-1
 221 287 l 1,42,-1
 235 301 l 1,43,-1
 235 327 l 1,44,-1
 217 346 l 1,45,-1
 191 346 l 1,46,-1
 172 327 l 1,47,-1
 172 301 l 1,40,-1
EndSplineSet
EndChar
StartChar: uni0E56
Encoding: 3670 3670 293
Width: 435
Flags: W
Fore
331 287 m 1,0,-1
 385 233 l 1,1,-1
 385 54 l 1,2,-1
 331 0 l 1,3,-1
 134 0 l 1,4,-1
 97 37 l 1,5,-1
 97 89 l 1,6,-1
 134 126 l 1,7,-1
 186 126 l 1,8,-1
 223 89 l 1,9,-1
 223 37 l 1,10,-1
 222 36 l 1,11,-1
 316 36 l 1,12,-1
 349 69 l 1,13,-1
 349 218 l 1,14,-1
 316 251 l 1,15,-1
 89 251 l 1,16,-1
 25 316 l 1,17,-1
 50 341 l 1,18,-1
 104 287 l 1,19,-1
 331 287 l 1,0,-1
147 31 m 1,20,-1
 173 31 l 1,21,-1
 191 50 l 1,22,-1
 191 76 l 1,23,-1
 173 94 l 1,24,-1
 147 94 l 1,25,-1
 128 76 l 1,26,-1
 128 50 l 1,27,-1
 147 31 l 1,20,-1
EndSplineSet
EndChar
StartChar: uni0E57
Encoding: 3671 3671 294
Width: 497
Flags: W
Fore
410 341 m 1,0,-1
 446 341 l 1,1,-1
 446 90 l 1,2,-1
 356 0 l 1,3,-1
 320 0 l 1,4,-1
 320 219 l 1,5,-1
 287 251 l 1,6,-1
 248 251 l 1,7,-1
 194 197 l 1,8,-1
 140 251 l 1,9,-1
 101 251 l 1,10,-1
 68 218 l 1,11,-1
 68 125 l 1,12,-1
 69 126 l 1,13,-1
 121 126 l 1,14,-1
 158 89 l 1,15,-1
 158 36 l 1,16,-1
 121 0 l 1,17,-1
 69 0 l 1,18,-1
 32 36 l 1,19,-1
 32 233 l 1,20,-1
 86 287 l 1,21,-1
 155 287 l 1,22,-1
 194 248 l 1,23,-1
 233 287 l 1,24,-1
 302 287 l 1,25,-1
 356 233 l 1,26,-1
 356 51 l 1,27,-1
 410 105 l 1,28,-1
 410 341 l 1,0,-1
82 94 m 1,29,-1
 64 76 l 1,30,-1
 64 50 l 1,31,-1
 82 31 l 1,32,-1
 108 31 l 1,33,-1
 127 50 l 1,34,-1
 127 76 l 1,35,-1
 108 94 l 1,36,-1
 82 94 l 1,29,-1
EndSplineSet
EndChar
StartChar: uni0E58
Encoding: 3672 3672 295
Width: 424
Flags: W
Fore
284 126 m 1,0,-1
 336 126 l 1,1,-1
 373 89 l 1,2,-1
 373 36 l 1,3,-1
 336 0 l 1,4,-1
 199 0 l 1,5,-1
 142 57 l 1,6,-1
 85 0 l 1,7,-1
 31 54 l 1,8,-1
 31 234 l 1,9,-1
 85 288 l 1,10,-1
 312 288 l 1,11,-1
 365 342 l 1,12,-1
 391 317 l 1,13,-1
 327 252 l 1,14,-1
 101 252 l 1,15,-1
 67 219 l 1,16,-1
 67 69 l 1,17,-1
 85 51 l 1,18,-1
 142 108 l 1,19,-1
 214 37 l 1,20,-1
 248 37 l 1,21,-1
 247 37 l 1,22,-1
 247 89 l 1,23,-1
 284 126 l 1,0,-1
341 50 m 1,24,-1
 341 76 l 1,25,-1
 323 95 l 1,26,-1
 297 95 l 1,27,-1
 278 76 l 1,28,-1
 278 50 l 1,29,-1
 297 32 l 1,30,-1
 323 32 l 1,31,-1
 341 50 l 1,24,-1
EndSplineSet
EndChar
StartChar: uni0E59
Encoding: 3673 3673 296
Width: 438
Flags: W
Fore
101 251 m 1,0,-1
 68 219 l 1,1,-1
 68 68 l 1,2,-1
 101 36 l 1,3,-1
 105 36 l 1,4,-1
 104 36 l 1,5,-1
 104 89 l 1,6,-1
 141 126 l 1,7,-1
 193 126 l 1,8,-1
 230 89 l 1,9,-1
 230 36 l 1,10,-1
 193 0 l 1,11,-1
 86 0 l 1,12,-1
 32 54 l 1,13,-1
 32 233 l 1,14,-1
 86 287 l 1,15,-1
 145 287 l 1,16,-1
 205 226 l 1,17,-1
 266 287 l 1,18,-1
 314 287 l 1,19,-1
 368 341 l 1,20,-1
 393 316 l 1,21,-1
 329 251 l 1,22,-1
 281 251 l 1,23,-1
 231 201 l 1,24,-1
 410 22 l 1,25,-1
 388 0 l 1,26,-1
 136 251 l 1,27,-1
 101 251 l 1,0,-1
136 76 m 1,28,-1
 136 50 l 1,29,-1
 154 31 l 1,30,-1
 180 31 l 1,31,-1
 199 50 l 1,32,-1
 199 76 l 1,33,-1
 180 94 l 1,34,-1
 154 94 l 1,35,-1
 136 76 l 1,28,-1
EndSplineSet
EndChar
StartChar: uni0E5A
Encoding: 3674 3674 297
Width: 447
Flags: W
Fore
360 395 m 1,0,-1
 396 395 l 1,1,-1
 396 0 l 1,2,-1
 360 0 l 1,3,-1
 360 323 l 1,4,-1
 306 269 l 1,5,-1
 270 269 l 1,6,-1
 270 0 l 1,7,-1
 234 0 l 1,8,-1
 234 323 l 1,9,-1
 180 269 l 1,10,-1
 55 269 l 1,11,-1
 18 306 l 1,12,-1
 18 358 l 1,13,-1
 55 395 l 1,14,-1
 107 395 l 1,15,-1
 144 358 l 1,16,-1
 144 306 l 1,17,-1
 143 305 l 1,18,-1
 165 305 l 1,19,-1
 234 374 l 1,20,-1
 234 395 l 1,21,-1
 270 395 l 1,22,-1
 270 305 l 1,23,-1
 291 305 l 1,24,-1
 360 374 l 1,25,-1
 360 395 l 1,0,-1
68 301 m 1,26,-1
 94 301 l 1,27,-1
 113 319 l 1,28,-1
 113 345 l 1,29,-1
 94 364 l 1,30,-1
 68 364 l 1,31,-1
 50 345 l 1,32,-1
 50 319 l 1,33,-1
 68 301 l 1,26,-1
EndSplineSet
EndChar
StartChar: uni0E5B
Encoding: 3675 3675 298
Width: 738
Flags: W
Fore
689 220 m 1,0,-1
 689 211 l 1,1,-1
 598 199 l 1,2,-1
 581 216 l 1,3,-1
 532 166 l 1,4,-1
 482 216 l 1,5,-1
 432 166 l 1,6,-1
 383 216 l 1,7,-1
 333 166 l 1,8,-1
 319 180 l 1,9,-1
 319 108 l 1,10,-1
 265 54 l 1,11,-1
 85 54 l 1,12,-1
 31 108 l 1,13,-1
 31 270 l 1,14,-1
 85 324 l 1,15,-1
 184 324 l 1,16,-1
 238 270 l 1,17,-1
 238 163 l 1,18,-1
 201 126 l 1,19,-1
 149 126 l 1,20,-1
 112 163 l 1,21,-1
 112 215 l 1,22,-1
 149 252 l 1,23,-1
 201 252 l 1,24,-1
 202 251 l 1,25,-1
 202 255 l 1,26,-1
 170 288 l 1,27,-1
 100 288 l 1,28,-1
 67 255 l 1,29,-1
 67 122 l 1,30,-1
 100 90 l 1,31,-1
 250 90 l 1,32,-1
 283 123 l 1,33,-1
 283 261 l 1,34,-1
 333 211 l 1,35,-1
 383 261 l 1,36,-1
 432 211 l 1,37,-1
 482 261 l 1,38,-1
 532 211 l 1,39,-1
 581 261 l 1,40,-1
 615 227 l 1,41,-1
 689 220 l 1,0,-1
207 176 m 1,42,-1
 207 202 l 1,43,-1
 188 220 l 1,44,-1
 162 220 l 1,45,-1
 144 202 l 1,46,-1
 144 176 l 1,47,-1
 162 157 l 1,48,-1
 188 157 l 1,49,-1
 207 176 l 1,42,-1
EndSplineSet
EndChar
StartChar: zerowidthnonjoiner
Encoding: 8204 8204 299
Width: 0
Flags: W
Fore
18 -308 m 1,0,-1
 -17 -308 l 1,1,-1
 -17 240 l 1,2,-1
 18 240 l 1,3,-1
 18 -308 l 1,0,-1
EndSplineSet
EndChar
StartChar: zerowidthjoiner
Encoding: 8205 8205 300
Width: 0
Flags: W
Fore
18 -308 m 1,0,-1
 -17 -308 l 1,1,-1
 -17 150 l 1,2,-1
 -37 129 l 1,3,-1
 -55 146 l 1,4,-1
 -17 184 l 1,5,-1
 -55 223 l 1,6,-1
 -37 240 l 1,7,-1
 0 202 l 1,8,-1
 38 240 l 1,9,-1
 56 223 l 1,10,-1
 18 184 l 1,11,-1
 56 146 l 1,12,-1
 38 129 l 1,13,-1
 18 150 l 1,14,-1
 18 -308 l 1,0,-1
EndSplineSet
EndChar
StartChar: lefttorightmark
Encoding: 8206 8206 301
Width: 0
Flags: W
Fore
18 -308 m 1,0,-1
 -17 -308 l 1,1,-1
 -17 204 l 1,2,-1
 117 204 l 1,3,-1
 100 222 l 1,4,-1
 116 239 l 1,5,-1
 169 186 l 1,6,-1
 116 133 l 1,7,-1
 100 151 l 1,8,-1
 117 168 l 1,9,-1
 18 168 l 1,10,-1
 18 -308 l 1,0,-1
EndSplineSet
EndChar
StartChar: righttoleftmark
Encoding: 8207 8207 302
Width: 0
Flags: W
Fore
18 -308 m 1,0,-1
 -17 -308 l 1,1,-1
 -17 168 l 1,2,-1
 -116 168 l 1,3,-1
 -99 151 l 1,4,-1
 -115 133 l 1,5,-1
 -168 186 l 1,6,-1
 -115 239 l 1,7,-1
 -99 222 l 1,8,-1
 -116 204 l 1,9,-1
 18 204 l 1,10,-1
 18 -308 l 1,0,-1
EndSplineSet
EndChar
StartChar: endash
Encoding: 8211 8211 303
Width: 335
Flags: W
Fore
284 198 m 1,0,-1
 33 198 l 1,1,-1
 33 234 l 1,2,-1
 284 234 l 1,3,-1
 284 198 l 1,4,-1
 284 198 l 1,0,-1
EndSplineSet
EndChar
StartChar: emdash
Encoding: 8212 8212 304
Width: 513
Flags: W
Fore
462 234 m 1,0,-1
 462 198 l 1,1,-1
 31 198 l 1,2,-1
 31 234 l 1,3,-1
 462 234 l 1,4,-1
 462 234 l 1,0,-1
EndSplineSet
EndChar
StartChar: quoteleft
Encoding: 8216 8216 305
Width: 152
Flags: W
Fore
30 345 m 1,0,-1
 30 379 l 1,1,-1
 84 450 l 1,2,-1
 102 450 l 1,3,-1
 75 396 l 1,4,-1
 80 396 l 1,5,-1
 102 375 l 1,6,-1
 102 345 l 1,7,-1
 80 324 l 1,8,-1
 51 324 l 1,9,-1
 30 345 l 1,0,-1
EndSplineSet
EndChar
StartChar: quoteright
Encoding: 8217 8217 306
Width: 152
Flags: W
Fore
102 429 m 1,0,-1
 102 396 l 1,1,-1
 48 324 l 1,2,-1
 30 324 l 1,3,-1
 57 378 l 1,4,-1
 51 378 l 1,5,-1
 30 399 l 1,6,-1
 30 429 l 1,7,-1
 51 450 l 1,8,-1
 81 450 l 1,9,-1
 102 429 l 1,0,-1
EndSplineSet
EndChar
StartChar: quotesinglbase
Encoding: 8218 8218 307
Width: 151
Flags: W
Fore
101 50 m 1,0,-1
 101 17 l 1,1,-1
 47 -54 l 1,2,-1
 29 -54 l 1,3,-1
 56 0 l 1,4,-1
 50 0 l 1,5,-1
 29 21 l 1,6,-1
 29 50 l 1,7,-1
 50 72 l 1,8,-1
 80 72 l 1,9,-1
 101 50 l 1,0,-1
EndSplineSet
EndChar
StartChar: quotedblleft
Encoding: 8220 8220 308
Width: 259
Flags: W
Fore
74 395 m 1,0,-1
 79 395 l 1,1,-1
 101 374 l 1,2,-1
 101 345 l 1,3,-1
 79 323 l 1,4,-1
 50 323 l 1,5,-1
 29 345 l 1,6,-1
 29 378 l 1,7,-1
 83 449 l 1,8,-1
 101 449 l 1,9,-1
 74 395 l 1,0,-1
187 395 m 1,10,-1
 208 374 l 1,11,-1
 208 345 l 1,12,-1
 187 323 l 1,13,-1
 158 323 l 1,14,-1
 136 345 l 1,15,-1
 136 378 l 1,16,-1
 190 449 l 1,17,-1
 208 449 l 1,18,-1
 181 395 l 1,19,-1
 187 395 l 1,10,-1
EndSplineSet
EndChar
StartChar: quotedblright
Encoding: 8221 8221 309
Width: 259
Flags: W
Fore
187 450 m 1,0,-1
 208 429 l 1,1,-1
 208 395 l 1,2,-1
 154 324 l 1,3,-1
 136 324 l 1,4,-1
 163 378 l 1,5,-1
 157 378 l 1,6,-1
 136 399 l 1,7,-1
 136 429 l 1,8,-1
 157 450 l 1,9,-1
 187 450 l 1,0,-1
49 450 m 1,10,-1
 79 450 l 1,11,-1
 100 429 l 1,12,-1
 100 395 l 1,13,-1
 46 324 l 1,14,-1
 28 324 l 1,15,-1
 55 378 l 1,16,-1
 49 378 l 1,17,-1
 28 399 l 1,18,-1
 28 429 l 1,19,-1
 49 450 l 1,10,-1
EndSplineSet
EndChar
StartChar: quotedblbase
Encoding: 8222 8222 310
Width: 260
Flags: W
Fore
50 72 m 1,0,-1
 80 72 l 1,1,-1
 101 50 l 1,2,-1
 101 17 l 1,3,-1
 47 -54 l 1,4,-1
 29 -54 l 1,5,-1
 56 0 l 1,6,-1
 50 0 l 1,7,-1
 29 21 l 1,8,-1
 29 50 l 1,9,-1
 50 72 l 1,0,-1
188 72 m 1,10,-1
 209 50 l 1,11,-1
 209 17 l 1,12,-1
 155 -54 l 1,13,-1
 137 -54 l 1,14,-1
 164 0 l 1,15,-1
 158 0 l 1,16,-1
 137 21 l 1,17,-1
 137 50 l 1,18,-1
 158 72 l 1,19,-1
 188 72 l 1,10,-1
EndSplineSet
EndChar
StartChar: dagger
Encoding: 8224 8224 311
Width: 318
Flags: W
Fore
169 287 m 1,0,-1
 268 287 l 1,1,-1
 268 251 l 1,2,-1
 169 251 l 1,3,-1
 169 -126 l 1,4,-1
 133 -126 l 1,5,-1
 133 251 l 1,6,-1
 34 251 l 1,7,-1
 34 287 l 1,8,-1
 133 287 l 1,9,-1
 133 395 l 1,10,-1
 169 395 l 1,11,-1
 169 287 l 1,0,-1
EndSplineSet
EndChar
StartChar: daggerdbl
Encoding: 8225 8225 312
Width: 318
Flags: W
Fore
266 251 m 1,0,-1
 168 251 l 1,1,-1
 168 143 l 1,2,-1
 266 143 l 1,3,-1
 266 107 l 1,4,-1
 168 107 l 1,5,-1
 168 -126 l 1,6,-1
 132 -126 l 1,7,-1
 132 107 l 1,8,-1
 33 107 l 1,9,-1
 33 143 l 1,10,-1
 132 143 l 1,11,-1
 132 251 l 1,12,-1
 33 251 l 1,13,-1
 33 287 l 1,14,-1
 132 287 l 1,15,-1
 132 395 l 1,16,-1
 168 395 l 1,17,-1
 168 287 l 1,18,-1
 266 287 l 1,19,-1
 266 251 l 1,0,-1
EndSplineSet
EndChar
StartChar: bullet
Encoding: 8226 8226 313
Width: 225
Flags: W
Fore
175 245 m 1,0,-1
 175 186 l 1,1,-1
 133 144 l 1,2,-1
 73 144 l 1,3,-1
 31 186 l 1,4,-1
 31 245 l 1,5,-1
 73 288 l 1,6,-1
 133 288 l 1,7,-1
 175 245 l 1,8,-1
 175 245 l 1,0,-1
EndSplineSet
EndChar
StartChar: ellipsis
Encoding: 8230 8230 314
Width: 475
Flags: W
Fore
50 72 m 1,0,-1
 80 72 l 1,1,-1
 101 50 l 1,2,-1
 101 21 l 1,3,-1
 80 0 l 1,4,-1
 50 0 l 1,5,-1
 29 21 l 1,6,-1
 29 50 l 1,7,-1
 50 72 l 1,0,-1
212 72 m 1,8,-1
 242 72 l 1,9,-1
 263 50 l 1,10,-1
 263 21 l 1,11,-1
 242 0 l 1,12,-1
 212 0 l 1,13,-1
 191 21 l 1,14,-1
 191 50 l 1,15,-1
 212 72 l 1,8,-1
404 72 m 1,16,-1
 425 50 l 1,17,-1
 425 21 l 1,18,-1
 404 0 l 1,19,-1
 374 0 l 1,20,-1
 353 21 l 1,21,-1
 353 50 l 1,22,-1
 374 72 l 1,23,-1
 404 72 l 1,16,-1
EndSplineSet
EndChar
StartChar: perthousand
Encoding: 8240 8240 315
Width: 588
Flags: W
Fore
141 234 m 1,0,-1
 71 234 l 1,1,-1
 34 271 l 1,2,-1
 34 359 l 1,3,-1
 71 396 l 1,4,-1
 141 396 l 1,5,-1
 178 359 l 1,6,-1
 178 271 l 1,7,-1
 141 234 l 1,0,-1
66 346 m 1,8,-1
 66 284 l 1,9,-1
 84 266 l 1,10,-1
 128 266 l 1,11,-1
 147 284 l 1,12,-1
 147 346 l 1,13,-1
 128 365 l 1,14,-1
 84 365 l 1,15,-1
 66 346 l 1,8,-1
251 198 m 1,16,-1
 321 198 l 1,17,-1
 358 161 l 1,18,-1
 358 73 l 1,19,-1
 321 36 l 1,20,-1
 251 36 l 1,21,-1
 214 73 l 1,22,-1
 214 161 l 1,23,-1
 251 198 l 1,16,-1
327 86 m 1,24,-1
 327 148 l 1,25,-1
 308 167 l 1,26,-1
 264 167 l 1,27,-1
 246 148 l 1,28,-1
 246 86 l 1,29,-1
 264 68 l 1,30,-1
 308 68 l 1,31,-1
 327 86 l 1,24,-1
501 198 m 1,32,-1
 538 161 l 1,33,-1
 538 73 l 1,34,-1
 501 36 l 1,35,-1
 431 36 l 1,36,-1
 394 73 l 1,37,-1
 394 161 l 1,38,-1
 431 198 l 1,39,-1
 501 198 l 1,32,-1
506 86 m 1,40,-1
 506 148 l 1,41,-1
 488 167 l 1,42,-1
 444 167 l 1,43,-1
 425 148 l 1,44,-1
 425 86 l 1,45,-1
 444 68 l 1,46,-1
 488 68 l 1,47,-1
 506 86 l 1,40,-1
300 432 m 1,48,-1
 341 432 l 1,49,-1
 93 0 l 1,50,-1
 52 0 l 1,51,-1
 300 432 l 1,48,-1
EndSplineSet
EndChar
StartChar: minute
Encoding: 8242 8242 316
Width: 138
Flags: W
Fore
33 340 m 1,0,-1
 51 430 l 1,1,-1
 87 430 l 1,2,-1
 51 340 l 1,3,-1
 33 340 l 1,0,-1
EndSplineSet
EndChar
StartChar: second
Encoding: 8243 8243 317
Width: 193
Flags: W
Fore
33 341 m 1,0,-1
 51 431 l 1,1,-1
 87 431 l 1,2,-1
 51 341 l 1,3,-1
 33 341 l 1,0,-1
105 431 m 1,4,-1
 141 431 l 1,5,-1
 105 341 l 1,6,-1
 87 341 l 1,7,-1
 105 431 l 1,4,-1
EndSplineSet
EndChar
StartChar: guilsinglleft
Encoding: 8249 8249 318
Width: 191
Flags: W
Fore
141 234 m 1,0,-1
 69 168 l 1,1,-1
 69 163 l 1,2,-1
 141 97 l 1,3,-1
 141 49 l 1,4,-1
 33 148 l 1,5,-1
 33 184 l 1,6,-1
 141 282 l 1,7,-1
 141 234 l 1,0,-1
EndSplineSet
EndChar
StartChar: guilsinglright
Encoding: 8250 8250 319
Width: 191
Flags: W
Fore
33 282 m 1,0,-1
 141 183 l 1,1,-1
 141 147 l 1,2,-1
 33 49 l 1,3,-1
 33 97 l 1,4,-1
 105 163 l 1,5,-1
 105 167 l 1,6,-1
 33 234 l 1,7,-1
 33 282 l 1,0,-1
EndSplineSet
EndChar
StartChar: fraction
Encoding: 8260 8260 320
Width: 371
Flags: W
Fore
278 431 m 1,0,-1
 320 431 l 1,1,-1
 72 0 l 1,2,-1
 31 0 l 1,3,-1
 278 431 l 1,0,-1
EndSplineSet
EndChar
StartChar: Euro
Encoding: 8364 8364 321
Width: 443
Flags: W
Fore
392 341 m 1,0,-1
 356 341 l 1,1,-1
 356 362 l 1,2,-1
 323 395 l 1,3,-1
 137 395 l 1,4,-1
 104 362 l 1,5,-1
 104 287 l 1,6,-1
 302 287 l 1,7,-1
 302 251 l 1,8,-1
 104 251 l 1,9,-1
 104 179 l 1,10,-1
 302 179 l 1,11,-1
 302 143 l 1,12,-1
 104 143 l 1,13,-1
 104 68 l 1,14,-1
 137 36 l 1,15,-1
 323 36 l 1,16,-1
 356 68 l 1,17,-1
 356 89 l 1,18,-1
 392 89 l 1,19,-1
 392 54 l 1,20,-1
 338 0 l 1,21,-1
 122 0 l 1,22,-1
 68 53 l 1,23,-1
 68 143 l 1,24,-1
 32 143 l 1,25,-1
 32 179 l 1,26,-1
 68 179 l 1,27,-1
 68 251 l 1,28,-1
 32 251 l 1,29,-1
 32 287 l 1,30,-1
 68 287 l 1,31,-1
 68 377 l 1,32,-1
 122 431 l 1,33,-1
 338 431 l 1,34,-1
 392 377 l 1,35,-1
 392 341 l 1,0,-1
EndSplineSet
EndChar
StartChar: uni2113
Encoding: 8467 8467 322
Width: 246
Flags: W
Fore
138 36 m 1,0,-1
 195 36 l 1,1,-1
 195 0 l 1,2,-1
 123 0 l 1,3,-1
 69 54 l 1,4,-1
 69 144 l 1,5,-1
 52 127 l 1,6,-1
 26 152 l 1,7,-1
 69 195 l 1,8,-1
 69 432 l 1,9,-1
 123 432 l 1,10,-1
 177 378 l 1,11,-1
 177 252 l 1,12,-1
 105 180 l 1,13,-1
 105 69 l 1,14,-1
 138 36 l 1,0,-1
105 396 m 1,15,-1
 105 231 l 1,16,-1
 141 267 l 1,17,-1
 141 363 l 1,18,-1
 108 396 l 1,19,-1
 105 396 l 1,15,-1
EndSplineSet
EndChar
StartChar: trademark
Encoding: 8482 8482 323
Width: 550
Flags: W
Fore
499 431 m 1,0,-1
 499 184 l 1,1,-1
 468 184 l 1,2,3
 468 186 468 186 467.5 212 c 128,-1,4
 467 238 467 238 467 270 c 2,5,-1
 467 354 l 1,6,7
 447 306 447 306 430 269 c 0,8,9
 422 253 422 253 415.5 238 c 128,-1,10
 409 223 409 223 404 211 c 0,11,12
 398 197 398 197 392 184 c 1,13,-1
 359 184 l 1,14,15
 355.5 191.5 l 130,-1,16
 352 199 352 199 346.5 211 c 128,-1,17
 341 223 341 223 334.5 238.5 c 128,-1,18
 328 254 328 254 321 270 c 2,19,-1
 283 356 l 1,20,-1
 283 184 l 1,21,-1
 252 184 l 1,22,-1
 252 431 l 1,23,-1
 284 431 l 1,24,25
 288 421.5 l 130,-1,26
 292 412 292 412 298.5 397.5 c 128,-1,27
 305 383 305 383 313 364.5 c 128,-1,28
 321 346 321 346 330 327 c 0,29,30
 350 281 350 281 376 224 c 1,31,32
 401 281 401 281 421 327 c 0,33,34
 430 346 430 346 438 365 c 128,-1,35
 446 384 446 384 452.5 398.5 c 128,-1,36
 459 413 459 413 463 422 c 128,-1,37
 467 430 467 430 467 431 c 1,38,-1
 499 431 l 1,0,-1
211 431 m 1,39,-1
 211 400 l 1,40,-1
 139 400 l 1,41,-1
 139 184 l 1,42,-1
 108 184 l 1,43,-1
 108 400 l 1,44,-1
 36 400 l 1,45,-1
 36 431 l 1,46,-1
 211 431 l 1,39,-1
EndSplineSet
EndChar
StartChar: Ohm
Encoding: 8486 8486 324
Width: 426
Flags: W
Fore
285 36 m 1,0,-1
 375 36 l 1,1,-1
 375 0 l 1,2,-1
 249 0 l 1,3,-1
 249 87 l 1,4,-1
 321 159 l 1,5,-1
 321 327 l 1,6,-1
 288 360 l 1,7,-1
 120 360 l 1,8,-1
 87 327 l 1,9,-1
 87 159 l 1,10,-1
 159 87 l 1,11,-1
 159 0 l 1,12,-1
 33 0 l 1,13,-1
 33 36 l 1,14,-1
 123 36 l 1,15,-1
 123 72 l 1,16,-1
 51 144 l 1,17,-1
 51 342 l 1,18,-1
 105 396 l 1,19,-1
 303 396 l 1,20,-1
 357 342 l 1,21,-1
 357 144 l 1,22,-1
 285 72 l 1,23,-1
 285 36 l 1,0,-1
EndSplineSet
EndChar
StartChar: estimated
Encoding: 8494 8494 325
Width: 227
Flags: W
Fore
175 162 m 1,0,-1
 67 162 l 1,1,-1
 67 69 l 1,2,-1
 100 36 l 1,3,-1
 106 36 l 1,4,-1
 139 69 l 1,5,-1
 139 90 l 1,6,-1
 175 90 l 1,7,-1
 175 54 l 1,8,-1
 121 0 l 1,9,-1
 85 0 l 1,10,-1
 32 54 l 1,11,-1
 31 288 l 1,12,-1
 85 342 l 1,13,-1
 122 342 l 1,14,-1
 175 288 l 1,15,-1
 175 162 l 1,0,-1
67 198 m 1,16,-1
 139 198 l 1,17,-1
 139 273 l 1,18,-1
 107 306 l 1,19,-1
 100 306 l 1,20,-1
 67 273 l 1,21,-1
 67 198 l 1,16,-1
EndSplineSet
EndChar
StartChar: partialdiff
Encoding: 8706 8706 326
Width: 226
Flags: W
Fore
176 288 m 1,0,-1
 176 54 l 1,1,-1
 122 0 l 1,2,-1
 86 0 l 1,3,-1
 32 54 l 1,4,-1
 32 162 l 1,5,-1
 86 216 l 1,6,-1
 140 216 l 1,7,-1
 140 273 l 1,8,-1
 107 306 l 1,9,-1
 101 306 l 1,10,-1
 68 273 l 1,11,-1
 68 252 l 1,12,-1
 32 252 l 1,13,-1
 32 288 l 1,14,-1
 86 342 l 1,15,-1
 122 342 l 1,16,-1
 176 288 l 1,0,-1
107 36 m 1,17,-1
 140 69 l 1,18,-1
 140 180 l 1,19,-1
 101 180 l 1,20,-1
 68 147 l 1,21,-1
 68 69 l 1,22,-1
 101 36 l 1,23,-1
 107 36 l 1,17,-1
EndSplineSet
EndChar
StartChar: Delta
Encoding: 8710 8710 327
Width: 422
Flags: W
Fore
227 324 m 1,0,-1
 371 36 l 1,1,-1
 371 0 l 1,2,-1
 29 0 l 1,3,-1
 29 36 l 1,4,-1
 173 324 l 1,5,-1
 227 324 l 1,0,-1
69 36 m 1,6,-1
 330 36 l 1,7,-1
 205 288 l 1,8,-1
 195 288 l 1,9,-1
 69 36 l 1,6,-1
EndSplineSet
EndChar
StartChar: product
Encoding: 8719 8719 328
Width: 390
Flags: W
Fore
70 -126 m 1,0,-1
 34 -126 l 1,1,-1
 34 432 l 1,2,-1
 340 432 l 1,3,-1
 340 -126 l 1,4,-1
 304 -126 l 1,5,-1
 304 396 l 1,6,-1
 70 396 l 1,7,-1
 70 -126 l 1,8,-1
 70 -126 l 1,0,-1
EndSplineSet
EndChar
StartChar: summation
Encoding: 8721 8721 329
Width: 371
Flags: W
Fore
320 396 m 1,0,-1
 68 396 l 1,1,-1
 68 356 l 1,2,-1
 201 216 l 1,3,-1
 68 76 l 1,4,-1
 68 36 l 1,5,-1
 320 36 l 1,6,-1
 320 0 l 1,7,-1
 32 0 l 1,8,-1
 32 90 l 1,9,-1
 151 216 l 1,10,-1
 32 342 l 1,11,-1
 32 432 l 1,12,-1
 320 432 l 1,13,-1
 320 396 l 1,0,-1
EndSplineSet
EndChar
StartChar: minus
Encoding: 8722 8722 330
Width: 405
Flags: W
Fore
354 196 m 1,0,-1
 31 196 l 1,1,-1
 31 232 l 1,2,-1
 354 232 l 1,3,-1
 354 196 l 1,4,-1
 354 196 l 1,0,-1
EndSplineSet
EndChar
StartChar: radical
Encoding: 8730 8730 331
Width: 392
Flags: W
Fore
303 432 m 1,0,-1
 341 432 l 1,1,-1
 179 0 l 1,2,-1
 142 0 l 1,3,-1
 88 144 l 1,4,-1
 34 144 l 1,5,-1
 34 180 l 1,6,-1
 113 180 l 1,7,-1
 160 54 l 1,8,-1
 303 432 l 1,0,-1
EndSplineSet
EndChar
StartChar: infinity
Encoding: 8734 8734 332
Width: 550
Flags: W
Fore
418 332 m 1,0,-1
 499 251 l 1,1,-1
 499 179 l 1,2,-1
 418 98 l 1,3,-1
 337 98 l 1,4,-1
 265 187 l 1,5,-1
 193 98 l 1,6,-1
 112 98 l 1,7,-1
 31 179 l 1,8,-1
 31 251 l 1,9,-1
 112 332 l 1,10,-1
 193 332 l 1,11,-1
 265 244 l 1,12,-1
 337 332 l 1,13,-1
 418 332 l 1,0,-1
176 134 m 1,14,-1
 242 215 l 1,15,-1
 176 296 l 1,16,-1
 127 296 l 1,17,-1
 67 236 l 1,18,-1
 67 194 l 1,19,-1
 127 134 l 1,20,-1
 176 134 l 1,14,-1
463 194 m 1,21,-1
 463 237 l 1,22,-1
 404 296 l 1,23,-1
 354 296 l 1,24,-1
 288 215 l 1,25,-1
 354 134 l 1,26,-1
 403 134 l 1,27,-1
 463 194 l 1,21,-1
EndSplineSet
EndChar
StartChar: integral
Encoding: 8747 8747 333
Width: 337
Flags: W
Fore
233 396 m 1,0,-1
 194 363 l 1,1,-1
 128 54 l 1,2,-1
 62 0 l 1,3,-1
 0 0 l 1,4,-1
 0 36 l 1,5,-1
 55 36 l 1,6,-1
 95 69 l 1,7,-1
 161 378 l 1,8,-1
 226 432 l 1,9,-1
 288 432 l 1,10,-1
 288 396 l 1,11,-1
 233 396 l 1,0,-1
EndSplineSet
EndChar
StartChar: approxequal
Encoding: 8776 8776 334
Width: 398
Flags: W
Fore
113 265 m 1,0,-1
 48 228 l 1,1,-1
 30 259 l 1,2,-1
 108 304 l 1,3,-1
 265 262 l 1,4,-1
 330 300 l 1,5,-1
 348 269 l 1,6,-1
 270 223 l 1,7,-1
 113 265 l 1,0,-1
265 163 m 1,8,-1
 330 201 l 1,9,-1
 348 169 l 1,10,-1
 270 124 l 1,11,-1
 113 166 l 1,12,-1
 48 128 l 1,13,-1
 30 159 l 1,14,-1
 108 205 l 1,15,-1
 265 163 l 1,8,-1
EndSplineSet
EndChar
StartChar: notequal
Encoding: 8800 8800 335
Width: 298
Flags: W
Fore
248 225 m 1,0,-1
 161 225 l 1,1,-1
 143 144 l 1,2,-1
 248 144 l 1,3,-1
 248 108 l 1,4,-1
 136 108 l 1,5,-1
 113 0 l 1,6,-1
 77 0 l 1,7,-1
 100 108 l 1,8,-1
 32 108 l 1,9,-1
 32 144 l 1,10,-1
 107 144 l 1,11,-1
 125 225 l 1,12,-1
 32 225 l 1,13,-1
 32 261 l 1,14,-1
 132 261 l 1,15,-1
 153 360 l 1,16,-1
 189 360 l 1,17,-1
 168 261 l 1,18,-1
 248 261 l 1,19,-1
 248 225 l 1,0,-1
EndSplineSet
EndChar
StartChar: lessequal
Encoding: 8804 8804 336
Width: 405
Flags: W
Fore
30 0 m 1,0,-1
 30 36 l 1,1,-1
 354 36 l 1,2,-1
 354 0 l 1,3,-1
 30 0 l 1,0,-1
354 321 m 1,4,-1
 66 217 l 1,5,-1
 66 214 l 1,6,-1
 354 110 l 1,7,-1
 354 72 l 1,8,-1
 30 189 l 1,9,-1
 30 243 l 1,10,-1
 354 360 l 1,11,-1
 354 321 l 1,4,-1
EndSplineSet
EndChar
StartChar: greaterequal
Encoding: 8805 8805 337
Width: 404
Flags: W
Fore
30 0 m 1,0,-1
 30 36 l 1,1,-1
 354 36 l 1,2,-1
 354 0 l 1,3,-1
 30 0 l 1,0,-1
30 360 m 1,4,-1
 354 243 l 1,5,-1
 354 189 l 1,6,-1
 30 72 l 1,7,-1
 30 110 l 1,8,-1
 318 214 l 1,9,-1
 318 217 l 1,10,-1
 30 321 l 1,11,-1
 30 360 l 1,4,-1
EndSplineSet
EndChar
StartChar: lozenge
Encoding: 9674 9674 338
Width: 341
Flags: W
Fore
185 414 m 1,0,-1
 288 207 l 1,1,-1
 185 0 l 1,2,-1
 131 0 l 1,3,-1
 28 207 l 1,4,-1
 131 414 l 1,5,-1
 185 414 l 1,0,-1
163 36 m 1,6,-1
 248 207 l 1,7,-1
 163 378 l 1,8,-1
 153 378 l 1,9,-1
 68 207 l 1,10,-1
 153 36 l 1,11,-1
 163 36 l 1,6,-1
EndSplineSet
EndChar
StartChar: dottedcircle
Encoding: 9676 9676 339
Width: 512
Flags: W
Fore
231 432 m 1,0,-1
 261 432 l 1,1,-1
 282 411 l 1,2,-1
 282 381 l 1,3,-1
 261 360 l 1,4,-1
 231 360 l 1,5,-1
 210 381 l 1,6,-1
 210 411 l 1,7,-1
 231 432 l 1,0,-1
231 72 m 1,8,-1
 261 72 l 1,9,-1
 282 51 l 1,10,-1
 282 21 l 1,11,-1
 261 0 l 1,12,-1
 231 0 l 1,13,-1
 210 21 l 1,14,-1
 210 51 l 1,15,-1
 231 72 l 1,8,-1
102 231 m 1,16,-1
 102 201 l 1,17,-1
 81 180 l 1,18,-1
 51 180 l 1,19,-1
 30 201 l 1,20,-1
 30 231 l 1,21,-1
 51 252 l 1,22,-1
 81 252 l 1,23,-1
 102 231 l 1,16,-1
441 252 m 1,24,-1
 462 231 l 1,25,-1
 462 201 l 1,26,-1
 441 180 l 1,27,-1
 411 180 l 1,28,-1
 390 201 l 1,29,-1
 390 231 l 1,30,-1
 411 252 l 1,31,-1
 441 252 l 1,24,-1
134 125 m 1,32,-1
 155 104 l 1,33,-1
 155 74 l 1,34,-1
 134 53 l 1,35,-1
 104 53 l 1,36,-1
 83 74 l 1,37,-1
 83 104 l 1,38,-1
 104 125 l 1,39,-1
 134 125 l 1,32,-1
358 307 m 1,40,-1
 337 328 l 1,41,-1
 337 358 l 1,42,-1
 358 379 l 1,43,-1
 388 379 l 1,44,-1
 409 358 l 1,45,-1
 409 328 l 1,46,-1
 388 307 l 1,47,-1
 358 307 l 1,40,-1
358 125 m 1,48,-1
 388 125 l 1,49,-1
 409 104 l 1,50,-1
 409 74 l 1,51,-1
 388 53 l 1,52,-1
 358 53 l 1,53,-1
 337 74 l 1,54,-1
 337 104 l 1,55,-1
 358 125 l 1,48,-1
104 379 m 1,56,-1
 134 379 l 1,57,-1
 155 358 l 1,58,-1
 155 328 l 1,59,-1
 134 307 l 1,60,-1
 104 307 l 1,61,-1
 83 328 l 1,62,-1
 83 358 l 1,63,-1
 104 379 l 1,56,-1
EndSplineSet
EndChar
StartChar: uni0E10.alt1
Encoding: 63232 63232 340
Width: 371
Flags: W
Fore
284 143 m 1,0,-1
 284 246 l 1,1,-1
 32 305 l 1,2,-1
 32 341 l 1,3,-1
 86 395 l 1,4,-1
 320 395 l 1,5,-1
 320 359 l 1,6,-1
 101 359 l 1,7,-1
 70 329 l 1,8,-1
 320 270 l 1,9,-1
 320 0 l 1,10,-1
 284 0 l 1,11,-1
 284 98 l 1,12,-1
 230 152 l 1,13,-1
 230 144 l 1,14,-1
 193 108 l 1,15,-1
 141 108 l 1,16,-1
 104 144 l 1,17,-1
 104 197 l 1,18,-1
 141 233 l 1,19,-1
 193 233 l 1,20,-1
 284 143 l 1,0,-1
199 157 m 1,21,-1
 199 183 l 1,22,-1
 180 202 l 1,23,-1
 154 202 l 1,24,-1
 136 184 l 1,25,-1
 136 157 l 1,26,-1
 154 139 l 1,27,-1
 180 139 l 1,28,-1
 199 157 l 1,21,-1
EndSplineSet
EndChar
StartChar: uni0E34.alt1
Encoding: 63233 63233 341
Width: 0
Flags: W
Fore
-182 563 m 1,0,-1
 -128 509 l 1,1,-1
 -128 455 l 1,2,-1
 -415 455 l 1,3,-1
 -415 509 l 1,4,-1
 -362 563 l 1,5,-1
 -182 563 l 1,0,-1
-384 486 m 1,6,-1
 -159 486 l 1,7,-1
 -159 496 l 1,8,9
 -167 504 -167 504 -176.5 513.5 c 128,-1,10
 -186 523 -186 523 -195 531 c 1,11,-1
 -349 531 l 1,12,-1
 -384 496 l 1,13,-1
 -384 486 l 1,6,-1
EndSplineSet
EndChar
StartChar: uni0E35.alt1
Encoding: 63234 63234 342
Width: 0
Flags: W
Fore
-160 617 m 1,0,-1
 -128 617 l 1,1,-1
 -128 455 l 1,2,-1
 -416 455 l 1,3,-1
 -416 510 l 1,4,-1
 -362 563 l 1,5,-1
 -182 563 l 1,6,-1
 -160 541 l 1,7,-1
 -160 617 l 1,0,-1
-385 487 m 1,8,-1
 -160 487 l 1,9,-1
 -160 496 l 1,10,11
 -168 505 -168 505 -177.5 514.5 c 128,-1,12
 -187 524 -187 524 -195 532 c 1,13,-1
 -349 532 l 1,14,15
 -357 524 -357 524 -366.5 514.5 c 128,-1,16
 -376 505 -376 505 -385 497 c 1,17,-1
 -385 487 l 1,8,-1
EndSplineSet
EndChar
StartChar: uni0E36.alt1
Encoding: 63235 63235 343
Width: 0
Flags: W
Fore
-96 541 m 1,0,-1
 -128 509 l 1,1,-1
 -128 455 l 1,2,-1
 -415 455 l 1,3,-1
 -415 510 l 1,4,-1
 -362 563 l 1,5,-1
 -204 563 l 1,6,-1
 -204 586 l 1,7,-1
 -172 617 l 1,8,-1
 -128 617 l 1,9,-1
 -96 585 l 1,10,-1
 -96 541 l 1,0,-1
-159 497 m 1,11,12
 -167 505 -167 505 -176.5 514.5 c 128,-1,13
 -186 524 -186 524 -195 532 c 1,14,-1
 -349 532 l 1,15,-1
 -384 497 l 1,16,-1
 -384 487 l 1,17,-1
 -159 487 l 1,18,-1
 -159 497 l 1,11,12
-141 541 m 1,19,-1
 -128 554 l 1,20,-1
 -128 573 l 1,21,-1
 -141 586 l 1,22,-1
 -159 586 l 1,23,-1
 -173 573 l 1,24,-1
 -173 554 l 1,25,26
 -169 551 -169 551 -166 548 c 128,-1,27
 -163 545 -163 545 -159 541 c 1,28,-1
 -141 541 l 1,19,-1
EndSplineSet
EndChar
StartChar: uni0E37.alt1
Encoding: 63236 63236 344
Width: 0
Flags: W
Fore
-159 617 m 1,0,-1
 -128 617 l 1,1,-1
 -128 455 l 1,2,-1
 -416 455 l 1,3,-1
 -416 510 l 1,4,-1
 -362 563 l 1,5,-1
 -231 563 l 1,6,-1
 -231 617 l 1,7,-1
 -200 617 l 1,8,-1
 -200 563 l 1,9,-1
 -182 563 l 1,10,-1
 -159 541 l 1,11,-1
 -159 617 l 1,0,-1
-384 487 m 1,12,-1
 -159 487 l 1,13,-1
 -159 497 l 1,14,15
 -167 505 -167 505 -177 514.5 c 128,-1,16
 -187 524 -187 524 -195 532 c 1,17,-1
 -349 532 l 1,18,-1
 -384 497 l 1,19,-1
 -384 487 l 1,12,-1
EndSplineSet
EndChar
StartChar: uni0E48.alt1
Encoding: 63237 63237 345
Width: 0
Flags: W
Fore
-128 599 m 1,0,-1
 -128 455 l 1,1,-1
 -160 455 l 1,2,-1
 -160 599 l 1,3,-1
 -128 599 l 1,0,-1
EndSplineSet
Substitution: 0 65534 'L026' uni0E48.alt3
Substitution: 0 65534 'L026' uni0E48.alt3
EndChar
StartChar: uni0E49.alt1
Encoding: 63238 63238 346
Width: 0
Flags: W
Fore
-129 583 m 1,0,-1
 -107 561 l 1,1,-1
 -213 455 l 1,2,-1
 -339 455 l 1,3,-1
 -339 487 l 1,4,-1
 -318 487 l 1,5,-1
 -309 496 l 1,6,-1
 -339 526 l 1,7,-1
 -339 569 l 1,8,-1
 -309 598 l 1,9,-1
 -265 599 l 1,10,-1
 -236 569 l 1,11,-1
 -236 526 l 1,12,-1
 -274 487 l 1,13,-1
 -225 487 l 1,14,-1
 -129 583 l 1,0,-1
-308 556 m 1,15,-1
 -308 539 l 1,16,17
 -304 536 -304 536 -301.5 533 c 128,-1,18
 -299 530 -299 530 -296 527 c 1,19,-1
 -279 527 l 1,20,-1
 -267 539 l 1,21,-1
 -267 556 l 1,22,-1
 -279 568 l 1,23,-1
 -296 568 l 1,24,-1
 -308 556 l 1,15,-1
EndSplineSet
Substitution: 0 65534 'L026' uni0E49.alt3
Substitution: 0 65534 'L026' uni0E49.alt3
EndChar
StartChar: uni0E4A.alt1
Encoding: 63239 63239 347
Width: 0
Flags: W
Fore
-128 586 m 1,0,-1
 -106 563 l 1,1,-1
 -214 455 l 1,2,-1
 -236 478 l 1,3,-1
 -201 513 l 1,4,-1
 -225 537 l 1,5,-1
 -284 479 l 1,6,-1
 -327 479 l 2,7,8
 -328 479 -328 479 -332.5 483.5 c 128,-1,9
 -337 488 -337 488 -342 493 c 0,10,11
 -348 499 -348 499 -357 507 c 1,12,-1
 -357 552 l 1,13,-1
 -328 582 l 1,14,-1
 -284 582 l 1,15,-1
 -255 552 l 1,16,-1
 -225 581 l 1,17,-1
 -179 535 l 1,18,-1
 -128 586 l 1,0,-1
-314 509 m 1,19,-1
 -297 509 l 1,20,21
 -297 511 -297 511 -285 521 c 1,22,-1
 -285 538 l 1,23,-1
 -297 550 l 1,24,-1
 -314 550 l 1,25,-1
 -326 538 l 1,26,-1
 -326 521 l 1,27,-1
 -314 509 l 1,19,-1
EndSplineSet
Substitution: 0 65534 'L026' uni0E4A.alt3
Substitution: 0 65534 'L026' uni0E4A.alt3
EndChar
StartChar: uni0E4B.alt1
Encoding: 63240 63240 348
Width: 0
Flags: W
Fore
-128 543 m 1,0,-1
 -128 511 l 1,1,-1
 -184 511 l 1,2,-1
 -184 455 l 1,3,-1
 -216 455 l 1,4,-1
 -216 511 l 1,5,-1
 -272 511 l 1,6,-1
 -272 543 l 1,7,-1
 -216 543 l 1,8,-1
 -216 599 l 1,9,-1
 -184 599 l 1,10,-1
 -184 543 l 1,11,-1
 -128 543 l 1,0,-1
EndSplineSet
Substitution: 0 65534 'L026' uni0E4B.alt3
Substitution: 0 65534 'L026' uni0E4B.alt3
EndChar
StartChar: uni0E4C.alt1
Encoding: 63241 63241 349
Width: 0
Flags: W
Fore
-127 531 m 1,0,-1
 -127 487 l 1,1,-1
 -158 455 l 1,2,-1
 -203 455 l 1,3,-1
 -235 486 l 1,4,-1
 -235 531 l 1,5,-1
 -113 653 l 1,6,-1
 -91 631 l 1,7,-1
 -113 609 l 2,8,9
 -123 599 -123 599 -135.5 587 c 128,-1,10
 -148 575 -148 575 -159 563 c 1,11,-1
 -127 531 l 1,0,-1
-158 500 m 1,12,-1
 -158 518 l 1,13,-1
 -172 531 l 1,14,-1
 -190 531 l 1,15,-1
 -203 518 l 1,16,-1
 -203 500 l 1,17,-1
 -190 486 l 1,18,-1
 -172 486 l 1,19,-1
 -158 500 l 1,12,-1
EndSplineSet
Substitution: 0 65534 'L026' uni0E4C.alt3
Substitution: 0 65534 'L026' uni0E4C.alt3
EndChar
StartChar: uni0E48.alt2
Encoding: 63242 63242 350
Width: 0
Flags: W
Fore
-51 599 m 1,0,-1
 -51 455 l 1,1,-1
 -82 455 l 1,2,-1
 -82 599 l 1,3,-1
 -51 599 l 1,0,-1
EndSplineSet
Substitution: 0 65534 'L028' uni0E48.alt3
Substitution: 0 65534 'L027' uni0E48
Substitution: 0 65534 'L026' uni0E48.alt1
Substitution: 0 65534 'L028' uni0E48.alt3
Substitution: 0 65534 'L027' uni0E48
Substitution: 0 65534 'L026' uni0E48.alt1
EndChar
StartChar: uni0E49.alt2
Encoding: 63243 63243 351
Width: 0
Flags: W
Fore
34 583 m 1,0,-1
 57 560 l 1,1,-1
 -50 455 l 1,2,-1
 -176 455 l 1,3,-1
 -176 486 l 1,4,-1
 -155 486 l 1,5,-1
 -152 489 l 2,6,7
 -150 491 -150 491 -149 492.5 c 128,-1,8
 -148 494 -148 494 -146 496 c 1,9,-1
 -176 525 l 1,10,-1
 -176 568 l 1,11,-1
 -146 598 l 1,12,-1
 -102 598 l 1,13,-1
 -72 569 l 1,14,-1
 -72 525 l 1,15,-1
 -111 486 l 1,16,-1
 -62 486 l 1,17,-1
 34 583 l 1,0,-1
-144 555 m 1,18,-1
 -144 538 l 1,19,-1
 -132 526 l 1,20,-1
 -115 526 l 1,21,-1
 -103 538 l 1,22,-1
 -103 555 l 1,23,-1
 -115 567 l 1,24,-1
 -132 567 l 1,25,-1
 -144 555 l 1,18,-1
EndSplineSet
Substitution: 0 65534 'L028' uni0E49.alt3
Substitution: 0 65534 'L027' uni0E49
Substitution: 0 65534 'L026' uni0E49.alt1
Substitution: 0 65534 'L028' uni0E49.alt3
Substitution: 0 65534 'L027' uni0E49
Substitution: 0 65534 'L026' uni0E49.alt1
EndChar
StartChar: uni0E4A.alt2
Encoding: 63244 63244 352
Width: 0
Flags: W
Fore
46 585 m 1,0,-1
 68 563 l 1,1,-1
 -40 454 l 1,2,-1
 -62 477 l 1,3,-1
 -27 512 l 1,4,-1
 -51 536 l 1,5,-1
 -110 478 l 1,6,-1
 -154 478 l 1,7,-1
 -183 507 l 1,8,-1
 -183 551 l 1,9,-1
 -154 581 l 1,10,-1
 -110 581 l 1,11,-1
 -81 551 l 1,12,-1
 -51 580 l 1,13,-1
 -5 534 l 1,14,-1
 46 585 l 1,0,-1
-141 508 m 1,15,-1
 -123 508 l 1,16,17
 -123 509 -123 509 -120 512 c 128,-1,18
 -117 515 -117 515 -112 520 c 1,19,-1
 -112 537 l 1,20,-1
 -124 549 l 1,21,-1
 -141 549 l 1,22,-1
 -153 537 l 1,23,-1
 -153 520 l 1,24,-1
 -141 508 l 1,15,-1
EndSplineSet
Substitution: 0 65534 'L028' uni0E4A.alt3
Substitution: 0 65534 'L027' uni0E4A
Substitution: 0 65534 'L026' uni0E4A.alt1
Substitution: 0 65534 'L028' uni0E4A.alt3
Substitution: 0 65534 'L027' uni0E4A
Substitution: 0 65534 'L026' uni0E4A.alt1
EndChar
StartChar: uni0E4B.alt2
Encoding: 63245 63245 353
Width: 0
Flags: W
Fore
6 543 m 1,0,-1
 6 511 l 1,1,-1
 -50 511 l 1,2,-1
 -50 455 l 1,3,-1
 -82 455 l 1,4,-1
 -82 511 l 1,5,-1
 -138 511 l 1,6,-1
 -138 543 l 1,7,-1
 -82 543 l 1,8,-1
 -82 599 l 1,9,-1
 -50 599 l 1,10,-1
 -50 543 l 1,11,-1
 6 543 l 1,0,-1
EndSplineSet
Substitution: 0 65534 'L028' uni0E4B.alt3
Substitution: 0 65534 'L027' uni0E4B
Substitution: 0 65534 'L026' uni0E4B.alt1
Substitution: 0 65534 'L028' uni0E4B.alt3
Substitution: 0 65534 'L027' uni0E4B
Substitution: 0 65534 'L026' uni0E4B.alt1
EndChar
StartChar: uni0E4C.alt2
Encoding: 63246 63246 354
Width: 0
Flags: W
Fore
-51 531 m 1,0,-1
 -51 486 l 1,1,-1
 -82 455 l 1,2,-1
 -127 455 l 1,3,-1
 -159 486 l 1,4,-1
 -159 531 l 1,5,-1
 -37 653 l 1,6,-1
 -15 631 l 1,7,-1
 -83 563 l 1,8,-1
 -51 531 l 1,0,-1
-82 499 m 1,9,-1
 -82 518 l 1,10,-1
 -96 531 l 1,11,-1
 -114 531 l 1,12,-1
 -127 518 l 1,13,-1
 -127 499 l 1,14,-1
 -114 486 l 1,15,-1
 -96 486 l 1,16,-1
 -82 499 l 1,9,-1
EndSplineSet
Substitution: 0 65534 'L028' uni0E4C.alt3
Substitution: 0 65534 'L027' uni0E4C
Substitution: 0 65534 'L026' uni0E4C.alt1
Substitution: 0 65534 'L028' uni0E4C.alt3
Substitution: 0 65534 'L027' uni0E4C
Substitution: 0 65534 'L026' uni0E4C.alt1
EndChar
StartChar: uni0E0D.alt1
Encoding: 63247 63247 355
Width: 570
Flags: W
Fore
482 396 m 1,0,-1
 518 396 l 1,1,-1
 518 54 l 1,2,-1
 464 0 l 1,3,-1
 302 0 l 1,4,-1
 302 327 l 1,5,-1
 269 360 l 1,6,-1
 101 360 l 1,7,-1
 83 342 l 1,8,-1
 140 284 l 1,9,-1
 86 230 l 1,10,-1
 86 125 l 1,11,-1
 87 126 l 1,12,-1
 139 126 l 1,13,-1
 176 89 l 1,14,-1
 176 37 l 1,15,-1
 139 0 l 1,16,-1
 87 0 l 1,17,-1
 50 37 l 1,18,-1
 50 245 l 1,19,-1
 89 284 l 1,20,-1
 32 342 l 1,21,-1
 86 396 l 1,22,-1
 284 396 l 1,23,-1
 338 342 l 1,24,-1
 338 36 l 1,25,-1
 449 36 l 1,26,-1
 482 69 l 1,27,-1
 482 396 l 1,0,-1
100 94 m 1,28,-1
 82 76 l 1,29,-1
 82 50 l 1,30,-1
 100 31 l 1,31,-1
 126 31 l 1,32,-1
 145 50 l 1,33,-1
 145 76 l 1,34,-1
 126 94 l 1,35,-1
 100 94 l 1,28,-1
EndSplineSet
EndChar
StartChar: uni0E31.alt1
Encoding: 63248 63248 356
Width: 0
Flags: W
Fore
-128 545 m 1,0,-1
 -106 523 l 1,1,2
 -123 506 -123 506 -140.5 489 c 128,-1,3
 -158 472 -158 472 -175 455 c 1,4,-1
 -366 455 l 1,5,-1
 -398 486 l 1,6,-1
 -398 531 l 1,7,-1
 -366 563 l 1,8,-1
 -322 563 l 1,9,-1
 -290 531 l 1,10,-1
 -290 487 l 1,11,-1
 -187 487 l 1,12,-1
 -128 545 l 1,0,-1
-353 486 m 1,13,-1
 -335 486 l 1,14,-1
 -321 500 l 1,15,-1
 -321 518 l 1,16,-1
 -335 531 l 1,17,-1
 -353 531 l 1,18,-1
 -366 518 l 1,19,-1
 -366 500 l 1,20,-1
 -353 486 l 1,13,-1
EndSplineSet
EndChar
StartChar: uni0E4D.alt1
Encoding: 63249 63249 357
Width: 0
Flags: W
Fore
-217 581 m 1,0,-1
 -165 581 l 1,1,-1
 -128 544 l 1,2,-1
 -128 492 l 1,3,-1
 -165 455 l 1,4,-1
 -217 455 l 1,5,-1
 -254 492 l 1,6,-1
 -254 544 l 1,7,-1
 -217 581 l 1,0,-1
-160 505 m 1,8,-1
 -160 531 l 1,9,-1
 -178 550 l 1,10,-1
 -204 550 l 1,11,-1
 -223 531 l 1,12,-1
 -223 505 l 1,13,-1
 -204 487 l 1,14,-1
 -178 487 l 1,15,-1
 -160 505 l 1,8,-1
EndSplineSet
EndChar
StartChar: uni0E47.alt1
Encoding: 63250 63250 358
Width: 0
Flags: W
Fore
-160 559 m 1,0,1
 -160 558 -160 558 -155.5 553.5 c 128,-1,2
 -151 549 -151 549 -145 544 c 2,3,-1
 -129 530 l 1,4,-1
 -129 486 l 1,5,-1
 -159 455 l 1,6,-1
 -255 455 l 1,7,-1
 -282 483 l 1,8,-1
 -310 455 l 1,9,-1
 -345 455 l 1,10,-1
 -345 546 l 1,11,-1
 -292 599 l 1,12,-1
 -179 599 l 1,13,-1
 -142 636 l 1,14,-1
 -120 613 l 1,15,-1
 -141 592 l 2,16,17
 -149 584 -149 584 -156.5 577 c 128,-1,18
 -164 570 -164 570 -166 568 c 1,19,-1
 -278 568 l 1,20,-1
 -314 532 l 1,21,-1
 -314 496 l 1,22,-1
 -301 509 l 2,23,24
 -296 514 -296 514 -290.5 519.5 c 128,-1,25
 -285 525 -285 525 -282 527 c 1,26,-1
 -242 487 l 1,27,-1
 -234 487 l 1,28,-1
 -234 529 l 1,29,-1
 -204 559 l 1,30,-1
 -160 559 l 1,0,1
-161 499 m 1,31,-1
 -161 516 l 1,32,-1
 -173 528 l 1,33,-1
 -190 528 l 1,34,-1
 -202 516 l 1,35,-1
 -202 499 l 1,36,-1
 -190 487 l 1,37,-1
 -173 487 l 1,38,-1
 -161 499 l 1,31,-1
EndSplineSet
EndChar
StartChar: uni0E48.alt3
Encoding: 63251 63251 359
Width: 0
Flags: W
Fore
-128 784 m 1,0,-1
 -128 640 l 1,1,-1
 -160 640 l 1,2,-1
 -160 784 l 1,3,-1
 -128 784 l 1,0,-1
EndSplineSet
EndChar
StartChar: uni0E49.alt3
Encoding: 63252 63252 360
Width: 0
Flags: W
Fore
-44 768 m 1,0,1
 -43 767 -43 767 -40 763.5 c 128,-1,2
 -37 760 -37 760 -33.5 756.5 c 128,-1,3
 -26.5 749.5 l 128,-1,4
 -23 746 -23 746 -22 745 c 1,5,-1
 -129 640 l 1,6,-1
 -255 640 l 1,7,-1
 -255 671 l 1,8,-1
 -234 671 l 1,9,-1
 -225 680 l 1,10,-1
 -255 710 l 1,11,-1
 -255 753 l 1,12,-1
 -225 783 l 1,13,-1
 -181 783 l 1,14,-1
 -151 754 l 1,15,-1
 -151 710 l 1,16,-1
 -189 671 l 1,17,-1
 -141 671 l 1,18,-1
 -44 768 l 1,0,1
-223 740 m 1,19,-1
 -223 723 l 1,20,-1
 -211 711 l 1,21,-1
 -194 711 l 1,22,-1
 -182 723 l 1,23,-1
 -182 740 l 1,24,-1
 -194 752 l 1,25,-1
 -211 752 l 1,26,-1
 -223 740 l 1,19,-1
EndSplineSet
EndChar
StartChar: uni0E4A.alt3
Encoding: 63253 63253 361
Width: 0
Flags: W
Fore
-32 770 m 1,0,-1
 -10 748 l 1,1,-1
 -118 640 l 1,2,-1
 -140 662 l 1,3,-1
 -105 697 l 1,4,-1
 -129 721 l 1,5,-1
 -188 663 l 1,6,-1
 -232 663 l 1,7,-1
 -261 692 l 1,8,-1
 -261 736 l 1,9,-1
 -232 766 l 1,10,-1
 -189 766 l 1,11,-1
 -159 736 l 1,12,-1
 -129 766 l 1,13,-1
 -83 719 l 1,14,-1
 -32 770 l 1,0,-1
-219 693 m 1,15,-1
 -201 693 l 1,16,17
 -200 695 -200 695 -198 697 c 2,18,-1
 -190 705 l 1,19,-1
 -190 722 l 1,20,-1
 -202 734 l 1,21,-1
 -219 734 l 1,22,-1
 -231 722 l 1,23,-1
 -231 705 l 1,24,-1
 -219 693 l 1,15,-1
EndSplineSet
EndChar
StartChar: uni0E4B.alt3
Encoding: 63254 63254 362
Width: 0
Flags: W
Fore
-72 728 m 1,0,-1
 -72 696 l 1,1,-1
 -128 696 l 1,2,-1
 -128 640 l 1,3,-1
 -160 640 l 1,4,-1
 -160 696 l 1,5,-1
 -216 696 l 1,6,-1
 -216 728 l 1,7,-1
 -160 728 l 1,8,-1
 -160 784 l 1,9,-1
 -128 784 l 1,10,-1
 -128 728 l 1,11,-1
 -72 728 l 1,0,-1
EndSplineSet
EndChar
StartChar: uni0E4C.alt3
Encoding: 63255 63255 363
Width: 0
Flags: W
Fore
-128 661 m 1,0,-1
 -128 616 l 1,1,-1
 -160 584 l 1,2,-1
 -205 584 l 1,3,-1
 -236 616 l 1,4,-1
 -236 661 l 1,5,-1
 -115 783 l 1,6,-1
 -93 761 l 1,7,8
 -104 749 -104 749 -115 738 c 2,9,-1
 -161 692 l 1,10,-1
 -160 692 l 1,11,-1
 -128 661 l 1,0,-1
-160 629 m 1,12,-1
 -160 648 l 1,13,-1
 -173 661 l 1,14,-1
 -192 661 l 1,15,-1
 -205 648 l 1,16,-1
 -205 629 l 1,17,-1
 -192 616 l 1,18,-1
 -173 616 l 1,19,-1
 -160 629 l 1,12,-1
EndSplineSet
EndChar
StartChar: uni0E38.alt1
Encoding: 63256 63256 364
Width: 0
Flags: W
Fore
-51 -241 m 1,0,-1
 -51 -407 l 1,1,-1
 -87 -407 l 1,2,-1
 -87 -317 l 1,3,-1
 -127 -317 l 1,4,-1
 -159 -285 l 1,5,-1
 -159 -241 l 1,6,-1
 -127 -209 l 1,7,-1
 -83 -209 l 1,8,-1
 -51 -241 l 1,0,-1
-114 -286 m 1,9,-1
 -96 -286 l 1,10,-1
 -82 -272 l 1,11,-1
 -82 -254 l 1,12,-1
 -96 -241 l 1,13,-1
 -114 -241 l 1,14,-1
 -127 -254 l 1,15,-1
 -127 -272 l 1,16,-1
 -114 -286 l 1,9,-1
EndSplineSet
EndChar
StartChar: uni0E39.alt1
Encoding: 63257 63257 365
Width: 0
Flags: W
Fore
-87 -208 m 1,0,-1
 -51 -208 l 1,1,-1
 -51 -406 l 1,2,-1
 -177 -406 l 1,3,-1
 -177 -316 l 1,4,-1
 -217 -316 l 1,5,-1
 -249 -284 l 1,6,-1
 -249 -239 l 1,7,-1
 -217 -208 l 1,8,-1
 -172 -208 l 1,9,-1
 -141 -240 l 1,10,-1
 -141 -370 l 1,11,-1
 -87 -370 l 1,12,-1
 -87 -208 l 1,0,-1
-204 -284 m 1,13,-1
 -186 -284 l 1,14,-1
 -172 -271 l 1,15,-1
 -172 -252 l 1,16,-1
 -186 -239 l 1,17,-1
 -204 -239 l 1,18,-1
 -217 -252 l 1,19,-1
 -217 -271 l 1,20,-1
 -204 -284 l 1,13,-1
EndSplineSet
EndChar
StartChar: uni0E3A.alt1
Encoding: 63258 63258 366
Width: 0
Flags: W
Fore
-51 -229 m 1,0,-1
 -51 -258 l 1,1,-1
 -72 -280 l 1,2,-1
 -101 -280 l 1,3,-1
 -122 -258 l 1,4,-1
 -122 -229 l 1,5,-1
 -101 -208 l 1,6,-1
 -72 -208 l 1,7,-1
 -51 -229 l 1,0,-1
EndSplineSet
EndChar
StartChar: uni0E0E.alt1
Encoding: 63259 63259 367
Width: 448
Flags: W
Fore
397 342 m 1,0,-1
 397 -180 l 1,1,-1
 361 -180 l 1,2,-1
 324 -142 l 1,3,-1
 286 -180 l 1,4,-1
 145 -180 l 1,5,-1
 109 -144 l 1,6,-1
 109 -90 l 1,7,-1
 145 -54 l 1,8,-1
 286 -54 l 1,9,-1
 361 -129 l 1,10,-1
 361 327 l 1,11,-1
 328 360 l 1,12,-1
 160 360 l 1,13,-1
 142 342 l 1,14,-1
 199 285 l 1,15,-1
 145 231 l 1,16,-1
 145 37 l 1,17,-1
 108 0 l 1,18,-1
 56 0 l 1,19,-1
 19 37 l 1,20,-1
 19 89 l 1,21,-1
 56 126 l 1,22,-1
 108 126 l 1,23,-1
 109 125 l 1,24,-1
 109 245 l 1,25,-1
 148 285 l 1,26,-1
 91 342 l 1,27,-1
 145 396 l 1,28,-1
 343 396 l 1,29,-1
 397 342 l 1,0,-1
114 76 m 1,30,-1
 95 94 l 1,31,-1
 69 94 l 1,32,-1
 51 76 l 1,33,-1
 51 50 l 1,34,-1
 69 31 l 1,35,-1
 95 31 l 1,36,-1
 114 50 l 1,37,-1
 114 76 l 1,30,-1
298 -117 m 1,38,-1
 271 -90 l 1,39,-1
 160 -90 l 1,40,-1
 145 -105 l 1,41,-1
 145 -129 l 1,42,-1
 160 -144 l 1,43,-1
 271 -144 l 1,44,-1
 298 -117 l 1,38,-1
EndSplineSet
EndChar
StartChar: uni0E0F.alt1
Encoding: 63260 63260 368
Width: 447
Flags: W
Fore
397 342 m 1,0,-1
 397 -179 l 1,1,-1
 360 -179 l 1,2,-1
 323 -142 l 1,3,-1
 285 -180 l 1,4,-1
 248 -142 l 1,5,-1
 210 -179 l 1,6,-1
 145 -179 l 1,7,-1
 109 -143 l 1,8,-1
 109 -89 l 1,9,-1
 145 -54 l 1,10,-1
 210 -54 l 1,11,-1
 285 -129 l 1,12,-1
 323 -91 l 1,13,-1
 361 -129 l 1,14,-1
 361 327 l 1,15,-1
 328 360 l 1,16,-1
 160 360 l 1,17,-1
 142 342 l 1,18,-1
 199 285 l 1,19,-1
 145 231 l 1,20,-1
 145 37 l 1,21,-1
 108 0 l 1,22,-1
 56 0 l 1,23,-1
 19 37 l 1,24,-1
 19 89 l 1,25,-1
 56 126 l 1,26,-1
 108 126 l 1,27,-1
 109 125 l 1,28,-1
 109 246 l 1,29,-1
 148 285 l 1,30,-1
 91 342 l 1,31,-1
 145 396 l 1,32,-1
 343 396 l 1,33,-1
 397 342 l 1,0,-1
113 76 m 1,34,-1
 95 95 l 1,35,-1
 69 95 l 1,36,-1
 50 76 l 1,37,-1
 50 50 l 1,38,-1
 69 32 l 1,39,-1
 95 32 l 1,40,-1
 113 50 l 1,41,-1
 113 76 l 1,34,-1
222 -116 m 1,42,-1
 195 -89 l 1,43,-1
 160 -89 l 1,44,-1
 145 -104 l 1,45,-1
 145 -128 l 1,46,-1
 160 -143 l 1,47,-1
 195 -143 l 1,48,-1
 222 -116 l 1,42,-1
EndSplineSet
EndChar
StartChar: uni0E2C.alt1
Encoding: 63261 63261 369
Width: 447
Flags: W
Fore
442 415 m 1,0,-1
 465 393 l 1,1,-1
 397 325 l 1,2,-1
 397 0 l 1,3,-1
 361 0 l 1,4,-1
 253 189 l 1,5,-1
 145 0 l 1,6,-1
 109 0 l 1,7,-1
 109 271 l 1,8,-1
 108 270 l 1,9,-1
 56 270 l 1,10,-1
 19 307 l 1,11,-1
 19 359 l 1,12,-1
 56 396 l 1,13,-1
 108 396 l 1,14,-1
 145 359 l 1,15,-1
 145 64 l 1,16,-1
 253 252 l 1,17,-1
 361 64 l 1,18,-1
 361 289 l 1,19,-1
 360 288 l 1,20,-1
 308 288 l 1,21,-1
 271 325 l 1,22,-1
 271 377 l 1,23,-1
 308 414 l 1,24,-1
 360 414 l 1,25,-1
 397 377 l 1,26,-1
 397 369 l 1,27,-1
 442 415 l 1,0,-1
95 302 m 1,28,-1
 114 320 l 1,29,-1
 114 346 l 1,30,-1
 95 365 l 1,31,-1
 69 365 l 1,32,-1
 51 346 l 1,33,-1
 51 320 l 1,34,-1
 69 302 l 1,35,-1
 95 302 l 1,28,-1
347 320 m 1,36,-1
 365 338 l 1,37,-1
 365 364 l 1,38,-1
 347 383 l 1,39,-1
 321 383 l 1,40,-1
 302 364 l 1,41,-1
 302 338 l 1,42,-1
 321 320 l 1,43,-1
 347 320 l 1,36,-1
EndSplineSet
EndChar
StartChar: uni0E24.liga
Encoding: 63617 63617 371
Width: 622
Flags: W
Fore
518 396 m 1,0,-1
 571 342 l 1,1,-1
 571 -180 l 1,2,-1
 535 -180 l 1,3,-1
 535 327 l 1,4,-1
 503 360 l 1,5,-1
 371 360 l 1,6,-1
 338 327 l 1,7,-1
 338 -180 l 1,8,-1
 302 -180 l 1,9,-1
 302 327 l 1,10,-1
 269 360 l 1,11,-1
 101 360 l 1,12,-1
 83 341 l 1,13,-1
 140 284 l 1,14,-1
 86 230 l 1,15,-1
 86 125 l 1,16,-1
 87 126 l 1,17,-1
 139 126 l 1,18,-1
 176 89 l 1,19,-1
 176 37 l 1,20,-1
 139 0 l 1,21,-1
 87 0 l 1,22,-1
 50 37 l 1,23,-1
 50 245 l 1,24,-1
 89 284 l 1,25,-1
 32 342 l 1,26,-1
 86 396 l 1,27,-1
 284 396 l 1,28,-1
 320 360 l 1,29,-1
 356 396 l 1,30,-1
 518 396 l 1,0,-1
100 94 m 1,31,-1
 81 76 l 1,32,-1
 81 50 l 1,33,-1
 100 31 l 1,34,-1
 126 31 l 1,35,-1
 144 50 l 1,36,-1
 144 76 l 1,37,-1
 126 94 l 1,38,-1
 100 94 l 1,31,-1
EndSplineSet
Ligature: 0 0 'liga' uni0E24 uni0E45
Ligature: 0 0 'liga' uni0E24 uni0E32
EndChar
StartChar: uni0E26.liga
Encoding: 63618 63618 372
Width: 681
Flags: W
Fore
576 396 m 1,0,-1
 630 342 l 1,1,-1
 630 -180 l 1,2,-1
 594 -180 l 1,3,-1
 594 327 l 1,4,-1
 561 360 l 1,5,-1
 429 360 l 1,6,-1
 396 327 l 1,7,-1
 396 -180 l 1,8,-1
 360 -180 l 1,9,-1
 360 327 l 1,10,-1
 328 360 l 1,11,-1
 159 360 l 1,12,-1
 141 342 l 1,13,-1
 198 285 l 1,14,-1
 144 231 l 1,15,-1
 144 37 l 1,16,-1
 108 0 l 1,17,-1
 55 0 l 1,18,-1
 19 37 l 1,19,-1
 19 89 l 1,20,-1
 55 126 l 1,21,-1
 108 126 l 1,22,-1
 109 125 l 1,23,-1
 109 246 l 1,24,-1
 148 285 l 1,25,-1
 91 342 l 1,26,-1
 145 396 l 1,27,-1
 342 396 l 1,28,-1
 378 360 l 1,29,-1
 414 396 l 1,30,-1
 576 396 l 1,0,-1
113 50 m 1,31,-1
 113 76 l 1,32,-1
 95 95 l 1,33,-1
 68 95 l 1,34,-1
 50 76 l 1,35,-1
 50 50 l 1,36,-1
 68 32 l 1,37,-1
 95 32 l 1,38,-1
 113 50 l 1,31,-1
EndSplineSet
Ligature: 0 0 'liga' uni0E26 uni0E45
Ligature: 0 0 'liga' uni0E26 uni0E32
EndChar
StartChar: fi
Encoding: 64257 64257 373
Width: 245
Flags: W
Fore
68 270 m 1,0,-1
 194 270 l 1,1,-1
 194 0 l 1,2,-1
 158 0 l 1,3,-1
 158 234 l 1,4,-1
 68 234 l 1,5,-1
 68 0 l 1,6,-1
 32 0 l 1,7,-1
 32 378 l 1,8,-1
 86 432 l 1,9,-1
 158 432 l 1,10,-1
 158 396 l 1,11,-1
 101 396 l 1,12,-1
 68 363 l 1,13,-1
 68 270 l 1,0,-1
EndSplineSet
Ligature: 0 0 'liga' f i
EndChar
StartChar: fl
Encoding: 64258 64258 374
Width: 245
Flags: W
Fore
32 378 m 1,0,-1
 86 432 l 1,1,-1
 158 432 l 1,2,-1
 158 396 l 1,3,-1
 101 396 l 1,4,-1
 68 363 l 1,5,-1
 68 270 l 1,6,-1
 122 270 l 1,7,-1
 122 234 l 1,8,-1
 68 234 l 1,9,-1
 68 0 l 1,10,-1
 32 0 l 1,11,-1
 32 378 l 1,0,-1
158 432 m 1,12,-1
 194 432 l 1,13,-1
 194 0 l 1,14,-1
 158 0 l 1,15,-1
 158 432 l 1,12,-1
EndSplineSet
Ligature: 0 0 'liga' f l
EndChar
StartChar: CHAKRA
Encoding: 65541 -1 375
Width: 1414
Flags: W
Fore
180 182 m 1,0,-1
 43 182 l 1,1,-1
 43 355 l 1,2,-1
 113 355 l 1,3,-1
 113 337 l 1,4,-1
 95 337 l 1,5,-1
 95 200 l 1,6,-1
 128 200 l 1,7,-1
 128 370 l 1,8,-1
 43 370 l 1,9,-1
 43 387 l 1,10,-1
 180 387 l 1,11,-1
 180 182 l 1,0,-1
230 430 m 1,12,-1
 230 415 l 1,13,-1
 128 415 l 1,14,-1
 128 447 l 1,15,-1
 180 447 l 1,16,-1
 180 430 l 1,17,-1
 230 430 l 1,12,-1
360 387 m 1,18,-1
 360 182 l 1,19,-1
 308 182 l 1,20,-1
 308 370 l 1,21,-1
 275 370 l 1,22,-1
 275 182 l 1,23,-1
 223 182 l 1,24,-1
 223 370 l 1,25,-1
 205 370 l 1,26,-1
 205 387 l 1,27,-1
 360 387 l 1,18,-1
540 327 m 1,28,-1
 540 182 l 1,29,-1
 403 182 l 1,30,-1
 403 370 l 1,31,-1
 385 370 l 1,32,-1
 385 387 l 1,33,-1
 455 387 l 1,34,-1
 455 200 l 1,35,-1
 488 200 l 1,36,-1
 488 327 l 1,37,-1
 470 327 l 1,38,-1
 470 345 l 1,39,-1
 488 345 l 1,40,-1
 488 387 l 1,41,-1
 540 387 l 1,42,-1
 540 345 l 1,43,-1
 558 345 l 1,44,-1
 558 327 l 1,45,-1
 540 327 l 1,28,-1
650 182 m 1,46,-1
 583 182 l 1,47,-1
 583 200 l 1,48,-1
 600 200 l 1,49,-1
 600 337 l 1,50,-1
 565 337 l 1,51,-1
 565 387 l 1,52,-1
 650 387 l 1,53,-1
 650 370 l 1,54,-1
 618 370 l 1,55,-1
 618 355 l 1,56,-1
 650 355 l 1,57,-1
 650 182 l 1,46,-1
883 422 m 1,58,-1
 883 182 l 1,59,-1
 763 182 l 1,60,-1
 748 337 l 1,61,-1
 728 337 l 1,62,-1
 728 200 l 1,63,-1
 745 200 l 1,64,-1
 745 182 l 1,65,-1
 678 182 l 1,66,-1
 678 355 l 1,67,-1
 798 355 l 1,68,-1
 813 200 l 1,69,-1
 830 200 l 1,70,-1
 830 370 l 1,71,-1
 678 370 l 1,72,-1
 678 387 l 1,73,-1
 830 387 l 1,74,-1
 830 422 l 1,75,-1
 883 422 l 1,58,-1
1070 182 m 1,76,-1
 1063 182 l 1,77,-1
 1063 175 l 1,78,-1
 1010 175 l 1,79,-1
 1010 182 l 1,80,-1
 925 182 l 1,81,-1
 925 370 l 1,82,-1
 908 370 l 1,83,-1
 908 387 l 1,84,-1
 978 387 l 1,85,-1
 978 200 l 1,86,-1
 1010 200 l 1,87,-1
 1010 387 l 1,88,-1
 1063 387 l 1,89,-1
 1063 200 l 1,90,-1
 1070 200 l 1,91,-1
 1070 182 l 1,76,-1
1173 387 m 1,92,-1
 1173 182 l 1,93,-1
 1123 182 l 1,94,-1
 1123 370 l 1,95,-1
 1088 370 l 1,96,-1
 1088 387 l 1,97,-1
 1173 387 l 1,92,-1
1363 182 m 1,98,-1
 1353 182 l 1,99,-1
 1353 175 l 1,100,-1
 1303 175 l 1,101,-1
 1303 182 l 1,102,-1
 1218 182 l 1,103,-1
 1218 370 l 1,104,-1
 1200 370 l 1,105,-1
 1200 387 l 1,106,-1
 1268 387 l 1,107,-1
 1268 200 l 1,108,-1
 1303 200 l 1,109,-1
 1303 387 l 1,110,-1
 1353 387 l 1,111,-1
 1353 200 l 1,112,-1
 1363 200 l 1,113,-1
 1363 182 l 1,98,-1
510 135 m 1,114,-1
 510 0 l 1,115,-1
 475 0 l 1,116,-1
 475 125 l 1,117,-1
 453 125 l 1,118,-1
 453 0 l 1,119,-1
 418 0 l 1,120,-1
 418 125 l 1,121,-1
 408 125 l 1,122,-1
 408 135 l 1,123,-1
 510 135 l 1,114,-1
585 0 m 1,124,-1
 538 0 l 1,125,-1
 538 10 l 1,126,-1
 550 10 l 1,127,-1
 550 102 l 1,128,-1
 528 102 l 1,129,-1
 528 135 l 1,130,-1
 585 135 l 1,131,-1
 585 125 l 1,132,-1
 563 125 l 1,133,-1
 563 112 l 1,134,-1
 585 112 l 1,135,-1
 585 0 l 1,124,-1
658 135 m 1,136,-1
 658 0 l 1,137,-1
 625 0 l 1,138,-1
 625 125 l 1,139,-1
 603 125 l 1,140,-1
 603 135 l 1,141,-1
 658 135 l 1,136,-1
875 157 m 1,142,-1
 875 0 l 1,143,-1
 795 0 l 1,144,-1
 785 125 l 1,145,-1
 778 125 l 1,146,-1
 768 0 l 1,147,-1
 688 0 l 1,148,-1
 688 125 l 1,149,-1
 675 125 l 1,150,-1
 675 135 l 1,151,-1
 720 135 l 1,152,-1
 720 10 l 1,153,-1
 733 10 l 1,154,-1
 743 135 l 1,155,-1
 818 135 l 1,156,-1
 828 10 l 1,157,-1
 840 10 l 1,158,-1
 840 157 l 1,159,-1
 875 157 l 1,142,-1
728 152 m 1,160,-1
 728 165 l 1,161,-1
 830 165 l 1,162,-1
 830 152 l 1,163,-1
 728 152 l 1,160,-1
995 135 m 1,164,-1
 995 0 l 1,165,-1
 960 0 l 1,166,-1
 960 125 l 1,167,-1
 938 125 l 1,168,-1
 938 0 l 1,169,-1
 903 0 l 1,170,-1
 903 125 l 1,171,-1
 893 125 l 1,172,-1
 893 135 l 1,173,-1
 995 135 l 1,164,-1
EndSplineSet
Ligature: 0 0 'liga' C H A K R A D e i g n parenleft c parenright
EndChar
StartChar: uni1EDA
Encoding: 7898 7898 435
Width: 388
Flags: W
Fore
352 454 m 1,0,-1
 320 454 l 1,1,-1
 320 432 l 1,2,-1
 302 414 l 1,3,-1
 301 414 l 1,4,-1
 283 432 l 1,5,-1
 85 432 l 1,6,-1
 31 378 l 1,7,-1
 31 54 l 1,8,-1
 85 0 l 1,9,-1
 283 0 l 1,10,-1
 337 54 l 1,11,-1
 337 378 l 1,12,-1
 324 391 l 1,13,-1
 352 419 l 1,14,-1
 352 454 l 1,15,-1
 352 454 l 1,0,-1
301 69 m 1,16,-1
 268 36 l 1,17,-1
 100 36 l 1,18,-1
 67 69 l 1,19,-1
 67 363 l 1,20,-1
 100 396 l 1,21,-1
 268 396 l 1,22,-1
 301 363 l 1,23,-1
 301 69 l 1,24,-1
 301 69 l 1,16,-1
185 472 m 1,25,-1
 173 484 l 1,26,-1
 250 562 l 1,27,-1
 280 532 l 1,28,-1
 185 472 l 1,29,-1
 185 472 l 1,25,-1
EndSplineSet
Ligature: 0 0 'liga' Ohorn acutecomb
EndChar
StartChar: uni1EDC
Encoding: 7900 7900 437
Width: 389
Flags: W
Fore
353 453 m 1,0,-1
 353 418 l 1,1,-1
 325 390 l 1,2,-1
 338 377 l 1,3,-1
 338 53 l 1,4,-1
 284 -1 l 1,5,-1
 86 -1 l 1,6,-1
 32 53 l 1,7,-1
 32 377 l 1,8,-1
 86 431 l 1,9,-1
 284 431 l 1,10,-1
 302 413 l 1,11,-1
 303 413 l 1,12,-1
 321 431 l 1,13,-1
 321 453 l 1,14,-1
 353 453 l 1,0,-1
302 68 m 1,15,-1
 302 362 l 1,16,-1
 269 395 l 1,17,-1
 101 395 l 1,18,-1
 68 362 l 1,19,-1
 68 68 l 1,20,-1
 101 35 l 1,21,-1
 269 35 l 1,22,-1
 302 68 l 1,15,-1
185 472 m 1,23,-1
 90 532 l 1,24,-1
 120 562 l 1,25,-1
 198 484 l 1,26,-1
 185 472 l 1,23,-1
EndSplineSet
Ligature: 0 0 'liga' Ohorn gravecomb
EndChar
StartChar: uni1EDE
Encoding: 7902 7902 439
Width: 389
Flags: W
Fore
353 419 m 1,0,-1
 325 391 l 1,1,-1
 338 378 l 1,2,-1
 338 54 l 1,3,-1
 284 0 l 1,4,-1
 86 0 l 1,5,-1
 32 54 l 1,6,-1
 32 378 l 1,7,-1
 86 432 l 1,8,-1
 284 432 l 1,9,-1
 302 414 l 1,10,-1
 303 414 l 1,11,-1
 321 432 l 1,12,-1
 321 454 l 1,13,-1
 353 454 l 1,14,-1
 353 419 l 1,0,-1
302 363 m 1,15,-1
 269 396 l 1,16,-1
 101 396 l 1,17,-1
 68 363 l 1,18,-1
 68 69 l 1,19,-1
 101 36 l 1,20,-1
 269 36 l 1,21,-1
 302 69 l 1,22,-1
 302 363 l 1,15,-1
201 562 m 1,23,-1
 225 538 l 1,24,-1
 225 537 l 1,25,-1
 225 503 l 1,26,-1
 185 472 l 1,27,-1
 171 480 l 1,28,29
 178 490 178 490 184 497 c 0,30,31
 189 503 189 503 193 508 c 128,-1,32
 197 513 197 513 198 514 c 1,33,-1
 198 526 l 1,34,35
 197 527 197 527 194 530.5 c 128,-1,36
 191 534 191 534 190 535 c 1,37,-1
 173 535 l 1,38,39
 172 534 172 534 168.5 532 c 128,-1,40
 165 530 165 530 160 527 c 0,41,42
 155 523 155 523 148 520 c 1,43,-1
 135 527 l 1,44,-1
 166 562 l 1,45,-1
 201 562 l 1,23,-1
EndSplineSet
Ligature: 0 0 'liga' Ohorn hookabovecomb
EndChar
StartChar: uni1EE0
Encoding: 7904 7904 441
Width: 389
Flags: W
Fore
353 454 m 1,0,-1
 353 419 l 1,1,-1
 325 391 l 1,2,-1
 338 378 l 1,3,-1
 338 54 l 1,4,-1
 284 0 l 1,5,-1
 86 0 l 1,6,-1
 32 54 l 1,7,-1
 32 378 l 1,8,-1
 86 432 l 1,9,-1
 284 432 l 1,10,-1
 302 414 l 1,11,-1
 303 414 l 1,12,-1
 321 432 l 1,13,-1
 321 454 l 1,14,-1
 353 454 l 1,0,-1
302 69 m 1,15,-1
 302 363 l 1,16,-1
 269 396 l 1,17,-1
 101 396 l 1,18,-1
 68 363 l 1,19,-1
 68 69 l 1,20,-1
 101 36 l 1,21,-1
 269 36 l 1,22,-1
 302 69 l 1,15,-1
265 556 m 1,23,-1
 277 542 l 1,24,-1
 204 492 l 1,25,-1
 159 520 l 1,26,-1
 103 493 l 1,27,-1
 91 506 l 1,28,-1
 161 557 l 1,29,-1
 207 528 l 1,30,-1
 265 556 l 1,23,-1
EndSplineSet
Ligature: 0 0 'liga' Ohorn tildecomb
EndChar
StartChar: uni1EE2
Encoding: 7906 7906 443
Width: 389
Flags: W
Fore
353 454 m 1,0,-1
 353 419 l 1,1,-1
 325 391 l 1,2,-1
 338 378 l 1,3,-1
 338 54 l 1,4,-1
 284 0 l 1,5,-1
 86 0 l 1,6,-1
 32 54 l 1,7,-1
 32 378 l 1,8,-1
 86 432 l 1,9,-1
 284 432 l 1,10,-1
 302 414 l 1,11,-1
 303 414 l 1,12,-1
 321 432 l 1,13,-1
 321 454 l 1,14,-1
 353 454 l 1,0,-1
302 69 m 1,15,-1
 302 363 l 1,16,-1
 269 396 l 1,17,-1
 101 396 l 1,18,-1
 68 363 l 1,19,-1
 68 69 l 1,20,-1
 101 36 l 1,21,-1
 269 36 l 1,22,-1
 302 69 l 1,15,-1
218 -49 m 1,23,-1
 218 -76 l 1,24,-1
 199 -95 l 1,25,-1
 172 -95 l 1,26,-1
 153 -76 l 1,27,-1
 153 -49 l 1,28,-1
 172 -30 l 1,29,-1
 199 -30 l 1,30,-1
 218 -49 l 1,23,-1
EndSplineSet
Ligature: 0 0 'liga' Ohorn dotbelowcomb
EndChar
StartChar: franc
Encoding: 8355 8355 467
Width: 352
Flags: W
Fore
101 396 m 1,0,-1
 68 363 l 1,1,-1
 68 234 l 1,2,-1
 284 234 l 1,3,-1
 284 198 l 1,4,-1
 68 198 l 1,5,-1
 68 126 l 1,6,-1
 176 126 l 1,7,-1
 176 90 l 1,8,-1
 68 90 l 1,9,-1
 68 0 l 1,10,-1
 32 0 l 1,11,-1
 32 90 l 1,12,-1
 -4 90 l 1,13,-1
 -4 126 l 1,14,-1
 32 126 l 1,15,-1
 32 378 l 1,16,-1
 86 432 l 1,17,-1
 302 432 l 1,18,-1
 302 396 l 1,19,-1
 101 396 l 1,0,-1
EndSplineSet
EndChar
StartChar: dong
Encoding: 8363 8363 468
Width: 371
Flags: W
Fore
322 387 m 1,0,-1
 358 387 l 1,1,-1
 358 351 l 1,2,-1
 322 351 l 1,3,-1
 322 54 l 1,4,-1
 268 0 l 1,5,-1
 88 0 l 1,6,-1
 34 54 l 1,7,-1
 34 252 l 1,8,-1
 88 306 l 1,9,-1
 214 306 l 1,10,-1
 286 234 l 1,11,-1
 286 351 l 1,12,-1
 232 351 l 1,13,-1
 232 387 l 1,14,-1
 286 387 l 1,15,-1
 286 432 l 1,16,-1
 322 432 l 1,17,-1
 322 387 l 1,0,-1
286 69 m 1,18,-1
 286 189 l 1,19,-1
 205 270 l 1,20,-1
 103 270 l 1,21,-1
 70 237 l 1,22,-1
 70 69 l 1,23,-1
 103 36 l 1,24,-1
 253 36 l 1,25,-1
 286 69 l 1,18,-1
34 -66 m 1,26,-1
 34 -30 l 1,27,-1
 322 -30 l 1,28,-1
 322 -66 l 1,29,-1
 34 -66 l 1,26,-1
EndSplineSet
EndChar
StartChar: Dcroat
Encoding: 272 272 475
Width: 371
Flags: W
Fore
266 432 m 1,0,-1
 320 378 l 1,1,-1
 320 54 l 1,2,-1
 266 0 l 1,3,-1
 32 0 l 1,4,-1
 32 198 l 1,5,-1
 -4 198 l 1,6,-1
 -4 234 l 1,7,-1
 32 234 l 1,8,-1
 32 432 l 1,9,-1
 266 432 l 1,0,-1
284 69 m 1,10,-1
 284 363 l 1,11,-1
 251 396 l 1,12,-1
 68 396 l 1,13,-1
 68 234 l 1,14,-1
 194 234 l 1,15,-1
 194 198 l 1,16,-1
 68 198 l 1,17,-1
 68 36 l 1,18,-1
 251 36 l 1,19,-1
 284 69 l 1,10,-1
EndSplineSet
EndChar
StartChar: dcroat
Encoding: 273 273 476
Width: 371
Flags: W
Fore
357 387 m 1,0,-1
 357 351 l 1,1,-1
 321 351 l 1,2,-1
 321 54 l 1,3,-1
 268 0 l 1,4,-1
 88 0 l 1,5,-1
 34 54 l 1,6,-1
 34 252 l 1,7,-1
 87 306 l 1,8,-1
 213 306 l 1,9,-1
 285 234 l 1,10,-1
 285 351 l 1,11,-1
 231 351 l 1,12,-1
 231 387 l 1,13,-1
 285 387 l 1,14,-1
 285 432 l 1,15,-1
 321 432 l 1,16,-1
 321 387 l 1,17,-1
 357 387 l 1,0,-1
285 69 m 1,18,-1
 285 189 l 1,19,-1
 205 270 l 1,20,-1
 102 270 l 1,21,-1
 70 237 l 1,22,-1
 70 69 l 1,23,-1
 103 36 l 1,24,-1
 253 36 l 1,25,-1
 285 69 l 1,18,-1
EndSplineSet
EndChar
StartChar: Idotaccent
Encoding: 304 304 481
Width: 119
Flags: W
Fore
68 0 m 1,0,-1
 32 0 l 1,1,-1
 32 431 l 1,2,-1
 68 431 l 1,3,-1
 68 0 l 1,4,-1
 68 0 l 1,0,-1
60 517 m 1,5,-1
 73 504 l 1,6,-1
 73 485 l 1,7,-1
 60 472 l 1,8,-1
 41 472 l 1,9,-1
 28 485 l 1,10,-1
 28 504 l 1,11,-1
 41 517 l 1,12,-1
 60 517 l 1,5,-1
EndSplineSet
EndChar
StartChar: dotlessi
Encoding: 305 305 482
Width: 119
Flags: W
Fore
33 0 m 1,0,-1
 33 305 l 1,1,-1
 69 305 l 1,2,-1
 69 0 l 1,3,-1
 33 0 l 1,4,-1
 33 0 l 1,0,-1
EndSplineSet
EndChar
StartChar: Scedilla
Encoding: 350 350 483
Width: 371
Flags: W
Fore
222 -66 m 1,0,-1
 222 -114 l 1,1,-1
 185 -151 l 1,2,-1
 131 -151 l 1,3,-1
 131 -120 l 1,4,-1
 172 -120 l 1,5,-1
 190 -101 l 1,6,-1
 190 -80 l 1,7,-1
 172 -61 l 1,8,-1
 131 -61 l 1,9,-1
 131 -43 l 1,10,-1
 166 0 l 1,11,-1
 96 0 l 1,12,-1
 42 54 l 1,13,-1
 42 90 l 1,14,-1
 78 90 l 1,15,-1
 78 68 l 1,16,-1
 111 36 l 1,17,-1
 252 36 l 1,18,-1
 285 69 l 1,19,-1
 285 183 l 1,20,-1
 252 216 l 1,21,-1
 87 216 l 1,22,-1
 33 269 l 1,23,-1
 33 377 l 1,24,-1
 87 431 l 1,25,-1
 258 431 l 1,26,-1
 312 377 l 1,27,-1
 312 341 l 1,28,-1
 276 341 l 1,29,-1
 276 363 l 1,30,-1
 243 395 l 1,31,-1
 102 395 l 1,32,-1
 69 362 l 1,33,-1
 69 284 l 1,34,-1
 102 251 l 1,35,-1
 267 251 l 1,36,-1
 321 198 l 1,37,-1
 321 54 l 1,38,-1
 267 0 l 1,39,-1
 194 0 l 1,40,-1
 177 -30 l 1,41,-1
 185 -30 l 1,42,-1
 222 -66 l 1,0,-1
EndSplineSet
EndChar
StartChar: scedilla
Encoding: 351 351 484
Width: 372
Flags: W
Fore
223 -65 m 1,0,-1
 223 -113 l 1,1,-1
 186 -150 l 1,2,-1
 132 -150 l 1,3,-1
 132 -119 l 1,4,-1
 173 -119 l 1,5,-1
 191 -100 l 1,6,-1
 191 -79 l 1,7,-1
 173 -60 l 1,8,-1
 132 -60 l 1,9,-1
 132 -42 l 1,10,-1
 166 0 l 1,11,-1
 96 0 l 1,12,-1
 42 54 l 1,13,-1
 42 90 l 1,14,-1
 78 90 l 1,15,-1
 78 69 l 1,16,-1
 111 36 l 1,17,-1
 252 36 l 1,18,-1
 285 69 l 1,19,-1
 285 103 l 1,20,-1
 252 135 l 1,21,-1
 87 135 l 1,22,-1
 33 189 l 1,23,-1
 33 252 l 1,24,-1
 87 306 l 1,25,-1
 258 306 l 1,26,-1
 312 252 l 1,27,-1
 312 216 l 1,28,-1
 276 216 l 1,29,-1
 276 237 l 1,30,-1
 243 270 l 1,31,-1
 102 270 l 1,32,-1
 69 237 l 1,33,-1
 69 204 l 1,34,-1
 102 171 l 1,35,-1
 267 171 l 1,36,-1
 321 118 l 1,37,-1
 321 54 l 1,38,-1
 267 0 l 1,39,-1
 194 0 l 1,40,-1
 178 -29 l 1,41,-1
 186 -29 l 1,42,-1
 223 -65 l 1,0,-1
EndSplineSet
EndChar
StartChar: Ohorn
Encoding: 416 416 487
Width: 389
Flags: W
Fore
353 454 m 1,0,-1
 353 419 l 1,1,-1
 325 391 l 1,2,-1
 338 378 l 1,3,-1
 338 54 l 1,4,-1
 284 0 l 1,5,-1
 86 0 l 1,6,-1
 32 54 l 1,7,-1
 32 378 l 1,8,-1
 86 432 l 1,9,-1
 284 432 l 1,10,-1
 302 414 l 1,11,-1
 303 414 l 1,12,-1
 321 432 l 1,13,-1
 321 454 l 1,14,-1
 353 454 l 1,0,-1
302 69 m 1,15,-1
 302 363 l 1,16,-1
 269 396 l 1,17,-1
 101 396 l 1,18,-1
 68 363 l 1,19,-1
 68 69 l 1,20,-1
 101 36 l 1,21,-1
 269 36 l 1,22,-1
 302 69 l 1,15,-1
EndSplineSet
EndChar
StartChar: ohorn
Encoding: 417 417 488
Width: 371
Flags: W
Fore
334 329 m 1,0,-1
 334 294 l 1,1,-1
 307 266 l 1,2,-1
 321 252 l 1,3,-1
 321 54 l 1,4,-1
 267 0 l 1,5,-1
 87 0 l 1,6,-1
 33 54 l 1,7,-1
 33 252 l 1,8,-1
 87 306 l 1,9,-1
 267 306 l 1,10,-1
 284 289 l 1,11,-1
 303 307 l 1,12,-1
 303 329 l 1,13,-1
 334 329 l 1,0,-1
252 36 m 1,14,-1
 285 69 l 1,15,-1
 285 237 l 1,16,-1
 252 270 l 1,17,-1
 102 270 l 1,18,-1
 69 237 l 1,19,-1
 69 69 l 1,20,-1
 102 36 l 1,21,-1
 252 36 l 1,14,-1
EndSplineSet
EndChar
StartChar: Uhorn
Encoding: 431 431 489
Width: 418
Flags: W
Fore
351 453 m 1,0,-1
 383 453 l 1,1,-1
 383 418 l 1,2,-1
 346 381 l 1,3,-1
 320 381 l 1,4,-1
 320 54 l 1,5,-1
 266 0 l 1,6,-1
 86 0 l 1,7,-1
 32 54 l 1,8,-1
 32 432 l 1,9,-1
 68 432 l 1,10,-1
 68 69 l 1,11,-1
 101 36 l 1,12,-1
 251 36 l 1,13,-1
 284 69 l 1,14,-1
 284 432 l 1,15,-1
 320 432 l 1,16,-1
 320 413 l 1,17,-1
 333 413 l 1,18,-1
 351 431 l 1,19,-1
 351 453 l 1,0,-1
EndSplineSet
EndChar
StartChar: uhorn
Encoding: 432 432 490
Width: 398
Flags: W
Fore
332 328 m 1,0,-1
 363 328 l 1,1,-1
 363 293 l 1,2,-1
 327 256 l 1,3,-1
 302 256 l 1,4,-1
 302 0 l 1,5,-1
 266 0 l 1,6,-1
 266 72 l 1,7,-1
 194 0 l 1,8,-1
 86 0 l 1,9,-1
 32 54 l 1,10,-1
 32 306 l 1,11,-1
 68 306 l 1,12,-1
 68 69 l 1,13,-1
 101 36 l 1,14,-1
 185 36 l 1,15,-1
 266 116 l 1,16,-1
 266 306 l 1,17,-1
 302 306 l 1,18,-1
 302 287 l 1,19,-1
 314 287 l 1,20,-1
 332 306 l 1,21,-1
 332 328 l 1,0,-1
EndSplineSet
EndChar
StartChar: hookabovecomb
Encoding: 777 777 491
Width: 172
Flags: W
Fore
97 545 m 1,0,-1
 121 521 l 1,1,-1
 121 520 l 1,2,-1
 121 486 l 1,3,-1
 81 455 l 1,4,-1
 67 463 l 1,5,6
 74 473 74 473 80 480 c 0,7,8
 85 486 85 486 89 491 c 128,-1,9
 93 496 93 496 94 497 c 1,10,-1
 94 509 l 1,11,12
 93 510 93 510 90 513.5 c 128,-1,13
 87 517 87 517 86 518 c 1,14,-1
 69 518 l 1,15,16
 68 517 68 517 64.5 515 c 128,-1,17
 61 513 61 513 56 510 c 0,18,19
 51 506 51 506 44 503 c 1,20,-1
 31 510 l 1,21,-1
 62 545 l 1,22,-1
 97 545 l 1,0,-1
EndSplineSet
EndChar
StartChar: tildecomb
Encoding: 771 771 492
Width: 267
Flags: W
Fore
205 531 m 1,0,-1
 217 517 l 1,1,-1
 144 467 l 1,2,-1
 99 495 l 1,3,-1
 43 468 l 1,4,-1
 31 481 l 1,5,-1
 101 532 l 1,6,-1
 147 503 l 1,7,-1
 205 531 l 1,8,-1
 205 531 l 1,0,-1
EndSplineSet
EndChar
StartChar: acutecomb
Encoding: 769 769 493
Width: 189
Flags: W
Fore
43 455 m 1,0,-1
 31 467 l 1,1,-1
 108 545 l 1,2,-1
 138 515 l 1,3,-1
 43 455 l 1,4,-1
 43 455 l 1,0,-1
EndSplineSet
EndChar
StartChar: dotbelowcomb
Encoding: 803 803 494
Width: 147
Flags: W
Fore
96 -49 m 1,0,-1
 96 -76 l 1,1,-1
 77 -95 l 1,2,-1
 50 -95 l 1,3,-1
 31 -76 l 1,4,-1
 31 -49 l 1,5,-1
 50 -30 l 1,6,-1
 77 -30 l 1,7,-1
 96 -49 l 1,8,-1
 96 -49 l 1,0,-1
EndSplineSet
EndChar
StartChar: gravecomb
Encoding: 768 768 495
Width: 189
Flags: W
Fore
126 455 m 1,0,-1
 31 515 l 1,1,-1
 61 545 l 1,2,-1
 139 467 l 1,3,-1
 126 455 l 1,4,-1
 126 455 l 1,0,-1
EndSplineSet
EndChar
